<svg xmlns="http://www.w3.org/2000/svg" xmlns:xlink="http://www.w3.org/1999/xlink" xmlns:lucid="lucid" width="1760" height="1360"><g transform="translate(0 0)" lucid:page-tab-id="0_0"><path d="M365.96 74c0-6.63 5.37-12 12-12h936.17c6.63 0 12 5.37 12 12v39.08c0 6.62-5.37 12-12 12H377.96c-6.63 0-12-5.38-12-12z" stroke="#000" stroke-opacity="0" stroke-width="2" fill="#fff" fill-opacity="0"/><use xlink:href="#a" transform="matrix(1,0,0,1,370.95736456049923,66.99999999999994) translate(264.98148148148147 31.458333333333336)"/><use xlink:href="#b" transform="matrix(1,0,0,1,370.95736456049923,66.99999999999994) translate(368.31481481481484 31.458333333333336)"/><use xlink:href="#c" transform="matrix(1,0,0,1,370.95736456049923,66.99999999999994) translate(449.5740740740741 31.458333333333336)"/><use xlink:href="#d" transform="matrix(1,0,0,1,370.95736456049923,66.99999999999994) translate(572.3148148148148 31.458333333333336)"/><path d="M621.1 129.87c0-6.63 5.36-12 12-12h430c6.62 0 12 5.37 12 12V140c0 6.63-5.38 12-12 12h-430c-6.64 0-12-5.37-12-12z" stroke="#000" stroke-opacity="0" stroke-width="2" fill="#fff" fill-opacity="0"/><use xlink:href="#e" transform="matrix(1,0,0,1,626.0889487678969,122.86936285872464) translate(81.44135802469137 15.569444444444446)"/><use xlink:href="#f" transform="matrix(1,0,0,1,626.0889487678969,122.86936285872464) translate(142.7993827160494 15.569444444444446)"/><use xlink:href="#g" transform="matrix(1,0,0,1,626.0889487678969,122.86936285872464) translate(171.3179012345679 15.569444444444446)"/><use xlink:href="#h" transform="matrix(1,0,0,1,626.0889487678969,122.86936285872464) translate(214.48456790123458 15.569444444444446)"/><use xlink:href="#i" transform="matrix(1,0,0,1,626.0889487678969,122.86936285872464) translate(227.14506172839506 15.569444444444446)"/><use xlink:href="#j" transform="matrix(1,0,0,1,626.0889487678969,122.86936285872464) translate(303.0648148148148 15.569444444444446)"/><use xlink:href="#k" transform="matrix(1,0,0,1,626.0889487678969,122.86936285872464) translate(328.99074074074076 15.569444444444446)"/><path d="M543.6 117.6h610.2M543.62 117.6h-1.02M1153.78 117.6h1.03" stroke="#b2b2b2" stroke-width="2" fill="none"/><path d="M1080 505c0-2.76 2.24-5 5-5h291.46c2.76 0 5 2.24 5 5v321c0 2.76-2.24 5-5 5H1085c-2.76 0-5-2.24-5-5z" fill="#fff"/><path d="M1080 500h301.46v75H1080z" fill="#ccc"/><path d="M1080 505c0-2.76 2.24-5 5-5h291.46c2.76 0 5 2.24 5 5v321c0 2.76-2.24 5-5 5H1085c-2.76 0-5-2.24-5-5zM1080 575h301.46M1127.5 575v256M1271.7 575v256" stroke="#000" fill="none"/><use xlink:href="#l" transform="matrix(1,0,0,1,1090,500) translate(0 19.5)"/><use xlink:href="#m" transform="matrix(1,0,0,1,1090,500) translate(0 41.1)"/><use xlink:href="#n" transform="matrix(1,0,0,1,1090,500) translate(117.65 41.1)"/><use xlink:href="#o" transform="matrix(1,0,0,1,1090,500) translate(134.65 41.1)"/><use xlink:href="#p" transform="matrix(1,0,0,1,1090,500) translate(0 62.7)"/><use xlink:href="#q" transform="matrix(1,0,0,1,1085,577.5) translate(0 17.1)"/><use xlink:href="#r" transform="matrix(1,0,0,1,1132.488293659097,577.5) translate(0 17.1)"/><use xlink:href="#s" transform="matrix(1,0,0,1,1276.7100833496245,577.5) translate(0 17.1)"/><use xlink:href="#t" transform="matrix(1,0,0,1,1085,609.5) translate(0 17.1)"/><use xlink:href="#u" transform="matrix(1,0,0,1,1132.488293659097,609.5) translate(0 17.1)"/><use xlink:href="#s" transform="matrix(1,0,0,1,1276.7100833496245,609.5) translate(0 17.1)"/><use xlink:href="#t" transform="matrix(1,0,0,1,1085,641.5) translate(0 17.1)"/><use xlink:href="#v" transform="matrix(1,0,0,1,1132.488293659097,641.5) translate(0 17.1)"/><use xlink:href="#s" transform="matrix(1,0,0,1,1276.7100833496245,641.5) translate(0 17.1)"/><use xlink:href="#w" transform="matrix(1,0,0,1,1132.488293659097,673.5) translate(0 17.1)"/><use xlink:href="#x" transform="matrix(1,0,0,1,1276.7100833496245,673.5) translate(0 17.1)"/><use xlink:href="#y" transform="matrix(1,0,0,1,1132.488293659097,705.5) translate(0 17.1)"/><use xlink:href="#s" transform="matrix(1,0,0,1,1276.7100833496245,705.5) translate(0 17.1)"/><use xlink:href="#z" transform="matrix(1,0,0,1,1132.488293659097,737.5) translate(0 17.1)"/><use xlink:href="#A" transform="matrix(1,0,0,1,1276.7100833496245,737.5) translate(0 17.1)"/><use xlink:href="#B" transform="matrix(1,0,0,1,1132.488293659097,769.5) translate(0 17.1)"/><use xlink:href="#A" transform="matrix(1,0,0,1,1276.7100833496245,769.5) translate(0 17.1)"/><use xlink:href="#C" transform="matrix(1,0,0,1,1132.488293659097,801.5) translate(0 17.1)"/><use xlink:href="#D" transform="matrix(1,0,0,1,1276.7100833496245,801.5) translate(0 17.1)"/><path d="M1460 546.5c0-2.76 2.24-5 5-5h290.36c2.77 0 5 2.24 5 5v318c0 2.76-2.23 5-5 5H1465c-2.76 0-5-2.24-5-5z" fill="#fff"/><path d="M1460 541.5h300.36v40H1460z" fill="#ccc"/><path d="M1460 546.5c0-2.76 2.24-5 5-5h290.36c2.77 0 5 2.24 5 5v318c0 2.76-2.23 5-5 5H1465c-2.76 0-5-2.24-5-5zM1460 581.5h300.36M1507.5 581.5v288M1652.94 581.5v288" stroke="#000" fill="none"/><use xlink:href="#E" transform="matrix(1,0,0,1,1470,541.5) translate(0 23.6)"/><use xlink:href="#q" transform="matrix(1,0,0,1,1465,584) translate(0 17.1)"/><use xlink:href="#r" transform="matrix(1,0,0,1,1512.488293659097,584) translate(0 17.1)"/><use xlink:href="#s" transform="matrix(1,0,0,1,1657.9357410375815,584) translate(0 17.1)"/><use xlink:href="#t" transform="matrix(1,0,0,1,1465,616) translate(0 17.1)"/><use xlink:href="#F" transform="matrix(1,0,0,1,1512.488293659097,616) translate(0 17.099999999999998)"/><use xlink:href="#s" transform="matrix(1,0,0,1,1657.9357410375815,616) translate(0 17.1)"/><use xlink:href="#t" transform="matrix(1,0,0,1,1465,648) translate(0 17.1)"/><use xlink:href="#G" transform="matrix(1,0,0,1,1512.488293659097,648) translate(0 17.099999999999998)"/><use xlink:href="#s" transform="matrix(1,0,0,1,1657.9357410375815,648) translate(0 17.1)"/><use xlink:href="#H" transform="matrix(1,0,0,1,1512.488293659097,680) translate(0 17.099999999999998)"/><use xlink:href="#x" transform="matrix(1,0,0,1,1657.9357410375815,680) translate(0 17.1)"/><use xlink:href="#I" transform="matrix(1,0,0,1,1512.488293659097,712) translate(0 17.099999999999998)"/><use xlink:href="#x" transform="matrix(1,0,0,1,1657.9357410375815,712) translate(0 17.1)"/><use xlink:href="#J" transform="matrix(1,0,0,1,1512.488293659097,744) translate(0 17.1)"/><use xlink:href="#s" transform="matrix(1,0,0,1,1657.9357410375815,744) translate(0 17.1)"/><use xlink:href="#K" transform="matrix(1,0,0,1,1512.488293659097,776) translate(0 17.099999999999998)"/><use xlink:href="#A" transform="matrix(1,0,0,1,1657.9357410375815,776) translate(0 17.1)"/><use xlink:href="#L" transform="matrix(1,0,0,1,1512.488293659097,808) translate(0 17.1)"/><use xlink:href="#A" transform="matrix(1,0,0,1,1657.9357410375815,808) translate(0 17.1)"/><use xlink:href="#C" transform="matrix(1,0,0,1,1512.488293659097,840) translate(0 17.1)"/><use xlink:href="#D" transform="matrix(1,0,0,1,1657.9357410375815,840) translate(0 17.1)"/><path d="M1080 925c0-2.76 2.24-5 5-5h310c2.76 0 5 2.24 5 5v382c0 2.76-2.24 5-5 5h-310c-2.76 0-5-2.24-5-5z" fill="#fff"/><path d="M1080 920h320v40h-320z" fill="#ccc"/><path d="M1080 925c0-2.76 2.24-5 5-5h310c2.76 0 5 2.24 5 5v382c0 2.76-2.24 5-5 5h-310c-2.76 0-5-2.24-5-5zM1080 960h320M1127.5 960v352M1289 960v352" stroke="#000" fill="none"/><use xlink:href="#M" transform="matrix(1,0,0,1,1090,920) translate(0 23.6)"/><use xlink:href="#q" transform="matrix(1,0,0,1,1085,962.5) translate(0 17.1)"/><use xlink:href="#r" transform="matrix(1,0,0,1,1132.488293659097,962.5) translate(0 17.1)"/><use xlink:href="#s" transform="matrix(1,0,0,1,1293.9936545249257,962.5) translate(0 17.1)"/><use xlink:href="#N" transform="matrix(1,0,0,1,1132.488293659097,994.5) translate(0 17.1)"/><use xlink:href="#x" transform="matrix(1,0,0,1,1293.9936545249257,994.5) translate(0 17.1)"/><use xlink:href="#O" transform="matrix(1,0,0,1,1132.488293659097,1026.5) translate(0 17.1)"/><use xlink:href="#x" transform="matrix(1,0,0,1,1293.9936545249257,1026.5) translate(0 17.1)"/><use xlink:href="#P" transform="matrix(1,0,0,1,1132.488293659097,1058.5) translate(0 17.1)"/><use xlink:href="#x" transform="matrix(1,0,0,1,1293.9936545249257,1058.5) translate(0 17.1)"/><use xlink:href="#Q" transform="matrix(1,0,0,1,1132.488293659097,1090.5) translate(0 17.1)"/><use xlink:href="#x" transform="matrix(1,0,0,1,1293.9936545249257,1090.5) translate(0 17.1)"/><use xlink:href="#R" transform="matrix(1,0,0,1,1132.488293659097,1122.5) translate(0 17.1)"/><use xlink:href="#x" transform="matrix(1,0,0,1,1293.9936545249257,1122.5) translate(0 17.1)"/><use xlink:href="#S" transform="matrix(1,0,0,1,1132.488293659097,1154.5) translate(0 17.1)"/><use xlink:href="#s" transform="matrix(1,0,0,1,1293.9936545249257,1154.5) translate(0 17.1)"/><use xlink:href="#T" transform="matrix(1,0,0,1,1132.488293659097,1186.5) translate(0 17.1)"/><use xlink:href="#s" transform="matrix(1,0,0,1,1293.9936545249257,1186.5) translate(0 17.1)"/><use xlink:href="#K" transform="matrix(1,0,0,1,1132.488293659097,1218.5) translate(0 17.099999999999998)"/><use xlink:href="#A" transform="matrix(1,0,0,1,1293.9936545249257,1218.5) translate(0 17.1)"/><use xlink:href="#B" transform="matrix(1,0,0,1,1132.488293659097,1250.5) translate(0 17.1)"/><use xlink:href="#A" transform="matrix(1,0,0,1,1293.9936545249257,1250.5) translate(0 17.1)"/><use xlink:href="#U" transform="matrix(1,0,0,1,1132.488293659097,1282.5) translate(0 17.1)"/><use xlink:href="#D" transform="matrix(1,0,0,1,1293.9936545249257,1282.5) translate(0 17.1)"/><path d="M320 750.08c0-2.76 2.24-5 5-5h332.54c2.77 0 5 2.24 5 5v446c0 2.76-2.23 5-5 5H325c-2.76 0-5-2.24-5-5z" fill="#fff"/><path d="M320 745.08h342.54v40H320z" fill="#ccc"/><path d="M320 750.08c0-2.76 2.24-5 5-5h332.54c2.77 0 5 2.24 5 5v446c0 2.76-2.23 5-5 5H325c-2.76 0-5-2.24-5-5zM320 785.08h342.54M367.5 785.08v416M557.7 785.08v416" stroke="#000" fill="none"/><use xlink:href="#V" transform="matrix(1,0,0,1,330.00000000000006,745.0815966731866) translate(0 23.6)"/><use xlink:href="#q" transform="matrix(1,0,0,1,325.00000000000006,787.5815966731866) translate(0 17.1)"/><use xlink:href="#r" transform="matrix(1,0,0,1,372.488293659097,787.5815966731866) translate(0 17.1)"/><use xlink:href="#s" transform="matrix(1,0,0,1,562.6997852797556,787.5815966731866) translate(0 17.1)"/><use xlink:href="#N" transform="matrix(1,0,0,1,372.488293659097,819.5815966731866) translate(0 17.1)"/><use xlink:href="#x" transform="matrix(1,0,0,1,562.6997852797556,819.5815966731866) translate(0 17.1)"/><use xlink:href="#P" transform="matrix(1,0,0,1,372.488293659097,851.5815966731866) translate(0 17.1)"/><use xlink:href="#x" transform="matrix(1,0,0,1,562.6997852797556,851.5815966731866) translate(0 17.1)"/><use xlink:href="#W" transform="matrix(1,0,0,1,372.488293659097,883.5815966731866) translate(0 17.1)"/><use xlink:href="#x" transform="matrix(1,0,0,1,562.6997852797556,883.5815966731866) translate(0 17.1)"/><use xlink:href="#X" transform="matrix(1,0,0,1,372.488293659097,915.5815966731866) translate(0 17.1)"/><use xlink:href="#x" transform="matrix(1,0,0,1,562.6997852797556,915.5815966731866) translate(0 17.1)"/><use xlink:href="#Y" transform="matrix(1,0,0,1,372.488293659097,947.5815966731866) translate(0 17.1)"/><use xlink:href="#x" transform="matrix(1,0,0,1,562.6997852797556,947.5815966731866) translate(0 17.1)"/><use xlink:href="#Z" transform="matrix(1,0,0,1,372.488293659097,979.5815966731866) translate(0 17.1)"/><use xlink:href="#s" transform="matrix(1,0,0,1,562.6997852797556,979.5815966731866) translate(0 17.1)"/><use xlink:href="#aa" transform="matrix(1,0,0,1,372.488293659097,1011.5815966731866) translate(0 17.1)"/><use xlink:href="#s" transform="matrix(1,0,0,1,562.6997852797556,1011.5815966731866) translate(0 17.1)"/><use xlink:href="#ab" transform="matrix(1,0,0,1,372.488293659097,1043.5815966731866) translate(0 17.1)"/><use xlink:href="#s" transform="matrix(1,0,0,1,562.6997852797556,1043.5815966731866) translate(0 17.1)"/><use xlink:href="#t" transform="matrix(1,0,0,1,325.00000000000006,1075.5815966731866) translate(0 17.1)"/><use xlink:href="#ac" transform="matrix(1,0,0,1,372.488293659097,1075.5815966731866) translate(0 17.1)"/><use xlink:href="#s" transform="matrix(1,0,0,1,562.6997852797556,1075.5815966731866) translate(0 17.1)"/><use xlink:href="#K" transform="matrix(1,0,0,1,372.488293659097,1107.5815966731866) translate(0 17.099999999999998)"/><use xlink:href="#A" transform="matrix(1,0,0,1,562.6997852797556,1107.5815966731866) translate(0 17.1)"/><use xlink:href="#ad" transform="matrix(1,0,0,1,372.488293659097,1139.5815966731866) translate(0 17.1)"/><use xlink:href="#ae" transform="matrix(1,0,0,1,562.6997852797556,1139.5815966731866) translate(0 17.1)"/><use xlink:href="#af" transform="matrix(1,0,0,1,372.488293659097,1171.5815966731866) translate(0 17.1)"/><use xlink:href="#D" transform="matrix(1,0,0,1,562.6997852797556,1171.5815966731866) translate(0 17.1)"/><path d="M0 710.33c0-2.77 2.24-5 5-5h248.9c2.77 0 5 2.23 5 5v254c0 2.76-2.23 5-5 5H5c-2.76 0-5-2.24-5-5z" fill="#fff"/><path d="M0 705.33h258.9v40H0z" fill="#ccc"/><path d="M0 710.33c0-2.77 2.24-5 5-5h248.9c2.77 0 5 2.23 5 5v254c0 2.76-2.23 5-5 5H5c-2.76 0-5-2.24-5-5zM0 745.33h258.9M34.52 745.33v224M161.94 745.33v224" stroke="#000" fill="none"/><use xlink:href="#ag" transform="matrix(1,0,0,1,10,705.3252775232772) translate(0 23.6)"/><use xlink:href="#q" transform="matrix(1,0,0,1,5,747.8252775232772) translate(0 17.1)"/><use xlink:href="#r" transform="matrix(1,0,0,1,39.52013586414594,747.8252775232772) translate(0 17.1)"/><use xlink:href="#s" transform="matrix(1,0,0,1,166.94186061817203,747.8252775232772) translate(0 17.1)"/><use xlink:href="#ah" transform="matrix(1,0,0,1,39.52013586414594,779.8252775232772) translate(0 17.1)"/><use xlink:href="#x" transform="matrix(1,0,0,1,166.94186061817203,779.8252775232772) translate(0 17.1)"/><use xlink:href="#ai" transform="matrix(1,0,0,1,39.52013586414594,811.8252775232772) translate(0 17.1)"/><use xlink:href="#x" transform="matrix(1,0,0,1,166.94186061817203,811.8252775232772) translate(0 17.1)"/><use xlink:href="#Q" transform="matrix(1,0,0,1,39.52013586414594,843.8252775232772) translate(0 17.1)"/><use xlink:href="#x" transform="matrix(1,0,0,1,166.94186061817203,843.8252775232772) translate(0 17.1)"/><use xlink:href="#aj" transform="matrix(1,0,0,1,39.52013586414594,875.8252775232772) translate(0 17.1)"/><use xlink:href="#x" transform="matrix(1,0,0,1,166.94186061817203,875.8252775232772) translate(0 17.1)"/><use xlink:href="#z" transform="matrix(1,0,0,1,39.52013586414594,907.8252775232772) translate(0 17.1)"/><use xlink:href="#A" transform="matrix(1,0,0,1,166.94186061817203,907.8252775232772) translate(0 17.1)"/><use xlink:href="#t" transform="matrix(1,0,0,1,5,939.8252775232772) translate(0 17.1)"/><use xlink:href="#B" transform="matrix(1,0,0,1,39.52013586414594,939.8252775232772) translate(0 17.1)"/><use xlink:href="#A" transform="matrix(1,0,0,1,166.94186061817203,939.8252775232772) translate(0 17.1)"/><path d="M723.63 678.33c0-2.77 2.24-5 5-5H1019c2.76 0 5 2.23 5 5v254c0 2.76-2.24 5-5 5H728.63c-2.76 0-5-2.24-5-5z" fill="#fff"/><path d="M723.63 673.33H1024v40H723.63z" fill="#ccc"/><path d="M723.63 678.33c0-2.77 2.24-5 5-5H1019c2.76 0 5 2.23 5 5v254c0 2.76-2.24 5-5 5H728.63c-2.76 0-5-2.24-5-5zM723.63 713.33H1024M787.24 713.33v224M923.2 713.33v224" stroke="#000" fill="none"/><use xlink:href="#ak" transform="matrix(1,0,0,1,733.6334231518454,673.3252775232772) translate(0 23.6)"/><use xlink:href="#al" transform="matrix(1,0,0,1,728.6334231518454,715.8252775232772) translate(0 17.1)"/><use xlink:href="#r" transform="matrix(1,0,0,1,792.2380052396564,715.8252775232772) translate(0 17.1)"/><use xlink:href="#s" transform="matrix(1,0,0,1,928.211077493724,715.8252775232772) translate(0 17.1)"/><use xlink:href="#am" transform="matrix(1,0,0,1,792.2380052396564,747.8252775232772) translate(0 17.1)"/><use xlink:href="#x" transform="matrix(1,0,0,1,928.211077493724,747.8252775232772) translate(0 17.1)"/><use xlink:href="#an" transform="matrix(1,0,0,1,792.2380052396564,779.8252775232772) translate(0 17.1)"/><use xlink:href="#x" transform="matrix(1,0,0,1,928.211077493724,779.8252775232772) translate(0 17.1)"/><use xlink:href="#ao" transform="matrix(1,0,0,1,792.2380052396564,811.8252775232772) translate(0 17.1)"/><use xlink:href="#x" transform="matrix(1,0,0,1,928.211077493724,811.8252775232772) translate(0 17.1)"/><use xlink:href="#K" transform="matrix(1,0,0,1,792.2380052396564,843.8252775232772) translate(0 17.099999999999998)"/><use xlink:href="#A" transform="matrix(1,0,0,1,928.211077493724,843.8252775232772) translate(0 17.1)"/><use xlink:href="#ad" transform="matrix(1,0,0,1,792.2380052396564,875.8252775232772) translate(0 17.1)"/><use xlink:href="#A" transform="matrix(1,0,0,1,928.211077493724,875.8252775232772) translate(0 17.1)"/><use xlink:href="#af" transform="matrix(1,0,0,1,792.2380052396564,907.8252775232772) translate(0 17.1)"/><use xlink:href="#D" transform="matrix(1,0,0,1,928.211077493724,907.8252775232772) translate(0 17.1)"/><path d="M1100 185c0-2.76 2.24-5 5-5h332.54c2.77 0 5 2.24 5 5v254c0 2.76-2.23 5-5 5H1105c-2.76 0-5-2.24-5-5z" fill="#fff"/><path d="M1100 180h342.54v40H1100z" fill="#ccc"/><path d="M1100 185c0-2.76 2.24-5 5-5h332.54c2.77 0 5 2.24 5 5v254c0 2.76-2.23 5-5 5H1105c-2.76 0-5-2.24-5-5zM1100 220h342.54M1160 220v224M1301.27 220v224" stroke="#000" fill="none"/><use xlink:href="#ap" transform="matrix(1,0,0,1,1110,180) translate(0 23.6)"/><use xlink:href="#q" transform="matrix(1,0,0,1,1105,222.5) translate(0 17.1)"/><use xlink:href="#r" transform="matrix(1,0,0,1,1165,222.5) translate(0 17.1)"/><use xlink:href="#s" transform="matrix(1,0,0,1,1306.2722371919742,222.5) translate(0 17.1)"/><use xlink:href="#t" transform="matrix(1,0,0,1,1105,254.5) translate(0 17.1)"/><use xlink:href="#u" transform="matrix(1,0,0,1,1165,254.5) translate(0 17.1)"/><use xlink:href="#s" transform="matrix(1,0,0,1,1306.2722371919742,254.5) translate(0 17.1)"/><use xlink:href="#t" transform="matrix(1,0,0,1,1105,286.5) translate(0 17.1)"/><use xlink:href="#aq" transform="matrix(1,0,0,1,1165,286.5) translate(0 17.1)"/><use xlink:href="#s" transform="matrix(1,0,0,1,1306.2722371919742,286.5) translate(0 17.1)"/><use xlink:href="#ar" transform="matrix(1,0,0,1,1165,318.5) translate(0 17.1)"/><use xlink:href="#x" transform="matrix(1,0,0,1,1306.2722371919742,318.5) translate(0 17.1)"/><use xlink:href="#z" transform="matrix(1,0,0,1,1165,350.5) translate(0 17.1)"/><use xlink:href="#A" transform="matrix(1,0,0,1,1306.2722371919742,350.5) translate(0 17.1)"/><use xlink:href="#B" transform="matrix(1,0,0,1,1165,382.5) translate(0 17.1)"/><use xlink:href="#A" transform="matrix(1,0,0,1,1306.2722371919742,382.5) translate(0 17.1)"/><use xlink:href="#C" transform="matrix(1,0,0,1,1165,414.5) translate(0 17.1)"/><use xlink:href="#D" transform="matrix(1,0,0,1,1306.2722371919742,414.5) translate(0 17.1)"/><path d="M723.63 1003.84c0-2.76 2.24-5 5-5h291.46c2.75 0 5 2.24 5 5v222c0 2.76-2.25 5-5 5H728.62c-2.76 0-5-2.24-5-5z" fill="#fff"/><path d="M723.63 998.84h301.46v40H723.62z" fill="#ccc"/><path d="M723.63 1003.84c0-2.76 2.24-5 5-5h291.46c2.75 0 5 2.24 5 5v222c0 2.76-2.25 5-5 5H728.62c-2.76 0-5-2.24-5-5zM723.63 1038.84h301.46M771.12 1038.84v192M915.34 1038.84v192" stroke="#000" fill="none"/><use xlink:href="#as" transform="matrix(1,0,0,1,733.6334231518452,998.8379158232394) translate(0 23.6)"/><use xlink:href="#q" transform="matrix(1,0,0,1,728.6334231518452,1041.3379158232394) translate(0 17.1)"/><use xlink:href="#r" transform="matrix(1,0,0,1,776.1217168109422,1041.3379158232394) translate(0 17.1)"/><use xlink:href="#s" transform="matrix(1,0,0,1,920.3435065014697,1041.3379158232394) translate(0 17.1)"/><use xlink:href="#t" transform="matrix(1,0,0,1,728.6334231518452,1073.3379158232394) translate(0 17.1)"/><use xlink:href="#at" transform="matrix(1,0,0,1,776.1217168109422,1073.3379158232394) translate(0 17.1)"/><use xlink:href="#s" transform="matrix(1,0,0,1,920.3435065014697,1073.3379158232394) translate(0 17.1)"/><use xlink:href="#t" transform="matrix(1,0,0,1,728.6334231518452,1105.3379158232394) translate(0 17.1)"/><use xlink:href="#au" transform="matrix(1,0,0,1,776.1217168109422,1105.3379158232394) translate(0 17.1)"/><use xlink:href="#s" transform="matrix(1,0,0,1,920.3435065014697,1105.3379158232394) translate(0 17.1)"/><use xlink:href="#z" transform="matrix(1,0,0,1,776.1217168109422,1137.3379158232394) translate(0 17.1)"/><use xlink:href="#A" transform="matrix(1,0,0,1,920.3435065014697,1137.3379158232394) translate(0 17.1)"/><use xlink:href="#B" transform="matrix(1,0,0,1,776.1217168109422,1169.3379158232394) translate(0 17.1)"/><use xlink:href="#A" transform="matrix(1,0,0,1,920.3435065014697,1169.3379158232394) translate(0 17.1)"/><use xlink:href="#av" transform="matrix(1,0,0,1,776.1217168109422,1201.3379158232394) translate(0 17.1)"/><use xlink:href="#D" transform="matrix(1,0,0,1,920.3435065014697,1201.3379158232394) translate(0 17.1)"/><path d="M279.4 761.33c5.56 0 10.06 4.5 10.06 10.04v307.67c0 5.54 4.5 10.04 10.04 10.04" stroke="#834187" stroke-width="2" fill="none"/><path d="M269.4 771.33v-20M259.4 761.33h20M279.4 771.33v-20M319.05 1099.08l-20-10 20-10M319.05 1089.08h-20M299.05 1079.08v20" stroke="#834187" stroke-width="2" fill="#fff"/><path d="M683.04 801.08c5.55 0 10.05-4.5 10.05-10.04v-53" stroke="#ef8d22" stroke-width="2" fill="none"/><path d="M673.04 811.08v-20M663.04 801.08h20M683.04 811.08v-20M710.7 722.35l5.7 19.16M723.13 729.07l-19.16 5.72M704.38 737.64c0 5.52-4.47 10-10 10-5.52 0-10-4.48-10-10s4.48-10 10-10c5.53 0 10 4.48 10 10" stroke="#ef8d22" stroke-width="2" fill="#fff"/><path d="M1044.5 729.07c4.14 0 7.5-3.36 7.5-7.5v-91.2c0-4.15 3.36-7.5 7.5-7.5" stroke="#a3d977" stroke-width="2" fill="none"/><path d="M1034.5 739.07v-20M1024.5 729.07h20M1044.5 739.07v-20M1079.05 632.86l-20-10 20-10M1079.05 622.86h-20M1059.05 612.86v20" stroke="#a3d977" stroke-width="2" fill="#fff"/><path d="M1401.96 654.97h6.77c6.63 0 12-5.38 12-12v-33.55c0-6.63 5.37-12 12-12h6.77" stroke="#c92d39" stroke-width="2" fill="none"/><path d="M1382.4 644.97l20 10-20 10M1382.4 654.97h20M1402.4 664.97v-20M1449.5 587.42v20M1459.5 597.42h-20M1439.5 587.42v20" stroke="#c92d39" stroke-width="2" fill="#fff"/><path d="M1079.5 267.87h-5.5c-6.63 0-12 5.37-12 12v437.2c0 6.63-5.37 12-12 12h-5.5" stroke="#834187" stroke-width="2" fill="none"/><path d="M1099.05 277.87l-20-10 20-10M1099.05 267.87h-20M1079.05 257.87v20M1034.5 739.07v-20M1024.5 729.07h20M1044.5 739.07v-20" stroke="#834187" stroke-width="2" fill="#fff"/><path d="M1079.5 299.96h-28c-6.63 0-12 5.38-12 12v266.8c0 6.62 5.37 12 12 12h8" stroke="#3aa6dd" stroke-width="2" fill="none"/><path d="M1099.05 309.96l-20-10 20-10M1099.05 299.96h-20M1079.05 289.96v20M1069.5 580.75v20M1079.5 590.75h-20M1059.5 580.75v20" stroke="#3aa6dd" stroke-width="2" fill="#fff"/><path d="M703.13 1086.75c-5.54 0-10.04-4.5-10.04-10.05V810.62c0-5.54-4.5-10.04-10.06-10.04" stroke="#834187" stroke-width="2" fill="none"/><path d="M722.7 1096.75l-20-10 20-10M722.7 1086.75h-20M702.7 1076.75v20M673.04 810.58v-20M663.04 800.58h20M683.04 810.58v-20" stroke="#834187" stroke-width="2" fill="#fff"/><path d="M1045.6 1118.85c3.83 0 6.94-3.1 6.94-6.95V982.96c0-3.85 3.12-6.96 6.96-6.96" stroke="#19967d" stroke-width="2" fill="none"/><path d="M1026.04 1108.85l20 10-20 10M1026.04 1118.85h20M1046.04 1128.85v-20M1069.5 966v20M1079.5 976h-20M1059.5 966v20" stroke="#19967d" stroke-width="2" fill="#fff"/><path d="M1460 925c0-2.76 2.24-5 5-5h290.36c2.77 0 5 2.24 5 5v254c0 2.76-2.23 5-5 5H1465c-2.76 0-5-2.24-5-5z" fill="#fff"/><path d="M1460 920h300.36v40H1460z" fill="#ccc"/><path d="M1460 925c0-2.76 2.24-5 5-5h290.36c2.77 0 5 2.24 5 5v254c0 2.76-2.23 5-5 5H1465c-2.76 0-5-2.24-5-5zM1460 960h300.36M1508 960v224M1655.44 960v224" stroke="#000" fill="none"/><use xlink:href="#aw" transform="matrix(1,0,0,1,1470,920) translate(0 23.6)"/><use xlink:href="#q" transform="matrix(1,0,0,1,1465,962.5) translate(0 17.1)"/><use xlink:href="#r" transform="matrix(1,0,0,1,1512.9999839726825,962.5) translate(0 17.1)"/><use xlink:href="#s" transform="matrix(1,0,0,1,1660.4373523062402,962.5) translate(0 17.1)"/><use xlink:href="#ah" transform="matrix(1,0,0,1,1512.9999839726825,994.5) translate(0 17.1)"/><use xlink:href="#x" transform="matrix(1,0,0,1,1660.4373523062402,994.5) translate(0 17.1)"/><use xlink:href="#ax" transform="matrix(1,0,0,1,1512.9999839726825,1026.5) translate(0 17.1)"/><use xlink:href="#s" transform="matrix(1,0,0,1,1660.4373523062402,1026.5) translate(0 17.1)"/><use xlink:href="#ay" transform="matrix(1,0,0,1,1512.9999839726825,1058.5) translate(0 17.1)"/><use xlink:href="#s" transform="matrix(1,0,0,1,1660.4373523062402,1058.5) translate(0 17.1)"/><use xlink:href="#z" transform="matrix(1,0,0,1,1512.9999839726825,1090.5) translate(0 17.1)"/><use xlink:href="#A" transform="matrix(1,0,0,1,1660.4373523062402,1090.5) translate(0 17.1)"/><use xlink:href="#B" transform="matrix(1,0,0,1,1512.9999839726825,1122.5) translate(0 17.1)"/><use xlink:href="#A" transform="matrix(1,0,0,1,1660.4373523062402,1122.5) translate(0 17.1)"/><use xlink:href="#C" transform="matrix(1,0,0,1,1512.9999839726825,1154.5) translate(0 17.1)"/><use xlink:href="#D" transform="matrix(1,0,0,1,1660.4373523062402,1154.5) translate(0 17.1)"/><path d="M1439.5 629.25c-5.25 0-9.5 4.25-9.5 9.5v327.3c0 5.26-4.25 9.5-9.5 9.5" stroke="#fcc438" stroke-width="2" fill="none"/><path d="M1459.05 639.25l-20-10 20-10M1459.05 629.25h-20M1439.05 619.25v20M1410.5 985.56v-20M1400.5 975.56h20M1420.5 985.56v-20" stroke="#fcc438" stroke-width="2" fill="#fff"/><path d="M1439.5 661.35h-8c-6.63 0-12 5.38-12 12v289.58c0 6.63 5.37 12 12 12h8" stroke="#0c7cba" stroke-width="2" fill="none"/><path d="M1459.05 671.35l-20-10 20-10M1459.05 661.35h-20M1439.05 651.35v20M1449.5 964.93v20M1459.5 974.93h-20M1439.5 964.93v20" stroke="#0c7cba" stroke-width="2" fill="#fff"/><path d="M1052 755.1v212.96c0 4.14 3.36 7.5 7.5 7.5" stroke="#0c7cba" stroke-width="2" fill="none"/><path d="M1029.87 756.68l7.7-18.45M1024.5 743.6l18.45 7.72M1062.18 755.17c0 5.53-4.48 10-10 10-5.53 0-10-4.47-10-10 0-5.52 4.47-10 10-10 5.52 0 10 4.48 10 10M1069.5 965.56v20M1079.5 975.56h-20M1059.5 965.56v20" stroke="#0c7cba" stroke-width="2" fill="#fff"/><defs><path fill="#b2b2b2" d="M137-138c1-29-70-34-71-4 15 46 118 7 119 86 1 83-164 76-172 9l43-7c4 19 20 25 44 25 33 8 57-30 24-41C81-84 22-81 20-136c-2-80 154-74 161-7" id="az"/><path fill="#b2b2b2" d="M115-3C79 11 28 4 28-45v-112H4v-33h27l15-45h31v45h36v33H77v99c-1 23 16 31 38 25v30" id="aA"/><path fill="#b2b2b2" d="M85 4C-2 5 27-109 22-190h50c7 57-23 150 33 157 60-5 35-97 40-157h50l1 190h-47c-2-12 1-28-3-38-12 25-28 42-61 42" id="aB"/><path fill="#b2b2b2" d="M88-194c31-1 46 15 58 34l-1-101h50l1 261h-48c-2-10 0-23-3-31C134-8 116 4 84 4 32 4 16-41 15-95c0-56 19-97 73-99zm17 164c33 0 40-30 41-66 1-37-9-64-41-64s-38 30-39 65c0 43 13 65 39 65" id="aC"/><path fill="#b2b2b2" d="M185-48c-13 30-37 53-82 52C43 2 14-33 14-96s30-98 90-98c62 0 83 45 84 108H66c0 31 8 55 39 56 18 0 30-7 34-22zm-45-69c5-46-57-63-70-21-2 6-4 13-4 21h74" id="aD"/><path fill="#b2b2b2" d="M135-194c87-1 58 113 63 194h-50c-7-57 23-157-34-157-59 0-34 97-39 157H25l-1-190h47c2 12-1 28 3 38 12-26 28-41 61-42" id="aE"/><g id="a"><use transform="matrix(0.07407407407407408,0,0,0.07407407407407408,0,0)" xlink:href="#az"/><use transform="matrix(0.07407407407407408,0,0,0.07407407407407408,14.814814814814817,0)" xlink:href="#aA"/><use transform="matrix(0.07407407407407408,0,0,0.07407407407407408,23.629629629629633,0)" xlink:href="#aB"/><use transform="matrix(0.07407407407407408,0,0,0.07407407407407408,39.85185185185187,0)" xlink:href="#aC"/><use transform="matrix(0.07407407407407408,0,0,0.07407407407407408,56.07407407407409,0)" xlink:href="#aD"/><use transform="matrix(0.07407407407407408,0,0,0.07407407407407408,70.88888888888891,0)" xlink:href="#aE"/><use transform="matrix(0.07407407407407408,0,0,0.07407407407407408,87.11111111111114,0)" xlink:href="#aA"/></g><path fill="#b2b2b2" d="M135-194c53 0 70 44 70 98 0 56-19 98-73 100-31 1-45-17-59-34 3 33 2 69 2 105H25l-1-265h48c2 10 0 23 3 31 11-24 29-35 60-35zM114-30c33 0 39-31 40-66 0-38-9-64-40-64-56 0-55 130 0 130" id="aF"/><path fill="#b2b2b2" d="M110-194c64 0 96 36 96 99 0 64-35 99-97 99-61 0-95-36-95-99 0-62 34-99 96-99zm-1 164c35 0 45-28 45-65 0-40-10-65-43-65-34 0-45 26-45 65 0 36 10 65 43 65" id="aG"/><path fill="#b2b2b2" d="M135-150c-39-12-60 13-60 57V0H25l-1-190h47c2 13-1 29 3 40 6-28 27-53 61-41v41" id="aH"/><path fill="#b2b2b2" d="M133-34C117-15 103 5 69 4 32 3 11-16 11-54c-1-60 55-63 116-61 1-26-3-47-28-47-18 1-26 9-28 27l-52-2c7-38 36-58 82-57s74 22 75 68l1 82c-1 14 12 18 25 15v27c-30 8-71 5-69-32zm-48 3c29 0 43-24 42-57-32 0-66-3-65 30 0 17 8 27 23 27" id="aI"/><path fill="#b2b2b2" d="M25 0v-261h50V0H25" id="aJ"/><g id="b"><use transform="matrix(0.07407407407407408,0,0,0.07407407407407408,0,0)" xlink:href="#aF"/><use transform="matrix(0.07407407407407408,0,0,0.07407407407407408,16.222222222222225,0)" xlink:href="#aG"/><use transform="matrix(0.07407407407407408,0,0,0.07407407407407408,32.44444444444445,0)" xlink:href="#aH"/><use transform="matrix(0.07407407407407408,0,0,0.07407407407407408,42.814814814814824,0)" xlink:href="#aA"/><use transform="matrix(0.07407407407407408,0,0,0.07407407407407408,51.62962962962963,0)" xlink:href="#aI"/><use transform="matrix(0.07407407407407408,0,0,0.07407407407407408,66.44444444444446,0)" xlink:href="#aJ"/></g><path fill="#b2b2b2" d="M135-194c52 0 70 43 70 98 0 56-19 99-73 100-30 1-46-15-58-35L72 0H24l1-261h50v104c11-23 29-37 60-37zM114-30c31 0 40-27 40-66 0-37-7-63-39-63s-41 28-41 65c0 36 8 64 40 64" id="aK"/><g id="c"><use transform="matrix(0.07407407407407408,0,0,0.07407407407407408,0,0)" xlink:href="#aC"/><use transform="matrix(0.07407407407407408,0,0,0.07407407407407408,16.222222222222225,0)" xlink:href="#aI"/><use transform="matrix(0.07407407407407408,0,0,0.07407407407407408,31.03703703703704,0)" xlink:href="#aA"/><use transform="matrix(0.07407407407407408,0,0,0.07407407407407408,39.85185185185187,0)" xlink:href="#aI"/><use transform="matrix(0.07407407407407408,0,0,0.07407407407407408,54.666666666666686,0)" xlink:href="#aK"/><use transform="matrix(0.07407407407407408,0,0,0.07407407407407408,70.8888888888889,0)" xlink:href="#aI"/><use transform="matrix(0.07407407407407408,0,0,0.07407407407407408,85.70370370370374,0)" xlink:href="#az"/><use transform="matrix(0.07407407407407408,0,0,0.07407407407407408,100.51851851851853,0)" xlink:href="#aD"/></g><path fill="#b2b2b2" d="M25-224v-37h50v37H25zM25 0v-190h50V0H25" id="aL"/><g id="d"><use transform="matrix(0.07407407407407408,0,0,0.07407407407407408,0,0)" xlink:href="#aK"/><use transform="matrix(0.07407407407407408,0,0,0.07407407407407408,16.222222222222225,0)" xlink:href="#aJ"/><use transform="matrix(0.07407407407407408,0,0,0.07407407407407408,23.629629629629633,0)" xlink:href="#aB"/><use transform="matrix(0.07407407407407408,0,0,0.07407407407407408,39.85185185185187,0)" xlink:href="#aD"/><use transform="matrix(0.07407407407407408,0,0,0.07407407407407408,54.666666666666686,0)" xlink:href="#aF"/><use transform="matrix(0.07407407407407408,0,0,0.07407407407407408,70.8888888888889,0)" xlink:href="#aH"/><use transform="matrix(0.07407407407407408,0,0,0.07407407407407408,81.25925925925927,0)" xlink:href="#aL"/><use transform="matrix(0.07407407407407408,0,0,0.07407407407407408,88.66666666666667,0)" xlink:href="#aE"/><use transform="matrix(0.07407407407407408,0,0,0.07407407407407408,104.8888888888889,0)" xlink:href="#aA"/></g><path fill="#b2b2b2" d="M205 0l-28-72H64L36 0H1l101-248h38L239 0h-34zm-38-99l-47-123c-12 45-31 82-46 123h93" id="aM"/><path fill="#b2b2b2" d="M117-194c89-4 53 116 60 194h-32v-121c0-31-8-49-39-48C34-167 62-67 57 0H25l-1-190h30c1 10-1 24 2 32 11-22 29-35 61-36" id="aN"/><path fill="#b2b2b2" d="M59-47c-2 24 18 29 38 22v24C64 9 27 4 27-40v-127H5v-23h24l9-43h21v43h35v23H59v120" id="aO"/><path fill="#b2b2b2" d="M106-169C34-169 62-67 57 0H25v-261h32l-1 103c12-21 28-36 61-36 89 0 53 116 60 194h-32v-121c2-32-8-49-39-48" id="aP"/><path fill="#b2b2b2" d="M100-194c62-1 85 37 85 99 1 63-27 99-86 99S16-35 15-95c0-66 28-99 85-99zM99-20c44 1 53-31 53-75 0-43-8-75-51-75s-53 32-53 75 10 74 51 75" id="aQ"/><path fill="#b2b2b2" d="M179-190L93 31C79 59 56 82 12 73V49c39 6 53-20 64-50L1-190h34L92-34l54-156h33" id="aR"/><g id="e"><use transform="matrix(0.04320987654320988,0,0,0.04320987654320988,0,0)" xlink:href="#aM"/><use transform="matrix(0.04320987654320988,0,0,0.04320987654320988,10.370370370370372,0)" xlink:href="#aN"/><use transform="matrix(0.04320987654320988,0,0,0.04320987654320988,19.01234567901235,0)" xlink:href="#aO"/><use transform="matrix(0.04320987654320988,0,0,0.04320987654320988,23.333333333333336,0)" xlink:href="#aP"/><use transform="matrix(0.04320987654320988,0,0,0.04320987654320988,31.97530864197531,0)" xlink:href="#aQ"/><use transform="matrix(0.04320987654320988,0,0,0.04320987654320988,40.617283950617285,0)" xlink:href="#aN"/><use transform="matrix(0.04320987654320988,0,0,0.04320987654320988,49.25925925925925,0)" xlink:href="#aR"/></g><path fill="#b2b2b2" d="M153-248C145-148 188 4 80 4 36 3 13-21 6-62l32-5c4 25 16 42 43 43 27 0 39-20 39-49v-147H72v-28h81" id="aS"/><path fill="#b2b2b2" d="M141-36C126-15 110 5 73 4 37 3 15-17 15-53c-1-64 63-63 125-63 3-35-9-54-41-54-24 1-41 7-42 31l-33-3c5-37 33-52 76-52 45 0 72 20 72 64v82c-1 20 7 32 28 27v20c-31 9-61-2-59-35zM48-53c0 20 12 33 32 33 41-3 63-29 60-74-43 2-92-5-92 41" id="aT"/><g id="f"><use transform="matrix(0.04320987654320988,0,0,0.04320987654320988,0,0)" xlink:href="#aS"/><use transform="matrix(0.04320987654320988,0,0,0.04320987654320988,7.777777777777779,0)" xlink:href="#aT"/><use transform="matrix(0.04320987654320988,0,0,0.04320987654320988,16.419753086419753,0)" xlink:href="#aR"/></g><path fill="#b2b2b2" d="M135-143c-3-34-86-38-87 0 15 53 115 12 119 90S17 21 10-45l28-5c4 36 97 45 98 0-10-56-113-15-118-90-4-57 82-63 122-42 12 7 21 19 24 35" id="aU"/><path fill="#b2b2b2" d="M24-231v-30h32v30H24zM24 0v-190h32V0H24" id="aV"/><g id="g"><use transform="matrix(0.04320987654320988,0,0,0.04320987654320988,0,0)" xlink:href="#aM"/><use transform="matrix(0.04320987654320988,0,0,0.04320987654320988,10.370370370370372,0)" xlink:href="#aN"/><use transform="matrix(0.04320987654320988,0,0,0.04320987654320988,19.01234567901235,0)" xlink:href="#aU"/><use transform="matrix(0.04320987654320988,0,0,0.04320987654320988,26.790123456790127,0)" xlink:href="#aV"/><use transform="matrix(0.04320987654320988,0,0,0.04320987654320988,30.203703703703713,0)" xlink:href="#aO"/></g><path fill="#b2b2b2" d="M32 76v-337h29V76H32" id="aW"/><use transform="matrix(0.04320987654320988,0,0,0.04320987654320988,0,0)" xlink:href="#aW" id="h"/><path fill="#b2b2b2" d="M30-248c118-7 216 8 213 122C240-48 200 0 122 0H30v-248zM63-27c89 8 146-16 146-99s-60-101-146-95v194" id="aX"/><path fill="#b2b2b2" d="M100-194c63 0 86 42 84 106H49c0 40 14 67 53 68 26 1 43-12 49-29l28 8c-11 28-37 45-77 45C44 4 14-33 15-96c1-61 26-98 85-98zm52 81c6-60-76-77-97-28-3 7-6 17-6 28h103" id="aY"/><path fill="#b2b2b2" d="M96-169c-40 0-48 33-48 73s9 75 48 75c24 0 41-14 43-38l32 2c-6 37-31 61-74 61-59 0-76-41-82-99-10-93 101-131 147-64 4 7 5 14 7 22l-32 3c-4-21-16-35-41-35" id="aZ"/><path fill="#b2b2b2" d="M210-169c-67 3-38 105-44 169h-31v-121c0-29-5-50-35-48C34-165 62-65 56 0H25l-1-190h30c1 10-1 24 2 32 10-44 99-50 107 0 11-21 27-35 58-36 85-2 47 119 55 194h-31v-121c0-29-5-49-35-48" id="ba"/><path fill="#b2b2b2" d="M115-194c53 0 69 39 70 98 0 66-23 100-70 100C84 3 66-7 56-30L54 0H23l1-261h32v101c10-23 28-34 59-34zm-8 174c40 0 45-34 45-75 0-40-5-75-45-74-42 0-51 32-51 76 0 43 10 73 51 73" id="bb"/><path fill="#b2b2b2" d="M114-163C36-179 61-72 57 0H25l-1-190h30c1 12-1 29 2 39 6-27 23-49 58-41v29" id="bc"/><g id="i"><use transform="matrix(0.04320987654320988,0,0,0.04320987654320988,0,0)" xlink:href="#aX"/><use transform="matrix(0.04320987654320988,0,0,0.04320987654320988,11.19135802469136,0)" xlink:href="#aY"/><use transform="matrix(0.04320987654320988,0,0,0.04320987654320988,19.833333333333336,0)" xlink:href="#aZ"/><use transform="matrix(0.04320987654320988,0,0,0.04320987654320988,27.611111111111114,0)" xlink:href="#aY"/><use transform="matrix(0.04320987654320988,0,0,0.04320987654320988,36.25308641975309,0)" xlink:href="#ba"/><use transform="matrix(0.04320987654320988,0,0,0.04320987654320988,49.17283950617284,0)" xlink:href="#bb"/><use transform="matrix(0.04320987654320988,0,0,0.04320987654320988,57.814814814814824,0)" xlink:href="#aY"/><use transform="matrix(0.04320987654320988,0,0,0.04320987654320988,66.4567901234568,0)" xlink:href="#bc"/></g><path fill="#b2b2b2" d="M101-251c82-7 93 87 43 132L82-64C71-53 59-42 53-27h129V0H18c2-99 128-94 128-182 0-28-16-43-45-43s-46 15-49 41l-32-3c6-41 34-60 81-64" id="bd"/><path fill="#b2b2b2" d="M68-38c1 34 0 65-14 84H32c9-13 17-26 17-46H33v-38h35" id="be"/><g id="j"><use transform="matrix(0.04320987654320988,0,0,0.04320987654320988,0,0)" xlink:href="#bd"/><use transform="matrix(0.04320987654320988,0,0,0.04320987654320988,8.641975308641976,0)" xlink:href="#bd"/><use transform="matrix(0.04320987654320988,0,0,0.04320987654320988,17.283950617283953,0)" xlink:href="#be"/></g><path fill="#b2b2b2" d="M101-251c68 0 85 55 85 127S166 4 100 4C33 4 14-52 14-124c0-73 17-127 87-127zm-1 229c47 0 54-49 54-102s-4-102-53-102c-51 0-55 48-55 102 0 53 5 102 54 102" id="bf"/><g id="k"><use transform="matrix(0.04320987654320988,0,0,0.04320987654320988,0,0)" xlink:href="#bd"/><use transform="matrix(0.04320987654320988,0,0,0.04320987654320988,8.641975308641976,0)" xlink:href="#bf"/><use transform="matrix(0.04320987654320988,0,0,0.04320987654320988,17.283950617283953,0)" xlink:href="#bd"/><use transform="matrix(0.04320987654320988,0,0,0.04320987654320988,25.925925925925927,0)" xlink:href="#bf"/></g><path d="M205 0l-28-72H64L36 0H1l101-248h38L239 0h-34zm-38-99l-47-123c-12 45-31 82-46 123h93" id="bg"/><path d="M114-163C36-179 61-72 57 0H25l-1-190h30c1 12-1 29 2 39 6-27 23-49 58-41v29" id="bh"/><path d="M59-47c-2 24 18 29 38 22v24C64 9 27 4 27-40v-127H5v-23h24l9-43h21v43h35v23H59v120" id="bi"/><path d="M24-231v-30h32v30H24zM24 0v-190h32V0H24" id="bj"/><path d="M96-169c-40 0-48 33-48 73s9 75 48 75c24 0 41-14 43-38l32 2c-6 37-31 61-74 61-59 0-76-41-82-99-10-93 101-131 147-64 4 7 5 14 7 22l-32 3c-4-21-16-35-41-35" id="bk"/><path d="M24 0v-261h32V0H24" id="bl"/><path d="M100-194c63 0 86 42 84 106H49c0 40 14 67 53 68 26 1 43-12 49-29l28 8c-11 28-37 45-77 45C44 4 14-33 15-96c1-61 26-98 85-98zm52 81c6-60-76-77-97-28-3 7-6 17-6 28h103" id="bm"/><path d="M135-143c-3-34-86-38-87 0 15 53 115 12 119 90S17 21 10-45l28-5c4 36 97 45 98 0-10-56-113-15-118-90-4-57 82-63 122-42 12 7 21 19 24 35" id="bn"/><path d="M-5 72V49h209v23H-5" id="bo"/><path d="M117-194c89-4 53 116 60 194h-32v-121c0-31-8-49-39-48C34-167 62-67 57 0H25l-1-190h30c1 10-1 24 2 32 11-22 29-35 61-36" id="bp"/><path d="M177-190C167-65 218 103 67 71c-23-6-38-20-44-43l32-5c15 47 100 32 89-28v-30C133-14 115 1 83 1 29 1 15-40 15-95c0-56 16-97 71-98 29-1 48 16 59 35 1-10 0-23 2-32h30zM94-22c36 0 50-32 50-73 0-42-14-75-50-75-39 0-46 34-46 75s6 73 46 73" id="bq"/><path d="M141-36C126-15 110 5 73 4 37 3 15-17 15-53c-1-64 63-63 125-63 3-35-9-54-41-54-24 1-41 7-42 31l-33-3c5-37 33-52 76-52 45 0 72 20 72 64v82c-1 20 7 32 28 27v20c-31 9-61-2-59-35zM48-53c0 20 12 33 32 33 41-3 63-29 60-74-43 2-92-5-92 41" id="br"/><path d="M210-169c-67 3-38 105-44 169h-31v-121c0-29-5-50-35-48C34-165 62-65 56 0H25l-1-190h30c1 10-1 24 2 32 10-44 99-50 107 0 11-21 27-35 58-36 85-2 47 119 55 194h-31v-121c0-29-5-49-35-48" id="bs"/><g id="l"><use transform="matrix(0.05,0,0,0.05,0,0)" xlink:href="#bg"/><use transform="matrix(0.05,0,0,0.05,12,0)" xlink:href="#bh"/><use transform="matrix(0.05,0,0,0.05,17.95,0)" xlink:href="#bi"/><use transform="matrix(0.05,0,0,0.05,22.95,0)" xlink:href="#bj"/><use transform="matrix(0.05,0,0,0.05,26.899999999999995,0)" xlink:href="#bk"/><use transform="matrix(0.05,0,0,0.05,35.9,0)" xlink:href="#bl"/><use transform="matrix(0.05,0,0,0.05,39.85,0)" xlink:href="#bm"/><use transform="matrix(0.05,0,0,0.05,49.85,0)" xlink:href="#bn"/><use transform="matrix(0.05,0,0,0.05,58.85,0)" xlink:href="#bo"/><use transform="matrix(0.05,0,0,0.05,68.85,0)" xlink:href="#bm"/><use transform="matrix(0.05,0,0,0.05,78.85,0)" xlink:href="#bp"/><use transform="matrix(0.05,0,0,0.05,88.85,0)" xlink:href="#bq"/><use transform="matrix(0.05,0,0,0.05,98.85,0)" xlink:href="#br"/><use transform="matrix(0.05,0,0,0.05,108.84999999999998,0)" xlink:href="#bq"/><use transform="matrix(0.05,0,0,0.05,118.84999999999998,0)" xlink:href="#bm"/><use transform="matrix(0.05,0,0,0.05,128.85,0)" xlink:href="#bs"/><use transform="matrix(0.05,0,0,0.05,143.79999999999998,0)" xlink:href="#bm"/><use transform="matrix(0.05,0,0,0.05,153.79999999999998,0)" xlink:href="#bp"/><use transform="matrix(0.05,0,0,0.05,163.79999999999998,0)" xlink:href="#bi"/></g><path d="M87 75C49 33 22-17 22-94c0-76 28-126 65-167h31c-38 41-64 92-64 168S80 34 118 75H87" id="bt"/><path d="M108 0H70L1-190h34L89-25l56-165h34" id="bu"/><path d="M206 0h-36l-40-164L89 0H53L-1-190h32L70-26l43-164h34l41 164 42-164h31" id="bv"/><g id="m"><use transform="matrix(0.05,0,0,0.05,0,0)" xlink:href="#bt"/><use transform="matrix(0.05,0,0,0.05,5.95,0)" xlink:href="#br"/><use transform="matrix(0.05,0,0,0.05,15.949999999999998,0)" xlink:href="#bh"/><use transform="matrix(0.05,0,0,0.05,21.9,0)" xlink:href="#bj"/><use transform="matrix(0.05,0,0,0.05,25.849999999999994,0)" xlink:href="#bi"/><use transform="matrix(0.05,0,0,0.05,30.849999999999994,0)" xlink:href="#bj"/><use transform="matrix(0.05,0,0,0.05,34.8,0)" xlink:href="#bk"/><use transform="matrix(0.05,0,0,0.05,43.8,0)" xlink:href="#bl"/><use transform="matrix(0.05,0,0,0.05,47.75,0)" xlink:href="#bm"/><use transform="matrix(0.05,0,0,0.05,57.75,0)" xlink:href="#bo"/><use transform="matrix(0.05,0,0,0.05,67.75,0)" xlink:href="#bu"/><use transform="matrix(0.05,0,0,0.05,76.75,0)" xlink:href="#bj"/><use transform="matrix(0.05,0,0,0.05,80.7,0)" xlink:href="#bm"/><use transform="matrix(0.05,0,0,0.05,90.7,0)" xlink:href="#bv"/><use transform="matrix(0.05,0,0,0.05,103.65,0)" xlink:href="#bn"/></g><path d="M234-2c-28 10-62 0-77-18C117 19 8 12 13-65c3-43 29-61 60-76-25-40-17-114 47-108 35 3 59 15 59 50 0 44-40 53-71 69 14 26 32 50 51 72 14-21 24-43 30-72l26 8c-9 33-21 57-38 82 13 13 33 22 57 15v23zM97-151c25-10 52-18 56-48-1-18-13-29-33-29-42 0-39 50-23 77zM42-66c-3 51 71 58 98 28-20-24-41-51-56-80-23 10-40 24-42 52" id="bw"/><use transform="matrix(0.05,0,0,0.05,0,0)" xlink:href="#bw" id="n"/><path d="M100-194c62-1 85 37 85 99 1 63-27 99-86 99S16-35 15-95c0-66 28-99 85-99zM99-20c44 1 53-31 53-75 0-43-8-75-51-75s-53 32-53 75 10 74 51 75" id="bx"/><g id="o"><use transform="matrix(0.05,0,0,0.05,0,0)" xlink:href="#br"/><use transform="matrix(0.05,0,0,0.05,10,0)" xlink:href="#bh"/><use transform="matrix(0.05,0,0,0.05,15.949999999999998,0)" xlink:href="#bi"/><use transform="matrix(0.05,0,0,0.05,20.95,0)" xlink:href="#bj"/><use transform="matrix(0.05,0,0,0.05,24.9,0)" xlink:href="#bk"/><use transform="matrix(0.05,0,0,0.05,33.9,0)" xlink:href="#bl"/><use transform="matrix(0.05,0,0,0.05,37.85,0)" xlink:href="#bm"/><use transform="matrix(0.05,0,0,0.05,47.85,0)" xlink:href="#bo"/><use transform="matrix(0.05,0,0,0.05,57.85,0)" xlink:href="#bk"/><use transform="matrix(0.05,0,0,0.05,66.85,0)" xlink:href="#bx"/><use transform="matrix(0.05,0,0,0.05,76.85,0)" xlink:href="#bs"/><use transform="matrix(0.05,0,0,0.05,91.8,0)" xlink:href="#bs"/><use transform="matrix(0.05,0,0,0.05,106.75,0)" xlink:href="#bm"/><use transform="matrix(0.05,0,0,0.05,116.75,0)" xlink:href="#bp"/><use transform="matrix(0.05,0,0,0.05,126.75,0)" xlink:href="#bi"/><use transform="matrix(0.05,0,0,0.05,131.75,0)" xlink:href="#bn"/></g><path d="M115-194c53 0 69 39 70 98 0 66-23 100-70 100C84 3 66-7 56-30L54 0H23l1-261h32v101c10-23 28-34 59-34zm-8 174c40 0 45-34 45-75 0-40-5-75-45-74-42 0-51 32-51 76 0 43 10 73 51 73" id="by"/><path d="M85-194c31 0 48 13 60 33l-1-100h32l1 261h-30c-2-10 0-23-3-31C134-8 116 4 85 4 32 4 16-35 15-94c0-66 23-100 70-100zm9 24c-40 0-46 34-46 75 0 40 6 74 45 74 42 0 51-32 51-76 0-42-9-74-50-73" id="bz"/><path d="M33-261c38 41 65 92 65 168S71 34 33 75H2C39 34 66-17 66-93S39-220 2-261h31" id="bA"/><g id="p"><use transform="matrix(0.05,0,0,0.05,0,0)" xlink:href="#bk"/><use transform="matrix(0.05,0,0,0.05,9,0)" xlink:href="#bx"/><use transform="matrix(0.05,0,0,0.05,19,0)" xlink:href="#bs"/><use transform="matrix(0.05,0,0,0.05,33.95,0)" xlink:href="#by"/><use transform="matrix(0.05,0,0,0.05,43.95,0)" xlink:href="#bj"/><use transform="matrix(0.05,0,0,0.05,47.900000000000006,0)" xlink:href="#bp"/><use transform="matrix(0.05,0,0,0.05,57.900000000000006,0)" xlink:href="#bm"/><use transform="matrix(0.05,0,0,0.05,67.9,0)" xlink:href="#bz"/><use transform="matrix(0.05,0,0,0.05,77.9,0)" xlink:href="#bA"/></g><path d="M24-248c93 1 206-16 204 79-1 75-69 88-152 82V0H24v-248zm52 121c47 0 100 7 100-41 0-47-54-39-100-39v80" id="bB"/><path d="M195 0l-88-114-31 24V0H24v-248h52v113l112-113h60L142-143 257 0h-62" id="bC"/><g id="q"><use transform="matrix(0.05,0,0,0.05,0,0)" xlink:href="#bB"/><use transform="matrix(0.05,0,0,0.05,12,0)" xlink:href="#bC"/></g><g id="r"><use transform="matrix(0.05,0,0,0.05,0,0)" xlink:href="#bj"/><use transform="matrix(0.05,0,0,0.05,3.95,0)" xlink:href="#bz"/></g><g id="s"><use transform="matrix(0.05,0,0,0.05,0,0)" xlink:href="#bj"/><use transform="matrix(0.05,0,0,0.05,3.95,0)" xlink:href="#bp"/><use transform="matrix(0.05,0,0,0.05,13.949999999999998,0)" xlink:href="#bi"/></g><path d="M76-208v77h127v40H76V0H24v-248h183v40H76" id="bD"/><g id="t"><use transform="matrix(0.05,0,0,0.05,0,0)" xlink:href="#bD"/><use transform="matrix(0.05,0,0,0.05,10.950000000000001,0)" xlink:href="#bC"/></g><path d="M84 4C-5 8 30-112 23-190h32v120c0 31 7 50 39 49 72-2 45-101 50-169h31l1 190h-30c-1-10 1-25-2-33-11 22-28 36-60 37" id="bE"/><g id="u"><use transform="matrix(0.05,0,0,0.05,0,0)" xlink:href="#bE"/><use transform="matrix(0.05,0,0,0.05,10,0)" xlink:href="#bn"/><use transform="matrix(0.05,0,0,0.05,19,0)" xlink:href="#bm"/><use transform="matrix(0.05,0,0,0.05,29,0)" xlink:href="#bh"/><use transform="matrix(0.05,0,0,0.05,34.95,0)" xlink:href="#bo"/><use transform="matrix(0.05,0,0,0.05,44.95,0)" xlink:href="#bj"/><use transform="matrix(0.05,0,0,0.05,48.900000000000006,0)" xlink:href="#bz"/></g><g id="v"><use transform="matrix(0.05,0,0,0.05,0,0)" xlink:href="#br"/><use transform="matrix(0.05,0,0,0.05,10,0)" xlink:href="#bh"/><use transform="matrix(0.05,0,0,0.05,15.949999999999998,0)" xlink:href="#bi"/><use transform="matrix(0.05,0,0,0.05,20.95,0)" xlink:href="#bj"/><use transform="matrix(0.05,0,0,0.05,24.9,0)" xlink:href="#bk"/><use transform="matrix(0.05,0,0,0.05,33.9,0)" xlink:href="#bl"/><use transform="matrix(0.05,0,0,0.05,37.85,0)" xlink:href="#bm"/><use transform="matrix(0.05,0,0,0.05,47.85,0)" xlink:href="#bo"/><use transform="matrix(0.05,0,0,0.05,57.85,0)" xlink:href="#bj"/><use transform="matrix(0.05,0,0,0.05,61.800000000000004,0)" xlink:href="#bz"/></g><g id="w"><use transform="matrix(0.05,0,0,0.05,0,0)" xlink:href="#bk"/><use transform="matrix(0.05,0,0,0.05,9,0)" xlink:href="#bx"/><use transform="matrix(0.05,0,0,0.05,19,0)" xlink:href="#bs"/><use transform="matrix(0.05,0,0,0.05,33.95,0)" xlink:href="#bs"/><use transform="matrix(0.05,0,0,0.05,48.900000000000006,0)" xlink:href="#bm"/><use transform="matrix(0.05,0,0,0.05,58.900000000000006,0)" xlink:href="#bp"/><use transform="matrix(0.05,0,0,0.05,68.9,0)" xlink:href="#bi"/></g><path d="M106-169C34-169 62-67 57 0H25v-261h32l-1 103c12-21 28-36 61-36 89 0 53 116 60 194h-32v-121c2-32-8-49-39-48" id="bF"/><g id="x"><use transform="matrix(0.05,0,0,0.05,0,0)" xlink:href="#bu"/><use transform="matrix(0.05,0,0,0.05,9,0)" xlink:href="#br"/><use transform="matrix(0.05,0,0,0.05,19,0)" xlink:href="#bh"/><use transform="matrix(0.05,0,0,0.05,24.95,0)" xlink:href="#bk"/><use transform="matrix(0.05,0,0,0.05,33.95,0)" xlink:href="#bF"/><use transform="matrix(0.05,0,0,0.05,43.95,0)" xlink:href="#br"/><use transform="matrix(0.05,0,0,0.05,53.95,0)" xlink:href="#bh"/></g><path d="M115-194c55 1 70 41 70 98S169 2 115 4C84 4 66-9 55-30l1 105H24l-1-265h31l2 30c10-21 28-34 59-34zm-8 174c40 0 45-34 45-75s-6-73-45-74c-42 0-51 32-51 76 0 43 10 73 51 73" id="bG"/><g id="y"><use transform="matrix(0.05,0,0,0.05,0,0)" xlink:href="#bi"/><use transform="matrix(0.05,0,0,0.05,5,0)" xlink:href="#bx"/><use transform="matrix(0.05,0,0,0.05,15,0)" xlink:href="#bi"/><use transform="matrix(0.05,0,0,0.05,20,0)" xlink:href="#br"/><use transform="matrix(0.05,0,0,0.05,30,0)" xlink:href="#bl"/><use transform="matrix(0.05,0,0,0.05,33.95,0)" xlink:href="#bo"/><use transform="matrix(0.05,0,0,0.05,43.95,0)" xlink:href="#bh"/><use transform="matrix(0.05,0,0,0.05,49.900000000000006,0)" xlink:href="#bm"/><use transform="matrix(0.05,0,0,0.05,59.900000000000006,0)" xlink:href="#bG"/><use transform="matrix(0.05,0,0,0.05,69.9,0)" xlink:href="#bl"/><use transform="matrix(0.05,0,0,0.05,73.85000000000001,0)" xlink:href="#bj"/><use transform="matrix(0.05,0,0,0.05,77.80000000000001,0)" xlink:href="#bm"/><use transform="matrix(0.05,0,0,0.05,87.80000000000001,0)" xlink:href="#bn"/></g><path d="M101-234c-31-9-42 10-38 44h38v23H63V0H32v-167H5v-23h27c-7-52 17-82 69-68v24" id="bH"/><g id="z"><use transform="matrix(0.05,0,0,0.05,0,0)" xlink:href="#bs"/><use transform="matrix(0.05,0,0,0.05,14.950000000000001,0)" xlink:href="#bx"/><use transform="matrix(0.05,0,0,0.05,24.950000000000003,0)" xlink:href="#bz"/><use transform="matrix(0.05,0,0,0.05,34.95,0)" xlink:href="#bj"/><use transform="matrix(0.05,0,0,0.05,38.900000000000006,0)" xlink:href="#bH"/><use transform="matrix(0.05,0,0,0.05,43.900000000000006,0)" xlink:href="#bj"/><use transform="matrix(0.05,0,0,0.05,47.85000000000001,0)" xlink:href="#bm"/><use transform="matrix(0.05,0,0,0.05,57.85,0)" xlink:href="#bz"/><use transform="matrix(0.05,0,0,0.05,67.85000000000001,0)" xlink:href="#bo"/><use transform="matrix(0.05,0,0,0.05,77.85000000000001,0)" xlink:href="#br"/><use transform="matrix(0.05,0,0,0.05,87.85000000000001,0)" xlink:href="#bi"/></g><g id="A"><use transform="matrix(0.05,0,0,0.05,0,0)" xlink:href="#bi"/><use transform="matrix(0.05,0,0,0.05,5,0)" xlink:href="#bj"/><use transform="matrix(0.05,0,0,0.05,8.95,0)" xlink:href="#bs"/><use transform="matrix(0.05,0,0,0.05,23.9,0)" xlink:href="#bm"/><use transform="matrix(0.05,0,0,0.05,33.9,0)" xlink:href="#bo"/><use transform="matrix(0.05,0,0,0.05,43.9,0)" xlink:href="#bn"/><use transform="matrix(0.05,0,0,0.05,52.900000000000006,0)" xlink:href="#bi"/><use transform="matrix(0.05,0,0,0.05,57.900000000000006,0)" xlink:href="#br"/><use transform="matrix(0.05,0,0,0.05,67.9,0)" xlink:href="#bs"/><use transform="matrix(0.05,0,0,0.05,82.85000000000001,0)" xlink:href="#bG"/></g><g id="B"><use transform="matrix(0.05,0,0,0.05,0,0)" xlink:href="#bk"/><use transform="matrix(0.05,0,0,0.05,9,0)" xlink:href="#bh"/><use transform="matrix(0.05,0,0,0.05,14.949999999999998,0)" xlink:href="#bm"/><use transform="matrix(0.05,0,0,0.05,24.95,0)" xlink:href="#br"/><use transform="matrix(0.05,0,0,0.05,34.95,0)" xlink:href="#bi"/><use transform="matrix(0.05,0,0,0.05,39.95,0)" xlink:href="#bm"/><use transform="matrix(0.05,0,0,0.05,49.95,0)" xlink:href="#bz"/><use transform="matrix(0.05,0,0,0.05,59.95,0)" xlink:href="#bo"/><use transform="matrix(0.05,0,0,0.05,69.95,0)" xlink:href="#br"/><use transform="matrix(0.05,0,0,0.05,79.95,0)" xlink:href="#bi"/></g><g id="C"><use transform="matrix(0.05,0,0,0.05,0,0)" xlink:href="#bj"/><use transform="matrix(0.05,0,0,0.05,3.95,0)" xlink:href="#bn"/><use transform="matrix(0.05,0,0,0.05,12.949999999999998,0)" xlink:href="#bo"/><use transform="matrix(0.05,0,0,0.05,22.95,0)" xlink:href="#bz"/><use transform="matrix(0.05,0,0,0.05,32.95,0)" xlink:href="#bm"/><use transform="matrix(0.05,0,0,0.05,42.95,0)" xlink:href="#bl"/><use transform="matrix(0.05,0,0,0.05,46.900000000000006,0)" xlink:href="#bm"/><use transform="matrix(0.05,0,0,0.05,56.900000000000006,0)" xlink:href="#bi"/><use transform="matrix(0.05,0,0,0.05,61.900000000000006,0)" xlink:href="#bm"/><use transform="matrix(0.05,0,0,0.05,71.9,0)" xlink:href="#bz"/></g><g id="D"><use transform="matrix(0.05,0,0,0.05,0,0)" xlink:href="#by"/><use transform="matrix(0.05,0,0,0.05,10,0)" xlink:href="#bx"/><use transform="matrix(0.05,0,0,0.05,20,0)" xlink:href="#bx"/><use transform="matrix(0.05,0,0,0.05,30,0)" xlink:href="#bl"/><use transform="matrix(0.05,0,0,0.05,33.95,0)" xlink:href="#bm"/><use transform="matrix(0.05,0,0,0.05,43.95,0)" xlink:href="#br"/><use transform="matrix(0.05,0,0,0.05,53.95,0)" xlink:href="#bp"/></g><g id="E"><use transform="matrix(0.05,0,0,0.05,0,0)" xlink:href="#bg"/><use transform="matrix(0.05,0,0,0.05,12,0)" xlink:href="#bh"/><use transform="matrix(0.05,0,0,0.05,17.95,0)" xlink:href="#bi"/><use transform="matrix(0.05,0,0,0.05,22.95,0)" xlink:href="#bj"/><use transform="matrix(0.05,0,0,0.05,26.899999999999995,0)" xlink:href="#bk"/><use transform="matrix(0.05,0,0,0.05,35.9,0)" xlink:href="#bl"/><use transform="matrix(0.05,0,0,0.05,39.85,0)" xlink:href="#bm"/><use transform="matrix(0.05,0,0,0.05,49.85,0)" xlink:href="#bn"/></g><g id="F"><use transform="matrix(0.04999999999999998,0,0,0.04999999999999998,0,0)" xlink:href="#br"/><use transform="matrix(0.04999999999999998,0,0,0.04999999999999998,9.999999999999996,0)" xlink:href="#bE"/><use transform="matrix(0.04999999999999998,0,0,0.04999999999999998,19.999999999999993,0)" xlink:href="#bi"/><use transform="matrix(0.04999999999999998,0,0,0.04999999999999998,24.999999999999993,0)" xlink:href="#bF"/><use transform="matrix(0.04999999999999998,0,0,0.04999999999999998,34.999999999999986,0)" xlink:href="#bx"/><use transform="matrix(0.04999999999999998,0,0,0.04999999999999998,44.999999999999986,0)" xlink:href="#bh"/><use transform="matrix(0.04999999999999998,0,0,0.04999999999999998,50.94999999999998,0)" xlink:href="#bo"/><use transform="matrix(0.04999999999999998,0,0,0.04999999999999998,60.94999999999998,0)" xlink:href="#bj"/><use transform="matrix(0.04999999999999998,0,0,0.04999999999999998,64.89999999999998,0)" xlink:href="#bz"/></g><path d="M24-231v-30h32v30H24zM-9 49c24 4 33-6 33-30v-209h32V24c2 40-23 58-65 49V49" id="bI"/><g id="G"><use transform="matrix(0.04999999999999998,0,0,0.04999999999999998,0,0)" xlink:href="#bn"/><use transform="matrix(0.04999999999999998,0,0,0.04999999999999998,8.999999999999996,0)" xlink:href="#bE"/><use transform="matrix(0.04999999999999998,0,0,0.04999999999999998,18.999999999999993,0)" xlink:href="#by"/><use transform="matrix(0.04999999999999998,0,0,0.04999999999999998,28.99999999999999,0)" xlink:href="#bI"/><use transform="matrix(0.04999999999999998,0,0,0.04999999999999998,32.94999999999999,0)" xlink:href="#bm"/><use transform="matrix(0.04999999999999998,0,0,0.04999999999999998,42.94999999999999,0)" xlink:href="#bk"/><use transform="matrix(0.04999999999999998,0,0,0.04999999999999998,51.949999999999996,0)" xlink:href="#bi"/><use transform="matrix(0.04999999999999998,0,0,0.04999999999999998,56.94999999999999,0)" xlink:href="#bo"/><use transform="matrix(0.04999999999999998,0,0,0.04999999999999998,66.94999999999999,0)" xlink:href="#bj"/><use transform="matrix(0.04999999999999998,0,0,0.04999999999999998,70.89999999999999,0)" xlink:href="#bz"/></g><g id="H"><use transform="matrix(0.04999999999999998,0,0,0.04999999999999998,0,0)" xlink:href="#bi"/><use transform="matrix(0.04999999999999998,0,0,0.04999999999999998,4.999999999999998,0)" xlink:href="#bj"/><use transform="matrix(0.04999999999999998,0,0,0.04999999999999998,8.949999999999996,0)" xlink:href="#bi"/><use transform="matrix(0.04999999999999998,0,0,0.04999999999999998,13.949999999999996,0)" xlink:href="#bl"/><use transform="matrix(0.04999999999999998,0,0,0.04999999999999998,17.89999999999999,0)" xlink:href="#bm"/></g><g id="I"><use transform="matrix(0.04999999999999998,0,0,0.04999999999999998,0,0)" xlink:href="#bk"/><use transform="matrix(0.04999999999999998,0,0,0.04999999999999998,8.999999999999996,0)" xlink:href="#bx"/><use transform="matrix(0.04999999999999998,0,0,0.04999999999999998,18.999999999999993,0)" xlink:href="#bp"/><use transform="matrix(0.04999999999999998,0,0,0.04999999999999998,28.99999999999999,0)" xlink:href="#bi"/><use transform="matrix(0.04999999999999998,0,0,0.04999999999999998,33.999999999999986,0)" xlink:href="#bm"/><use transform="matrix(0.04999999999999998,0,0,0.04999999999999998,43.999999999999986,0)" xlink:href="#bp"/><use transform="matrix(0.04999999999999998,0,0,0.04999999999999998,53.99999999999998,0)" xlink:href="#bi"/></g><g id="J"><use transform="matrix(0.05,0,0,0.05,0,0)" xlink:href="#bi"/><use transform="matrix(0.05,0,0,0.05,5,0)" xlink:href="#bx"/><use transform="matrix(0.05,0,0,0.05,15,0)" xlink:href="#bi"/><use transform="matrix(0.05,0,0,0.05,20,0)" xlink:href="#br"/><use transform="matrix(0.05,0,0,0.05,30,0)" xlink:href="#bl"/><use transform="matrix(0.05,0,0,0.05,33.95,0)" xlink:href="#bo"/><use transform="matrix(0.05,0,0,0.05,43.95,0)" xlink:href="#bk"/><use transform="matrix(0.05,0,0,0.05,52.95,0)" xlink:href="#bx"/><use transform="matrix(0.05,0,0,0.05,62.95,0)" xlink:href="#bs"/><use transform="matrix(0.05,0,0,0.05,77.9,0)" xlink:href="#bs"/><use transform="matrix(0.05,0,0,0.05,92.85000000000001,0)" xlink:href="#bm"/><use transform="matrix(0.05,0,0,0.05,102.85000000000001,0)" xlink:href="#bp"/><use transform="matrix(0.05,0,0,0.05,112.85000000000001,0)" xlink:href="#bi"/><use transform="matrix(0.05,0,0,0.05,117.85000000000001,0)" xlink:href="#bn"/></g><g id="K"><use transform="matrix(0.04999999999999998,0,0,0.04999999999999998,0,0)" xlink:href="#bs"/><use transform="matrix(0.04999999999999998,0,0,0.04999999999999998,14.949999999999994,0)" xlink:href="#bx"/><use transform="matrix(0.04999999999999998,0,0,0.04999999999999998,24.94999999999999,0)" xlink:href="#bz"/><use transform="matrix(0.04999999999999998,0,0,0.04999999999999998,34.94999999999999,0)" xlink:href="#bj"/><use transform="matrix(0.04999999999999998,0,0,0.04999999999999998,38.899999999999984,0)" xlink:href="#bH"/><use transform="matrix(0.04999999999999998,0,0,0.04999999999999998,43.899999999999984,0)" xlink:href="#bj"/><use transform="matrix(0.04999999999999998,0,0,0.04999999999999998,47.84999999999998,0)" xlink:href="#bm"/><use transform="matrix(0.04999999999999998,0,0,0.04999999999999998,57.84999999999998,0)" xlink:href="#bz"/><use transform="matrix(0.04999999999999998,0,0,0.04999999999999998,67.84999999999998,0)" xlink:href="#bo"/><use transform="matrix(0.04999999999999998,0,0,0.04999999999999998,77.84999999999998,0)" xlink:href="#br"/><use transform="matrix(0.04999999999999998,0,0,0.04999999999999998,87.84999999999998,0)" xlink:href="#bi"/></g><g id="L"><use transform="matrix(0.04999999999999999,0,0,0.04999999999999999,0,0)" xlink:href="#bk"/><use transform="matrix(0.05,0,0,0.05,8.999999999999998,0)" xlink:href="#bh"/><use transform="matrix(0.05,0,0,0.05,14.949999999999998,0)" xlink:href="#bm"/><use transform="matrix(0.05,0,0,0.05,24.95,0)" xlink:href="#br"/><use transform="matrix(0.05,0,0,0.05,34.95,0)" xlink:href="#bi"/><use transform="matrix(0.05,0,0,0.05,39.95,0)" xlink:href="#bm"/><use transform="matrix(0.05,0,0,0.05,49.95,0)" xlink:href="#bz"/><use transform="matrix(0.05,0,0,0.05,59.95,0)" xlink:href="#bo"/><use transform="matrix(0.05,0,0,0.05,69.95,0)" xlink:href="#br"/><use transform="matrix(0.05,0,0,0.05,79.95,0)" xlink:href="#bi"/></g><g id="M"><use transform="matrix(0.05,0,0,0.05,0,0)" xlink:href="#bg"/><use transform="matrix(0.05,0,0,0.05,12,0)" xlink:href="#bE"/><use transform="matrix(0.05,0,0,0.05,22,0)" xlink:href="#bi"/><use transform="matrix(0.05,0,0,0.05,27,0)" xlink:href="#bF"/><use transform="matrix(0.05,0,0,0.05,37,0)" xlink:href="#bx"/><use transform="matrix(0.05,0,0,0.05,47,0)" xlink:href="#bh"/><use transform="matrix(0.05,0,0,0.05,52.95,0)" xlink:href="#bn"/></g><g id="N"><use transform="matrix(0.05,0,0,0.05,0,0)" xlink:href="#bH"/><use transform="matrix(0.05,0,0,0.05,5,0)" xlink:href="#bj"/><use transform="matrix(0.05,0,0,0.05,8.95,0)" xlink:href="#bh"/><use transform="matrix(0.05,0,0,0.05,14.899999999999999,0)" xlink:href="#bn"/><use transform="matrix(0.05,0,0,0.05,23.9,0)" xlink:href="#bi"/><use transform="matrix(0.05,0,0,0.05,28.899999999999995,0)" xlink:href="#bo"/><use transform="matrix(0.05,0,0,0.05,38.9,0)" xlink:href="#bp"/><use transform="matrix(0.05,0,0,0.05,48.9,0)" xlink:href="#br"/><use transform="matrix(0.05,0,0,0.05,58.900000000000006,0)" xlink:href="#bs"/><use transform="matrix(0.05,0,0,0.05,73.85,0)" xlink:href="#bm"/></g><g id="O"><use transform="matrix(0.05,0,0,0.05,0,0)" xlink:href="#bs"/><use transform="matrix(0.05,0,0,0.05,14.950000000000001,0)" xlink:href="#bj"/><use transform="matrix(0.05,0,0,0.05,18.900000000000002,0)" xlink:href="#bz"/><use transform="matrix(0.05,0,0,0.05,28.900000000000002,0)" xlink:href="#bz"/><use transform="matrix(0.05,0,0,0.05,38.900000000000006,0)" xlink:href="#bl"/><use transform="matrix(0.05,0,0,0.05,42.85000000000001,0)" xlink:href="#bm"/><use transform="matrix(0.05,0,0,0.05,52.85,0)" xlink:href="#bo"/><use transform="matrix(0.05,0,0,0.05,62.85,0)" xlink:href="#bp"/><use transform="matrix(0.05,0,0,0.05,72.85000000000001,0)" xlink:href="#br"/><use transform="matrix(0.05,0,0,0.05,82.85000000000001,0)" xlink:href="#bs"/><use transform="matrix(0.05,0,0,0.05,97.80000000000001,0)" xlink:href="#bm"/></g><g id="P"><use transform="matrix(0.05,0,0,0.05,0,0)" xlink:href="#bl"/><use transform="matrix(0.05,0,0,0.05,3.95,0)" xlink:href="#br"/><use transform="matrix(0.05,0,0,0.05,13.949999999999998,0)" xlink:href="#bn"/><use transform="matrix(0.05,0,0,0.05,22.95,0)" xlink:href="#bi"/><use transform="matrix(0.05,0,0,0.05,27.950000000000003,0)" xlink:href="#bo"/><use transform="matrix(0.05,0,0,0.05,37.95,0)" xlink:href="#bp"/><use transform="matrix(0.05,0,0,0.05,47.95,0)" xlink:href="#br"/><use transform="matrix(0.05,0,0,0.05,57.95,0)" xlink:href="#bs"/><use transform="matrix(0.05,0,0,0.05,72.9,0)" xlink:href="#bm"/></g><g id="Q"><use transform="matrix(0.05,0,0,0.05,0,0)" xlink:href="#bm"/><use transform="matrix(0.05,0,0,0.05,10,0)" xlink:href="#bs"/><use transform="matrix(0.05,0,0,0.05,24.950000000000003,0)" xlink:href="#br"/><use transform="matrix(0.05,0,0,0.05,34.95,0)" xlink:href="#bj"/><use transform="matrix(0.05,0,0,0.05,38.900000000000006,0)" xlink:href="#bl"/><use transform="matrix(0.05,0,0,0.05,42.85000000000001,0)" xlink:href="#bo"/><use transform="matrix(0.05,0,0,0.05,52.85,0)" xlink:href="#br"/><use transform="matrix(0.05,0,0,0.05,62.85,0)" xlink:href="#bz"/><use transform="matrix(0.05,0,0,0.05,72.85000000000001,0)" xlink:href="#bz"/><use transform="matrix(0.05,0,0,0.05,82.85000000000001,0)" xlink:href="#bh"/><use transform="matrix(0.05,0,0,0.05,88.80000000000001,0)" xlink:href="#bm"/><use transform="matrix(0.05,0,0,0.05,98.80000000000001,0)" xlink:href="#bn"/><use transform="matrix(0.05,0,0,0.05,107.80000000000001,0)" xlink:href="#bn"/></g><g id="R"><use transform="matrix(0.05,0,0,0.05,0,0)" xlink:href="#bk"/><use transform="matrix(0.05,0,0,0.05,9,0)" xlink:href="#bx"/><use transform="matrix(0.05,0,0,0.05,19,0)" xlink:href="#bp"/><use transform="matrix(0.05,0,0,0.05,29,0)" xlink:href="#bi"/><use transform="matrix(0.05,0,0,0.05,34,0)" xlink:href="#br"/><use transform="matrix(0.05,0,0,0.05,44,0)" xlink:href="#bk"/><use transform="matrix(0.05,0,0,0.05,53,0)" xlink:href="#bi"/><use transform="matrix(0.05,0,0,0.05,58,0)" xlink:href="#bo"/><use transform="matrix(0.05,0,0,0.05,68,0)" xlink:href="#bp"/><use transform="matrix(0.05,0,0,0.05,78,0)" xlink:href="#bx"/></g><g id="S"><use transform="matrix(0.05,0,0,0.05,0,0)" xlink:href="#br"/><use transform="matrix(0.05,0,0,0.05,10,0)" xlink:href="#bh"/><use transform="matrix(0.05,0,0,0.05,15.949999999999998,0)" xlink:href="#bi"/><use transform="matrix(0.05,0,0,0.05,20.95,0)" xlink:href="#bj"/><use transform="matrix(0.05,0,0,0.05,24.9,0)" xlink:href="#bk"/><use transform="matrix(0.05,0,0,0.05,33.9,0)" xlink:href="#bl"/><use transform="matrix(0.05,0,0,0.05,37.85,0)" xlink:href="#bm"/><use transform="matrix(0.05,0,0,0.05,47.85,0)" xlink:href="#bn"/><use transform="matrix(0.05,0,0,0.05,56.85,0)" xlink:href="#bo"/><use transform="matrix(0.05,0,0,0.05,66.85,0)" xlink:href="#bk"/><use transform="matrix(0.05,0,0,0.05,75.85,0)" xlink:href="#bh"/><use transform="matrix(0.05,0,0,0.05,81.8,0)" xlink:href="#bm"/><use transform="matrix(0.05,0,0,0.05,91.8,0)" xlink:href="#br"/><use transform="matrix(0.05,0,0,0.05,101.8,0)" xlink:href="#bi"/><use transform="matrix(0.05,0,0,0.05,106.80000000000001,0)" xlink:href="#bm"/><use transform="matrix(0.05,0,0,0.05,116.80000000000001,0)" xlink:href="#bz"/></g><g id="T"><use transform="matrix(0.05,0,0,0.05,0,0)" xlink:href="#bn"/><use transform="matrix(0.05,0,0,0.05,9,0)" xlink:href="#bE"/><use transform="matrix(0.05,0,0,0.05,19,0)" xlink:href="#by"/><use transform="matrix(0.05,0,0,0.05,29,0)" xlink:href="#bI"/><use transform="matrix(0.05,0,0,0.05,32.95,0)" xlink:href="#bm"/><use transform="matrix(0.05,0,0,0.05,42.95,0)" xlink:href="#bk"/><use transform="matrix(0.05,0,0,0.05,51.95,0)" xlink:href="#bi"/><use transform="matrix(0.05,0,0,0.05,56.95,0)" xlink:href="#bn"/><use transform="matrix(0.05,0,0,0.05,65.95,0)" xlink:href="#bo"/><use transform="matrix(0.05,0,0,0.05,75.95,0)" xlink:href="#bi"/><use transform="matrix(0.05,0,0,0.05,80.95,0)" xlink:href="#br"/><use transform="matrix(0.05,0,0,0.05,90.95,0)" xlink:href="#bE"/><use transform="matrix(0.05,0,0,0.05,100.95,0)" xlink:href="#bq"/><use transform="matrix(0.05,0,0,0.05,110.95,0)" xlink:href="#bF"/><use transform="matrix(0.05,0,0,0.05,120.95,0)" xlink:href="#bi"/></g><g id="U"><use transform="matrix(0.05,0,0,0.05,0,0)" xlink:href="#bj"/><use transform="matrix(0.05,0,0,0.05,3.95,0)" xlink:href="#bn"/><use transform="matrix(0.05,0,0,0.05,12.949999999999998,0)" xlink:href="#bo"/><use transform="matrix(0.05,0,0,0.05,22.95,0)" xlink:href="#bz"/><use transform="matrix(0.05,0,0,0.05,32.95,0)" xlink:href="#bm"/><use transform="matrix(0.05,0,0,0.05,42.95,0)" xlink:href="#br"/><use transform="matrix(0.05,0,0,0.05,52.95,0)" xlink:href="#bk"/><use transform="matrix(0.05,0,0,0.05,61.95,0)" xlink:href="#bi"/><use transform="matrix(0.05,0,0,0.05,66.95,0)" xlink:href="#bj"/><use transform="matrix(0.05,0,0,0.05,70.9,0)" xlink:href="#bu"/><use transform="matrix(0.05,0,0,0.05,79.9,0)" xlink:href="#br"/><use transform="matrix(0.05,0,0,0.05,89.9,0)" xlink:href="#bi"/><use transform="matrix(0.05,0,0,0.05,94.9,0)" xlink:href="#bm"/><use transform="matrix(0.05,0,0,0.05,104.9,0)" xlink:href="#bz"/></g><path d="M185-189c-5-48-123-54-124 2 14 75 158 14 163 119 3 78-121 87-175 55-17-10-28-26-33-46l33-7c5 56 141 63 141-1 0-78-155-14-162-118-5-82 145-84 179-34 5 7 8 16 11 25" id="bJ"/><g id="V"><use transform="matrix(0.05,0,0,0.05,0,0)" xlink:href="#bJ"/><use transform="matrix(0.05,0,0,0.05,12,0)" xlink:href="#bi"/><use transform="matrix(0.05,0,0,0.05,17,0)" xlink:href="#bE"/><use transform="matrix(0.05,0,0,0.05,27,0)" xlink:href="#bz"/><use transform="matrix(0.05,0,0,0.05,37,0)" xlink:href="#bm"/><use transform="matrix(0.05,0,0,0.05,47,0)" xlink:href="#bp"/><use transform="matrix(0.05,0,0,0.05,57,0)" xlink:href="#bi"/><use transform="matrix(0.05,0,0,0.05,62,0)" xlink:href="#bn"/></g><g id="W"><use transform="matrix(0.05,0,0,0.05,0,0)" xlink:href="#bF"/><use transform="matrix(0.05,0,0,0.05,10,0)" xlink:href="#bx"/><use transform="matrix(0.05,0,0,0.05,20,0)" xlink:href="#bs"/><use transform="matrix(0.05,0,0,0.05,34.95,0)" xlink:href="#bm"/><use transform="matrix(0.05,0,0,0.05,44.95,0)" xlink:href="#bo"/><use transform="matrix(0.05,0,0,0.05,54.95,0)" xlink:href="#br"/><use transform="matrix(0.05,0,0,0.05,64.95,0)" xlink:href="#bz"/><use transform="matrix(0.05,0,0,0.05,74.95,0)" xlink:href="#bz"/><use transform="matrix(0.05,0,0,0.05,84.95,0)" xlink:href="#bh"/><use transform="matrix(0.05,0,0,0.05,90.9,0)" xlink:href="#bm"/><use transform="matrix(0.05,0,0,0.05,100.9,0)" xlink:href="#bn"/><use transform="matrix(0.05,0,0,0.05,109.9,0)" xlink:href="#bn"/></g><g id="X"><use transform="matrix(0.05,0,0,0.05,0,0)" xlink:href="#bm"/><use transform="matrix(0.05,0,0,0.05,10,0)" xlink:href="#bs"/><use transform="matrix(0.05,0,0,0.05,24.950000000000003,0)" xlink:href="#br"/><use transform="matrix(0.05,0,0,0.05,34.95,0)" xlink:href="#bj"/><use transform="matrix(0.05,0,0,0.05,38.900000000000006,0)" xlink:href="#bl"/><use transform="matrix(0.05,0,0,0.05,42.85000000000001,0)" xlink:href="#bo"/><use transform="matrix(0.05,0,0,0.05,52.85,0)" xlink:href="#br"/><use transform="matrix(0.05,0,0,0.05,62.85,0)" xlink:href="#bz"/><use transform="matrix(0.05,0,0,0.05,72.85000000000001,0)" xlink:href="#bz"/><use transform="matrix(0.05,0,0,0.05,82.85000000000001,0)" xlink:href="#bh"/><use transform="matrix(0.05,0,0,0.05,88.80000000000001,0)" xlink:href="#bm"/><use transform="matrix(0.05,0,0,0.05,98.80000000000001,0)" xlink:href="#bn"/><use transform="matrix(0.05,0,0,0.05,107.80000000000001,0)" xlink:href="#bn"/></g><g id="Y"><use transform="matrix(0.05,0,0,0.05,0,0)" xlink:href="#bk"/><use transform="matrix(0.05,0,0,0.05,9,0)" xlink:href="#bx"/><use transform="matrix(0.05,0,0,0.05,19,0)" xlink:href="#bp"/><use transform="matrix(0.05,0,0,0.05,29,0)" xlink:href="#bi"/><use transform="matrix(0.05,0,0,0.05,34,0)" xlink:href="#br"/><use transform="matrix(0.05,0,0,0.05,44,0)" xlink:href="#bk"/><use transform="matrix(0.05,0,0,0.05,53,0)" xlink:href="#bi"/><use transform="matrix(0.05,0,0,0.05,58,0)" xlink:href="#bo"/><use transform="matrix(0.05,0,0,0.05,68,0)" xlink:href="#bp"/><use transform="matrix(0.05,0,0,0.05,78,0)" xlink:href="#bx"/></g><g id="Z"><use transform="matrix(0.05,0,0,0.05,0,0)" xlink:href="#br"/><use transform="matrix(0.05,0,0,0.05,10,0)" xlink:href="#bE"/><use transform="matrix(0.05,0,0,0.05,20,0)" xlink:href="#bi"/><use transform="matrix(0.05,0,0,0.05,25,0)" xlink:href="#bF"/><use transform="matrix(0.05,0,0,0.05,35,0)" xlink:href="#bx"/><use transform="matrix(0.05,0,0,0.05,45,0)" xlink:href="#bh"/><use transform="matrix(0.05,0,0,0.05,50.95,0)" xlink:href="#bn"/><use transform="matrix(0.05,0,0,0.05,59.95,0)" xlink:href="#bo"/><use transform="matrix(0.05,0,0,0.05,69.95,0)" xlink:href="#bn"/><use transform="matrix(0.05,0,0,0.05,78.95,0)" xlink:href="#bE"/><use transform="matrix(0.05,0,0,0.05,88.95,0)" xlink:href="#by"/><use transform="matrix(0.05,0,0,0.05,98.95,0)" xlink:href="#bn"/><use transform="matrix(0.05,0,0,0.05,107.95,0)" xlink:href="#bk"/><use transform="matrix(0.05,0,0,0.05,116.95,0)" xlink:href="#bh"/><use transform="matrix(0.05,0,0,0.05,122.9,0)" xlink:href="#bj"/><use transform="matrix(0.05,0,0,0.05,126.85000000000001,0)" xlink:href="#by"/><use transform="matrix(0.05,0,0,0.05,136.85000000000002,0)" xlink:href="#bm"/><use transform="matrix(0.05,0,0,0.05,146.85000000000002,0)" xlink:href="#bz"/></g><g id="aa"><use transform="matrix(0.05,0,0,0.05,0,0)" xlink:href="#bn"/><use transform="matrix(0.05,0,0,0.05,9,0)" xlink:href="#bE"/><use transform="matrix(0.05,0,0,0.05,19,0)" xlink:href="#by"/><use transform="matrix(0.05,0,0,0.05,29,0)" xlink:href="#bI"/><use transform="matrix(0.05,0,0,0.05,32.95,0)" xlink:href="#bm"/><use transform="matrix(0.05,0,0,0.05,42.95,0)" xlink:href="#bk"/><use transform="matrix(0.05,0,0,0.05,51.95,0)" xlink:href="#bi"/><use transform="matrix(0.05,0,0,0.05,56.95,0)" xlink:href="#bn"/><use transform="matrix(0.05,0,0,0.05,65.95,0)" xlink:href="#bo"/><use transform="matrix(0.05,0,0,0.05,75.95,0)" xlink:href="#bI"/><use transform="matrix(0.05,0,0,0.05,79.9,0)" xlink:href="#bx"/><use transform="matrix(0.05,0,0,0.05,89.9,0)" xlink:href="#bj"/><use transform="matrix(0.05,0,0,0.05,93.85000000000001,0)" xlink:href="#bp"/><use transform="matrix(0.05,0,0,0.05,103.85000000000001,0)" xlink:href="#bm"/><use transform="matrix(0.05,0,0,0.05,113.85000000000001,0)" xlink:href="#bz"/></g><g id="ab"><use transform="matrix(0.05,0,0,0.05,0,0)" xlink:href="#br"/><use transform="matrix(0.05,0,0,0.05,10,0)" xlink:href="#bh"/><use transform="matrix(0.05,0,0,0.05,15.949999999999998,0)" xlink:href="#bi"/><use transform="matrix(0.05,0,0,0.05,20.95,0)" xlink:href="#bj"/><use transform="matrix(0.05,0,0,0.05,24.9,0)" xlink:href="#bk"/><use transform="matrix(0.05,0,0,0.05,33.9,0)" xlink:href="#bl"/><use transform="matrix(0.05,0,0,0.05,37.85,0)" xlink:href="#bm"/><use transform="matrix(0.05,0,0,0.05,47.85,0)" xlink:href="#bn"/><use transform="matrix(0.05,0,0,0.05,56.85,0)" xlink:href="#bo"/><use transform="matrix(0.05,0,0,0.05,66.85,0)" xlink:href="#bu"/><use transform="matrix(0.05,0,0,0.05,75.85,0)" xlink:href="#bj"/><use transform="matrix(0.05,0,0,0.05,79.8,0)" xlink:href="#bm"/><use transform="matrix(0.05,0,0,0.05,89.8,0)" xlink:href="#bv"/><use transform="matrix(0.05,0,0,0.05,102.75,0)" xlink:href="#bm"/><use transform="matrix(0.05,0,0,0.05,112.75,0)" xlink:href="#bz"/></g><g id="ac"><use transform="matrix(0.05,0,0,0.05,0,0)" xlink:href="#bn"/><use transform="matrix(0.05,0,0,0.05,9,0)" xlink:href="#bk"/><use transform="matrix(0.05,0,0,0.05,18,0)" xlink:href="#bF"/><use transform="matrix(0.05,0,0,0.05,28,0)" xlink:href="#bx"/><use transform="matrix(0.05,0,0,0.05,38,0)" xlink:href="#bx"/><use transform="matrix(0.05,0,0,0.05,48,0)" xlink:href="#bl"/><use transform="matrix(0.05,0,0,0.05,51.95,0)" xlink:href="#bo"/><use transform="matrix(0.05,0,0,0.05,61.95,0)" xlink:href="#bj"/><use transform="matrix(0.05,0,0,0.05,65.9,0)" xlink:href="#bz"/></g><g id="ad"><use transform="matrix(0.05,0,0,0.05,0,0)" xlink:href="#bk"/><use transform="matrix(0.05,0,0,0.05,9,0)" xlink:href="#bh"/><use transform="matrix(0.05,0,0,0.05,14.949999999999998,0)" xlink:href="#bm"/><use transform="matrix(0.05,0,0,0.05,24.95,0)" xlink:href="#br"/><use transform="matrix(0.05,0,0,0.05,34.95,0)" xlink:href="#bi"/><use transform="matrix(0.05,0,0,0.05,39.95,0)" xlink:href="#bm"/><use transform="matrix(0.05,0,0,0.05,49.95,0)" xlink:href="#bz"/><use transform="matrix(0.05,0,0,0.05,59.95,0)" xlink:href="#bo"/><use transform="matrix(0.05,0,0,0.05,69.95,0)" xlink:href="#br"/><use transform="matrix(0.05,0,0,0.05,79.95,0)" xlink:href="#bi"/></g><g id="ae"><use transform="matrix(0.05,0,0,0.05,0,0)" xlink:href="#bi"/><use transform="matrix(0.05,0,0,0.05,5,0)" xlink:href="#bj"/><use transform="matrix(0.05,0,0,0.05,8.95,0)" xlink:href="#bs"/><use transform="matrix(0.05,0,0,0.05,23.9,0)" xlink:href="#bm"/><use transform="matrix(0.05,0,0,0.05,33.9,0)" xlink:href="#bo"/><use transform="matrix(0.05,0,0,0.05,43.9,0)" xlink:href="#bn"/><use transform="matrix(0.05,0,0,0.05,52.900000000000006,0)" xlink:href="#bi"/><use transform="matrix(0.05,0,0,0.05,57.900000000000006,0)" xlink:href="#br"/><use transform="matrix(0.05,0,0,0.05,67.9,0)" xlink:href="#bs"/><use transform="matrix(0.05,0,0,0.05,82.85000000000001,0)" xlink:href="#bG"/></g><g id="af"><use transform="matrix(0.05,0,0,0.05,0,0)" xlink:href="#bj"/><use transform="matrix(0.05,0,0,0.05,3.95,0)" xlink:href="#bn"/><use transform="matrix(0.05,0,0,0.05,12.949999999999998,0)" xlink:href="#bo"/><use transform="matrix(0.05,0,0,0.05,22.95,0)" xlink:href="#bz"/><use transform="matrix(0.05,0,0,0.05,32.95,0)" xlink:href="#bm"/><use transform="matrix(0.05,0,0,0.05,42.95,0)" xlink:href="#br"/><use transform="matrix(0.05,0,0,0.05,52.95,0)" xlink:href="#bk"/><use transform="matrix(0.05,0,0,0.05,61.95,0)" xlink:href="#bi"/><use transform="matrix(0.05,0,0,0.05,66.95,0)" xlink:href="#bj"/><use transform="matrix(0.05,0,0,0.05,70.9,0)" xlink:href="#bu"/><use transform="matrix(0.05,0,0,0.05,79.9,0)" xlink:href="#br"/><use transform="matrix(0.05,0,0,0.05,89.9,0)" xlink:href="#bi"/><use transform="matrix(0.05,0,0,0.05,94.9,0)" xlink:href="#bm"/><use transform="matrix(0.05,0,0,0.05,104.9,0)" xlink:href="#bz"/></g><g id="ag"><use transform="matrix(0.05,0,0,0.05,0,0)" xlink:href="#bJ"/><use transform="matrix(0.05,0,0,0.05,12,0)" xlink:href="#bk"/><use transform="matrix(0.05,0,0,0.05,21,0)" xlink:href="#bF"/><use transform="matrix(0.05,0,0,0.05,31,0)" xlink:href="#bx"/><use transform="matrix(0.05,0,0,0.05,41,0)" xlink:href="#bx"/><use transform="matrix(0.05,0,0,0.05,51,0)" xlink:href="#bl"/><use transform="matrix(0.05,0,0,0.05,54.95,0)" xlink:href="#bn"/></g><g id="ah"><use transform="matrix(0.05,0,0,0.05,0,0)" xlink:href="#bp"/><use transform="matrix(0.05,0,0,0.05,10,0)" xlink:href="#br"/><use transform="matrix(0.05,0,0,0.05,20,0)" xlink:href="#bs"/><use transform="matrix(0.05,0,0,0.05,34.95,0)" xlink:href="#bm"/></g><g id="ai"><use transform="matrix(0.05,0,0,0.05,0,0)" xlink:href="#bG"/><use transform="matrix(0.05,0,0,0.05,10,0)" xlink:href="#bl"/><use transform="matrix(0.05,0,0,0.05,13.949999999999998,0)" xlink:href="#br"/><use transform="matrix(0.05,0,0,0.05,23.95,0)" xlink:href="#bk"/><use transform="matrix(0.05,0,0,0.05,32.95,0)" xlink:href="#bm"/><use transform="matrix(0.05,0,0,0.05,42.95,0)" xlink:href="#bo"/><use transform="matrix(0.05,0,0,0.05,52.95,0)" xlink:href="#br"/><use transform="matrix(0.05,0,0,0.05,62.95,0)" xlink:href="#bz"/><use transform="matrix(0.05,0,0,0.05,72.95,0)" xlink:href="#bz"/><use transform="matrix(0.05,0,0,0.05,82.95,0)" xlink:href="#bh"/><use transform="matrix(0.05,0,0,0.05,88.9,0)" xlink:href="#bm"/><use transform="matrix(0.05,0,0,0.05,98.9,0)" xlink:href="#bn"/><use transform="matrix(0.05,0,0,0.05,107.9,0)" xlink:href="#bn"/></g><g id="aj"><use transform="matrix(0.05,0,0,0.05,0,0)" xlink:href="#bl"/><use transform="matrix(0.05,0,0,0.05,3.95,0)" xlink:href="#br"/><use transform="matrix(0.05,0,0,0.05,13.949999999999998,0)" xlink:href="#bp"/><use transform="matrix(0.05,0,0,0.05,23.95,0)" xlink:href="#bz"/><use transform="matrix(0.05,0,0,0.05,33.95,0)" xlink:href="#bl"/><use transform="matrix(0.05,0,0,0.05,37.900000000000006,0)" xlink:href="#bj"/><use transform="matrix(0.05,0,0,0.05,41.85000000000001,0)" xlink:href="#bp"/><use transform="matrix(0.05,0,0,0.05,51.85,0)" xlink:href="#bm"/><use transform="matrix(0.05,0,0,0.05,61.85,0)" xlink:href="#bo"/><use transform="matrix(0.05,0,0,0.05,71.85000000000001,0)" xlink:href="#bp"/><use transform="matrix(0.05,0,0,0.05,81.85000000000001,0)" xlink:href="#bx"/></g><path d="M232-93c-1 65-40 97-104 97C67 4 28-28 28-90v-158h33c8 89-33 224 67 224 102 0 64-133 71-224h33v155" id="bK"/><g id="ak"><use transform="matrix(0.05,0,0,0.05,0,0)" xlink:href="#bK"/><use transform="matrix(0.05,0,0,0.05,12.950000000000001,0)" xlink:href="#bn"/><use transform="matrix(0.05,0,0,0.05,21.950000000000003,0)" xlink:href="#bm"/><use transform="matrix(0.05,0,0,0.05,31.950000000000003,0)" xlink:href="#bh"/><use transform="matrix(0.05,0,0,0.05,37.900000000000006,0)" xlink:href="#bn"/></g><path d="M4 7l51-268h42L46 7H4" id="bL"/><g id="al"><use transform="matrix(0.05,0,0,0.05,0,0)" xlink:href="#bB"/><use transform="matrix(0.05,0,0,0.05,12,0)" xlink:href="#bC"/><use transform="matrix(0.05,0,0,0.05,24.950000000000003,0)" xlink:href="#bL"/><use transform="matrix(0.05,0,0,0.05,29.950000000000003,0)" xlink:href="#bD"/><use transform="matrix(0.05,0,0,0.05,40.900000000000006,0)" xlink:href="#bC"/></g><g id="am"><use transform="matrix(0.05,0,0,0.05,0,0)" xlink:href="#bE"/><use transform="matrix(0.05,0,0,0.05,10,0)" xlink:href="#bn"/><use transform="matrix(0.05,0,0,0.05,19,0)" xlink:href="#bm"/><use transform="matrix(0.05,0,0,0.05,29,0)" xlink:href="#bh"/><use transform="matrix(0.05,0,0,0.05,34.95,0)" xlink:href="#bo"/><use transform="matrix(0.05,0,0,0.05,44.95,0)" xlink:href="#bk"/><use transform="matrix(0.05,0,0,0.05,53.95,0)" xlink:href="#bl"/><use transform="matrix(0.05,0,0,0.05,57.900000000000006,0)" xlink:href="#br"/><use transform="matrix(0.05,0,0,0.05,67.9,0)" xlink:href="#bn"/><use transform="matrix(0.05,0,0,0.05,76.9,0)" xlink:href="#bn"/></g><g id="an"><use transform="matrix(0.05,0,0,0.05,0,0)" xlink:href="#bE"/><use transform="matrix(0.05,0,0,0.05,10,0)" xlink:href="#bn"/><use transform="matrix(0.05,0,0,0.05,19,0)" xlink:href="#bm"/><use transform="matrix(0.05,0,0,0.05,29,0)" xlink:href="#bh"/><use transform="matrix(0.05,0,0,0.05,34.95,0)" xlink:href="#bp"/><use transform="matrix(0.05,0,0,0.05,44.95,0)" xlink:href="#br"/><use transform="matrix(0.05,0,0,0.05,54.95,0)" xlink:href="#bs"/><use transform="matrix(0.05,0,0,0.05,69.9,0)" xlink:href="#bm"/></g><g id="ao"><use transform="matrix(0.05,0,0,0.05,0,0)" xlink:href="#bG"/><use transform="matrix(0.05,0,0,0.05,10,0)" xlink:href="#br"/><use transform="matrix(0.05,0,0,0.05,20,0)" xlink:href="#bn"/><use transform="matrix(0.05,0,0,0.05,29,0)" xlink:href="#bn"/><use transform="matrix(0.05,0,0,0.05,38,0)" xlink:href="#bv"/><use transform="matrix(0.05,0,0,0.05,50.95,0)" xlink:href="#bx"/><use transform="matrix(0.05,0,0,0.05,60.95,0)" xlink:href="#bh"/><use transform="matrix(0.05,0,0,0.05,66.9,0)" xlink:href="#bz"/></g><path d="M179-190L93 31C79 59 56 82 12 73V49c39 6 53-20 64-50L1-190h34L92-34l54-156h33" id="bM"/><g id="ap"><use transform="matrix(0.05,0,0,0.05,0,0)" xlink:href="#bg"/><use transform="matrix(0.05,0,0,0.05,12,0)" xlink:href="#bh"/><use transform="matrix(0.05,0,0,0.05,17.95,0)" xlink:href="#bi"/><use transform="matrix(0.05,0,0,0.05,22.95,0)" xlink:href="#bj"/><use transform="matrix(0.05,0,0,0.05,26.899999999999995,0)" xlink:href="#bk"/><use transform="matrix(0.05,0,0,0.05,35.9,0)" xlink:href="#bl"/><use transform="matrix(0.05,0,0,0.05,39.85,0)" xlink:href="#bm"/><use transform="matrix(0.05,0,0,0.05,49.85,0)" xlink:href="#bn"/><use transform="matrix(0.05,0,0,0.05,58.85,0)" xlink:href="#bo"/><use transform="matrix(0.05,0,0,0.05,68.85,0)" xlink:href="#bh"/><use transform="matrix(0.05,0,0,0.05,74.8,0)" xlink:href="#bm"/><use transform="matrix(0.05,0,0,0.05,84.8,0)" xlink:href="#bG"/><use transform="matrix(0.05,0,0,0.05,94.8,0)" xlink:href="#bl"/><use transform="matrix(0.05,0,0,0.05,98.75,0)" xlink:href="#bM"/></g><g id="aq"><use transform="matrix(0.05,0,0,0.05,0,0)" xlink:href="#bk"/><use transform="matrix(0.05,0,0,0.05,9,0)" xlink:href="#bx"/><use transform="matrix(0.05,0,0,0.05,19,0)" xlink:href="#bs"/><use transform="matrix(0.05,0,0,0.05,33.95,0)" xlink:href="#bs"/><use transform="matrix(0.05,0,0,0.05,48.900000000000006,0)" xlink:href="#bm"/><use transform="matrix(0.05,0,0,0.05,58.900000000000006,0)" xlink:href="#bp"/><use transform="matrix(0.05,0,0,0.05,68.9,0)" xlink:href="#bi"/><use transform="matrix(0.05,0,0,0.05,73.9,0)" xlink:href="#bo"/><use transform="matrix(0.05,0,0,0.05,83.9,0)" xlink:href="#bj"/><use transform="matrix(0.05,0,0,0.05,87.85000000000001,0)" xlink:href="#bz"/></g><g id="ar"><use transform="matrix(0.05,0,0,0.05,0,0)" xlink:href="#bh"/><use transform="matrix(0.05,0,0,0.05,5.95,0)" xlink:href="#bm"/><use transform="matrix(0.05,0,0,0.05,15.949999999999998,0)" xlink:href="#bG"/><use transform="matrix(0.05,0,0,0.05,25.950000000000003,0)" xlink:href="#bl"/><use transform="matrix(0.05,0,0,0.05,29.899999999999995,0)" xlink:href="#bM"/></g><g id="as"><use transform="matrix(0.05,0,0,0.05,0,0)" xlink:href="#bg"/><use transform="matrix(0.05,0,0,0.05,12,0)" xlink:href="#bE"/><use transform="matrix(0.05,0,0,0.05,22,0)" xlink:href="#bi"/><use transform="matrix(0.05,0,0,0.05,27,0)" xlink:href="#bF"/><use transform="matrix(0.05,0,0,0.05,37,0)" xlink:href="#bx"/><use transform="matrix(0.05,0,0,0.05,47,0)" xlink:href="#bh"/><use transform="matrix(0.05,0,0,0.05,52.95,0)" xlink:href="#bo"/><use transform="matrix(0.05,0,0,0.05,62.95,0)" xlink:href="#bn"/><use transform="matrix(0.05,0,0,0.05,71.95,0)" xlink:href="#bE"/><use transform="matrix(0.05,0,0,0.05,81.95,0)" xlink:href="#by"/><use transform="matrix(0.05,0,0,0.05,91.95,0)" xlink:href="#bn"/><use transform="matrix(0.05,0,0,0.05,100.95,0)" xlink:href="#bk"/><use transform="matrix(0.05,0,0,0.05,109.95,0)" xlink:href="#bh"/><use transform="matrix(0.05,0,0,0.05,115.9,0)" xlink:href="#bj"/><use transform="matrix(0.05,0,0,0.05,119.85000000000001,0)" xlink:href="#bG"/><use transform="matrix(0.05,0,0,0.05,129.85000000000002,0)" xlink:href="#bi"/><use transform="matrix(0.05,0,0,0.05,134.85000000000002,0)" xlink:href="#bj"/><use transform="matrix(0.05,0,0,0.05,138.8,0)" xlink:href="#bx"/><use transform="matrix(0.05,0,0,0.05,148.8,0)" xlink:href="#bp"/></g><g id="at"><use transform="matrix(0.05,0,0,0.05,0,0)" xlink:href="#bn"/><use transform="matrix(0.05,0,0,0.05,9,0)" xlink:href="#bi"/><use transform="matrix(0.05,0,0,0.05,14,0)" xlink:href="#bE"/><use transform="matrix(0.05,0,0,0.05,24,0)" xlink:href="#bz"/><use transform="matrix(0.05,0,0,0.05,34,0)" xlink:href="#bm"/><use transform="matrix(0.05,0,0,0.05,44,0)" xlink:href="#bp"/><use transform="matrix(0.05,0,0,0.05,54,0)" xlink:href="#bi"/><use transform="matrix(0.05,0,0,0.05,59,0)" xlink:href="#bo"/><use transform="matrix(0.05,0,0,0.05,69,0)" xlink:href="#bj"/><use transform="matrix(0.05,0,0,0.05,72.95,0)" xlink:href="#bz"/></g><g id="au"><use transform="matrix(0.05,0,0,0.05,0,0)" xlink:href="#br"/><use transform="matrix(0.05,0,0,0.05,10,0)" xlink:href="#bE"/><use transform="matrix(0.05,0,0,0.05,20,0)" xlink:href="#bi"/><use transform="matrix(0.05,0,0,0.05,25,0)" xlink:href="#bF"/><use transform="matrix(0.05,0,0,0.05,35,0)" xlink:href="#bx"/><use transform="matrix(0.05,0,0,0.05,45,0)" xlink:href="#bh"/><use transform="matrix(0.05,0,0,0.05,50.95,0)" xlink:href="#bo"/><use transform="matrix(0.05,0,0,0.05,60.95,0)" xlink:href="#bj"/><use transform="matrix(0.05,0,0,0.05,64.9,0)" xlink:href="#bz"/></g><g id="av"><use transform="matrix(0.05,0,0,0.05,0,0)" xlink:href="#bj"/><use transform="matrix(0.05,0,0,0.05,3.95,0)" xlink:href="#bn"/><use transform="matrix(0.05,0,0,0.05,12.949999999999998,0)" xlink:href="#bo"/><use transform="matrix(0.05,0,0,0.05,22.95,0)" xlink:href="#bn"/><use transform="matrix(0.05,0,0,0.05,31.950000000000003,0)" xlink:href="#bE"/><use transform="matrix(0.05,0,0,0.05,41.95,0)" xlink:href="#by"/><use transform="matrix(0.05,0,0,0.05,51.95,0)" xlink:href="#bn"/><use transform="matrix(0.05,0,0,0.05,60.95,0)" xlink:href="#bk"/><use transform="matrix(0.05,0,0,0.05,69.95,0)" xlink:href="#bh"/><use transform="matrix(0.05,0,0,0.05,75.9,0)" xlink:href="#bj"/><use transform="matrix(0.05,0,0,0.05,79.85000000000001,0)" xlink:href="#by"/><use transform="matrix(0.05,0,0,0.05,89.85000000000001,0)" xlink:href="#bm"/><use transform="matrix(0.05,0,0,0.05,99.85000000000001,0)" xlink:href="#bz"/></g><g id="aw"><use transform="matrix(0.05,0,0,0.05,0,0)" xlink:href="#bJ"/><use transform="matrix(0.05,0,0,0.05,12,0)" xlink:href="#bE"/><use transform="matrix(0.05,0,0,0.05,22,0)" xlink:href="#by"/><use transform="matrix(0.05,0,0,0.05,32,0)" xlink:href="#bI"/><use transform="matrix(0.05,0,0,0.05,35.95,0)" xlink:href="#bm"/><use transform="matrix(0.05,0,0,0.05,45.95,0)" xlink:href="#bk"/><use transform="matrix(0.05,0,0,0.05,54.95,0)" xlink:href="#bi"/><use transform="matrix(0.05,0,0,0.05,59.95,0)" xlink:href="#bn"/></g><g id="ax"><use transform="matrix(0.05,0,0,0.05,0,0)" xlink:href="#br"/><use transform="matrix(0.05,0,0,0.05,10,0)" xlink:href="#bn"/><use transform="matrix(0.05,0,0,0.05,19,0)" xlink:href="#bn"/><use transform="matrix(0.05,0,0,0.05,28,0)" xlink:href="#bx"/><use transform="matrix(0.05,0,0,0.05,38,0)" xlink:href="#bk"/><use transform="matrix(0.05,0,0,0.05,47,0)" xlink:href="#bo"/><use transform="matrix(0.05,0,0,0.05,57,0)" xlink:href="#br"/><use transform="matrix(0.05,0,0,0.05,67,0)" xlink:href="#bh"/><use transform="matrix(0.05,0,0,0.05,72.95,0)" xlink:href="#bi"/><use transform="matrix(0.05,0,0,0.05,77.95,0)" xlink:href="#bj"/><use transform="matrix(0.05,0,0,0.05,81.9,0)" xlink:href="#bk"/><use transform="matrix(0.05,0,0,0.05,90.9,0)" xlink:href="#bl"/><use transform="matrix(0.05,0,0,0.05,94.85000000000001,0)" xlink:href="#bm"/><use transform="matrix(0.05,0,0,0.05,104.85000000000001,0)" xlink:href="#bn"/></g><g id="ay"><use transform="matrix(0.05,0,0,0.05,0,0)" xlink:href="#br"/><use transform="matrix(0.05,0,0,0.05,10,0)" xlink:href="#bn"/><use transform="matrix(0.05,0,0,0.05,19,0)" xlink:href="#bn"/><use transform="matrix(0.05,0,0,0.05,28,0)" xlink:href="#bx"/><use transform="matrix(0.05,0,0,0.05,38,0)" xlink:href="#bk"/><use transform="matrix(0.05,0,0,0.05,47,0)" xlink:href="#bo"/><use transform="matrix(0.05,0,0,0.05,57,0)" xlink:href="#br"/><use transform="matrix(0.05,0,0,0.05,67,0)" xlink:href="#bE"/><use transform="matrix(0.05,0,0,0.05,77,0)" xlink:href="#bi"/><use transform="matrix(0.05,0,0,0.05,82,0)" xlink:href="#bF"/><use transform="matrix(0.05,0,0,0.05,92,0)" xlink:href="#bx"/><use transform="matrix(0.05,0,0,0.05,102,0)" xlink:href="#bh"/><use transform="matrix(0.05,0,0,0.05,107.95,0)" xlink:href="#bn"/></g></defs></g></svg>