<svg xmlns="http://www.w3.org/2000/svg" xmlns:xlink="http://www.w3.org/1999/xlink" xmlns:lucid="lucid" width="1760" height="1360"><g transform="translate(0 0)" lucid:page-tab-id="0_0"><path d="M0 0h1760v1360H0z" fill="#fff"/><path d="M365.96 74c0-6.63 5.37-12 12-12h936.17c6.63 0 12 5.37 12 12v39.08c0 6.62-5.37 12-12 12H377.96c-6.63 0-12-5.38-12-12z" stroke="#000" stroke-opacity="0" stroke-width="2" fill="#fff" fill-opacity="0"/><use xlink:href="#a" transform="matrix(1,0,0,1,370.95736456049923,66.99999999999994) translate(280.05555555555554 31.458333333333336)"/><use xlink:href="#b" transform="matrix(1,0,0,1,370.95736456049923,66.99999999999994) translate(413.01851851851853 31.458333333333336)"/><use xlink:href="#c" transform="matrix(1,0,0,1,370.95736456049923,66.99999999999994) translate(527.2407407407408 31.458333333333336)"/><path d="M621.1 129.87c0-6.63 5.36-12 12-12h430c6.62 0 12 5.37 12 12V140c0 6.63-5.38 12-12 12h-430c-6.64 0-12-5.37-12-12z" stroke="#000" stroke-opacity="0" stroke-width="2" fill="#fff" fill-opacity="0"/><use xlink:href="#d" transform="matrix(1,0,0,1,626.0889487678969,122.86936285872464) translate(81.44135802469137 15.569444444444446)"/><use xlink:href="#e" transform="matrix(1,0,0,1,626.0889487678969,122.86936285872464) translate(142.7993827160494 15.569444444444446)"/><use xlink:href="#f" transform="matrix(1,0,0,1,626.0889487678969,122.86936285872464) translate(171.3179012345679 15.569444444444446)"/><use xlink:href="#g" transform="matrix(1,0,0,1,626.0889487678969,122.86936285872464) translate(214.48456790123458 15.569444444444446)"/><use xlink:href="#h" transform="matrix(1,0,0,1,626.0889487678969,122.86936285872464) translate(227.14506172839506 15.569444444444446)"/><use xlink:href="#i" transform="matrix(1,0,0,1,626.0889487678969,122.86936285872464) translate(303.0648148148148 15.569444444444446)"/><use xlink:href="#j" transform="matrix(1,0,0,1,626.0889487678969,122.86936285872464) translate(328.99074074074076 15.569444444444446)"/><path d="M543.6 117.6h610.2M543.62 117.6h-1.02M1153.78 117.6h1.03" stroke="#b2b2b2" stroke-width="2" fill="none"/><path d="M1001.5 485c0-2.76 2.24-5 5-5h291.46c2.76 0 5 2.24 5 5v254c0 2.76-2.24 5-5 5H1006.5c-2.76 0-5-2.24-5-5z" fill="#fff"/><path d="M1001.5 480h301.46v40H1001.5z" fill="#ccc"/><path d="M1001.5 485c0-2.76 2.24-5 5-5h291.46c2.76 0 5 2.24 5 5v254c0 2.76-2.24 5-5 5H1006.5c-2.76 0-5-2.24-5-5zM1001.5 520h301.46M1049 520v224M1193.2 520v224" stroke="#000" fill="none"/><use xlink:href="#k" transform="matrix(1,0,0,1,1011.5000000000001,480) translate(0 23.6)"/><use xlink:href="#l" transform="matrix(1,0,0,1,1006.5000000000001,522.5) translate(0 17.1)"/><use xlink:href="#m" transform="matrix(1,0,0,1,1053.988293659097,522.5) translate(0 17.1)"/><use xlink:href="#n" transform="matrix(1,0,0,1,1198.2100833496247,522.5) translate(0 17.1)"/><use xlink:href="#o" transform="matrix(1,0,0,1,1006.5000000000001,554.5) translate(0 17.1)"/><use xlink:href="#p" transform="matrix(1,0,0,1,1053.988293659097,554.5) translate(0 17.1)"/><use xlink:href="#n" transform="matrix(1,0,0,1,1198.2100833496247,554.5) translate(0 17.1)"/><use xlink:href="#o" transform="matrix(1,0,0,1,1006.5000000000001,586.5) translate(0 17.1)"/><use xlink:href="#q" transform="matrix(1,0,0,1,1053.988293659097,586.5) translate(0 17.1)"/><use xlink:href="#n" transform="matrix(1,0,0,1,1198.2100833496247,586.5) translate(0 17.1)"/><use xlink:href="#r" transform="matrix(1,0,0,1,1053.988293659097,618.5) translate(0 17.1)"/><use xlink:href="#s" transform="matrix(1,0,0,1,1198.2100833496247,618.5) translate(0 17.1)"/><use xlink:href="#t" transform="matrix(1,0,0,1,1053.988293659097,650.5) translate(0 17.1)"/><use xlink:href="#u" transform="matrix(1,0,0,1,1198.2100833496247,650.5) translate(0 17.1)"/><use xlink:href="#v" transform="matrix(1,0,0,1,1053.988293659097,682.5) translate(0 17.1)"/><use xlink:href="#u" transform="matrix(1,0,0,1,1198.2100833496247,682.5) translate(0 17.1)"/><use xlink:href="#w" transform="matrix(1,0,0,1,1053.988293659097,714.5) translate(0 17.1)"/><use xlink:href="#x" transform="matrix(1,0,0,1,1198.2100833496247,714.5) translate(0 17.1)"/><path d="M1381.5 526.5c0-2.76 2.24-5 5-5h290.36c2.77 0 5 2.24 5 5v286c0 2.76-2.23 5-5 5H1386.5c-2.76 0-5-2.24-5-5z" fill="#fff"/><path d="M1381.5 521.5h300.36v40H1381.5z" fill="#ccc"/><path d="M1381.5 526.5c0-2.76 2.24-5 5-5h290.36c2.77 0 5 2.24 5 5v286c0 2.76-2.23 5-5 5H1386.5c-2.76 0-5-2.24-5-5zM1381.5 561.5h300.36M1429 561.5v256M1574.44 561.5v256" stroke="#000" fill="none"/><use xlink:href="#y" transform="matrix(1,0,0,1,1391.5,521.5) translate(0 23.6)"/><use xlink:href="#l" transform="matrix(1,0,0,1,1386.5,564) translate(0 17.1)"/><use xlink:href="#m" transform="matrix(1,0,0,1,1433.988293659097,564) translate(0 17.1)"/><use xlink:href="#n" transform="matrix(1,0,0,1,1579.4357410375815,564) translate(0 17.1)"/><use xlink:href="#o" transform="matrix(1,0,0,1,1386.5,596) translate(0 17.1)"/><use xlink:href="#z" transform="matrix(1,0,0,1,1433.988293659097,596) translate(0 17.099999999999998)"/><use xlink:href="#n" transform="matrix(1,0,0,1,1579.4357410375815,596) translate(0 17.1)"/><use xlink:href="#o" transform="matrix(1,0,0,1,1386.5,628) translate(0 17.1)"/><use xlink:href="#A" transform="matrix(1,0,0,1,1433.988293659097,628) translate(0 17.099999999999998)"/><use xlink:href="#n" transform="matrix(1,0,0,1,1579.4357410375815,628) translate(0 17.1)"/><use xlink:href="#B" transform="matrix(1,0,0,1,1433.988293659097,660) translate(0 17.099999999999998)"/><use xlink:href="#s" transform="matrix(1,0,0,1,1579.4357410375815,660) translate(0 17.1)"/><use xlink:href="#C" transform="matrix(1,0,0,1,1433.988293659097,692) translate(0 17.099999999999998)"/><use xlink:href="#s" transform="matrix(1,0,0,1,1579.4357410375815,692) translate(0 17.1)"/><use xlink:href="#D" transform="matrix(1,0,0,1,1433.988293659097,724) translate(0 17.099999999999998)"/><use xlink:href="#u" transform="matrix(1,0,0,1,1579.4357410375815,724) translate(0 17.1)"/><use xlink:href="#E" transform="matrix(1,0,0,1,1433.988293659097,756) translate(0 17.1)"/><use xlink:href="#u" transform="matrix(1,0,0,1,1579.4357410375815,756) translate(0 17.1)"/><use xlink:href="#w" transform="matrix(1,0,0,1,1433.988293659097,788) translate(0 17.1)"/><use xlink:href="#x" transform="matrix(1,0,0,1,1579.4357410375815,788) translate(0 17.1)"/><path d="M1001.5 905c0-2.76 2.24-5 5-5h310c2.76 0 5 2.24 5 5v318c0 2.76-2.24 5-5 5h-310c-2.76 0-5-2.24-5-5z" fill="#fff"/><path d="M1001.5 900h320v40h-320z" fill="#ccc"/><path d="M1001.5 905c0-2.76 2.24-5 5-5h310c2.76 0 5 2.24 5 5v318c0 2.76-2.24 5-5 5h-310c-2.76 0-5-2.24-5-5zM1001.5 940h320M1049 940v288M1210.5 940v288" stroke="#000" fill="none"/><use xlink:href="#F" transform="matrix(1,0,0,1,1011.5,900) translate(0 23.6)"/><use xlink:href="#l" transform="matrix(1,0,0,1,1006.5,942.5) translate(0 17.1)"/><use xlink:href="#m" transform="matrix(1,0,0,1,1053.988293659097,942.5) translate(0 17.1)"/><use xlink:href="#n" transform="matrix(1,0,0,1,1215.4936545249257,942.5) translate(0 17.1)"/><use xlink:href="#G" transform="matrix(1,0,0,1,1053.988293659097,974.5) translate(0 17.1)"/><use xlink:href="#s" transform="matrix(1,0,0,1,1215.4936545249257,974.5) translate(0 17.1)"/><use xlink:href="#H" transform="matrix(1,0,0,1,1053.988293659097,1006.5) translate(0 17.1)"/><use xlink:href="#s" transform="matrix(1,0,0,1,1215.4936545249257,1006.5) translate(0 17.1)"/><use xlink:href="#I" transform="matrix(1,0,0,1,1053.988293659097,1038.5) translate(0 17.1)"/><use xlink:href="#s" transform="matrix(1,0,0,1,1215.4936545249257,1038.5) translate(0 17.1)"/><use xlink:href="#J" transform="matrix(1,0,0,1,1053.988293659097,1070.5) translate(0 17.1)"/><use xlink:href="#K" transform="matrix(1,0,0,1,1215.4936545249257,1070.5) translate(0 17.1)"/><use xlink:href="#L" transform="matrix(1,0,0,1,1006.5,1102.5) translate(0 17.1)"/><use xlink:href="#M" transform="matrix(1,0,0,1,1053.988293659097,1102.5) translate(0 17.1)"/><use xlink:href="#N" transform="matrix(1,0,0,1,1215.4936545249257,1102.5) translate(0 17.1)"/><use xlink:href="#O" transform="matrix(1,0,0,1,1053.988293659097,1134.5) translate(0 17.099999999999998)"/><use xlink:href="#P" transform="matrix(1,0,0,1,1215.4936545249257,1134.5) translate(0 17.1)"/><use xlink:href="#Q" transform="matrix(1,0,0,1,1053.988293659097,1166.5) translate(0 17.1)"/><use xlink:href="#P" transform="matrix(1,0,0,1,1215.4936545249257,1166.5) translate(0 17.1)"/><use xlink:href="#w" transform="matrix(1,0,0,1,1053.988293659097,1198.5) translate(0 17.1)"/><use xlink:href="#R" transform="matrix(1,0,0,1,1215.4936545249257,1198.5) translate(0 17.1)"/><path d="M201.5 565c0-2.76 2.24-5 5-5h332.54c2.77 0 5 2.24 5 5v350c0 2.76-2.23 5-5 5H206.5c-2.76 0-5-2.24-5-5z" fill="#fff"/><path d="M201.5 560h342.54v40H201.5z" fill="#ccc"/><path d="M201.5 565c0-2.76 2.24-5 5-5h332.54c2.77 0 5 2.24 5 5v350c0 2.76-2.23 5-5 5H206.5c-2.76 0-5-2.24-5-5zM201.5 600h342.54M249 600v320M439.2 600v320" stroke="#000" fill="none"/><use xlink:href="#S" transform="matrix(1,0,0,1,211.50000000000006,560.0000000000001) translate(0 23.6)"/><use xlink:href="#l" transform="matrix(1,0,0,1,206.50000000000006,602.5000000000001) translate(0 17.1)"/><use xlink:href="#m" transform="matrix(1,0,0,1,253.988293659097,602.5000000000001) translate(0 17.1)"/><use xlink:href="#n" transform="matrix(1,0,0,1,444.19978527975564,602.5000000000001) translate(0 17.1)"/><use xlink:href="#G" transform="matrix(1,0,0,1,253.988293659097,634.5000000000001) translate(0 17.1)"/><use xlink:href="#s" transform="matrix(1,0,0,1,444.19978527975564,634.5000000000001) translate(0 17.1)"/><use xlink:href="#H" transform="matrix(1,0,0,1,253.988293659097,666.5000000000001) translate(0 17.1)"/><use xlink:href="#s" transform="matrix(1,0,0,1,444.19978527975564,666.5000000000001) translate(0 17.1)"/><use xlink:href="#T" transform="matrix(1,0,0,1,253.988293659097,698.5000000000001) translate(0 17.1)"/><use xlink:href="#s" transform="matrix(1,0,0,1,444.19978527975564,698.5000000000001) translate(0 17.1)"/><use xlink:href="#U" transform="matrix(1,0,0,1,253.988293659097,730.5000000000001) translate(0 17.1)"/><use xlink:href="#s" transform="matrix(1,0,0,1,444.19978527975564,730.5000000000001) translate(0 17.1)"/><use xlink:href="#L" transform="matrix(1,0,0,1,206.50000000000006,762.5000000000001) translate(0 17.1)"/><use xlink:href="#V" transform="matrix(1,0,0,1,253.988293659097,762.5000000000001) translate(0 17.1)"/><use xlink:href="#n" transform="matrix(1,0,0,1,444.19978527975564,762.5000000000001) translate(0 17.1)"/><use xlink:href="#o" transform="matrix(1,0,0,1,206.50000000000006,794.5000000000001) translate(0 17.1)"/><use xlink:href="#W" transform="matrix(1,0,0,1,253.988293659097,794.5000000000001) translate(0 17.1)"/><use xlink:href="#n" transform="matrix(1,0,0,1,444.19978527975564,794.5000000000001) translate(0 17.1)"/><use xlink:href="#D" transform="matrix(1,0,0,1,253.988293659097,826.5000000000001) translate(0 17.099999999999998)"/><use xlink:href="#u" transform="matrix(1,0,0,1,444.19978527975564,826.5000000000001) translate(0 17.1)"/><use xlink:href="#X" transform="matrix(1,0,0,1,253.988293659097,858.5000000000001) translate(0 17.1)"/><use xlink:href="#Y" transform="matrix(1,0,0,1,444.19978527975564,858.5000000000001) translate(0 17.1)"/><use xlink:href="#Z" transform="matrix(1,0,0,1,253.988293659097,890.5000000000001) translate(0 17.1)"/><use xlink:href="#x" transform="matrix(1,0,0,1,444.19978527975564,890.5000000000001) translate(0 17.1)"/><path d="M221.5 245c0-2.76 2.24-5 5-5h248.9c2.77 0 5 2.24 5 5v286c0 2.76-2.23 5-5 5H226.5c-2.76 0-5-2.24-5-5z" fill="#fff"/><path d="M221.5 240h258.9v40H221.5z" fill="#ccc"/><path d="M221.5 245c0-2.76 2.24-5 5-5h248.9c2.77 0 5 2.24 5 5v286c0 2.76-2.23 5-5 5H226.5c-2.76 0-5-2.24-5-5zM221.5 280h258.9M256.02 280v256M374.84 280v256" stroke="#000" fill="none"/><use xlink:href="#aa" transform="matrix(1,0,0,1,231.4999999999999,240) translate(0 23.6)"/><use xlink:href="#l" transform="matrix(1,0,0,1,226.4999999999999,282.5) translate(0 17.1)"/><use xlink:href="#m" transform="matrix(1,0,0,1,261.0201358641458,282.5) translate(0 17.1)"/><use xlink:href="#n" transform="matrix(1,0,0,1,379.8394108151014,282.5) translate(0 17.1)"/><use xlink:href="#ab" transform="matrix(1,0,0,1,261.0201358641458,314.5) translate(0 17.1)"/><use xlink:href="#s" transform="matrix(1,0,0,1,379.8394108151014,314.5) translate(0 17.1)"/><use xlink:href="#ac" transform="matrix(1,0,0,1,261.0201358641458,346.5) translate(0 17.1)"/><use xlink:href="#s" transform="matrix(1,0,0,1,379.8394108151014,346.5) translate(0 17.1)"/><use xlink:href="#ad" transform="matrix(1,0,0,1,261.0201358641458,378.5) translate(0 17.1)"/><use xlink:href="#s" transform="matrix(1,0,0,1,379.8394108151014,378.5) translate(0 17.1)"/><use xlink:href="#J" transform="matrix(1,0,0,1,261.0201358641458,410.5) translate(0 17.1)"/><use xlink:href="#s" transform="matrix(1,0,0,1,379.8394108151014,410.5) translate(0 17.1)"/><use xlink:href="#L" transform="matrix(1,0,0,1,226.4999999999999,442.5) translate(0 17.1)"/><use xlink:href="#M" transform="matrix(1,0,0,1,261.0201358641458,442.5) translate(0 17.1)"/><use xlink:href="#n" transform="matrix(1,0,0,1,379.8394108151014,442.5) translate(0 17.1)"/><use xlink:href="#ae" transform="matrix(1,0,0,1,261.0201358641458,474.5) translate(0 17.1)"/><use xlink:href="#u" transform="matrix(1,0,0,1,379.8394108151014,474.5) translate(0 17.1)"/><use xlink:href="#v" transform="matrix(1,0,0,1,261.0201358641458,506.5) translate(0 17.1)"/><use xlink:href="#u" transform="matrix(1,0,0,1,379.8394108151014,506.5) translate(0 17.1)"/><path d="M621.5 658.33c0-2.77 2.24-5 5-5h290.36c2.77 0 5 2.23 5 5v286c0 2.76-2.23 5-5 5H626.5c-2.76 0-5-2.24-5-5z" fill="#fff"/><path d="M621.5 653.33h300.36v40H621.5z" fill="#ccc"/><path d="M621.5 658.33c0-2.77 2.24-5 5-5h290.36c2.77 0 5 2.23 5 5v286c0 2.76-2.23 5-5 5H626.5c-2.76 0-5-2.24-5-5zM621.5 693.33h300.36M670.26 693.33v256M813.23 693.33v256" stroke="#000" fill="none"/><use xlink:href="#af" transform="matrix(1,0,0,1,631.5,653.3252775232772) translate(0 23.6)"/><use xlink:href="#l" transform="matrix(1,0,0,1,626.5,695.8252775232772) translate(0 17.1)"/><use xlink:href="#m" transform="matrix(1,0,0,1,675.2590418673807,695.8252775232772) translate(0 17.1)"/><use xlink:href="#n" transform="matrix(1,0,0,1,818.2307281345253,695.8252775232772) translate(0 17.1)"/><use xlink:href="#ag" transform="matrix(1,0,0,1,675.2590418673807,727.8252775232772) translate(0 17.1)"/><use xlink:href="#s" transform="matrix(1,0,0,1,818.2307281345253,727.8252775232772) translate(0 17.1)"/><use xlink:href="#ah" transform="matrix(1,0,0,1,675.2590418673807,759.8252775232772) translate(0 17.1)"/><use xlink:href="#s" transform="matrix(1,0,0,1,818.2307281345253,759.8252775232772) translate(0 17.1)"/><use xlink:href="#ai" transform="matrix(1,0,0,1,675.2590418673807,791.8252775232772) translate(0 17.1)"/><use xlink:href="#s" transform="matrix(1,0,0,1,818.2307281345253,791.8252775232772) translate(0 17.1)"/><use xlink:href="#aj" transform="matrix(1,0,0,1,675.2590418673807,823.8252775232772) translate(0 17.1)"/><use xlink:href="#s" transform="matrix(1,0,0,1,818.2307281345253,823.8252775232772) translate(0 17.1)"/><use xlink:href="#D" transform="matrix(1,0,0,1,675.2590418673807,855.8252775232772) translate(0 17.099999999999998)"/><use xlink:href="#u" transform="matrix(1,0,0,1,818.2307281345253,855.8252775232772) translate(0 17.1)"/><use xlink:href="#X" transform="matrix(1,0,0,1,675.2590418673807,887.8252775232772) translate(0 17.1)"/><use xlink:href="#u" transform="matrix(1,0,0,1,818.2307281345253,887.8252775232772) translate(0 17.1)"/><use xlink:href="#Z" transform="matrix(1,0,0,1,675.2590418673807,919.8252775232772) translate(0 17.1)"/><use xlink:href="#x" transform="matrix(1,0,0,1,818.2307281345253,919.8252775232772) translate(0 17.1)"/><path d="M1021.5 165c0-2.76 2.24-5 5-5h332.54c2.77 0 5 2.24 5 5v254c0 2.76-2.23 5-5 5H1026.5c-2.76 0-5-2.24-5-5z" fill="#fff"/><path d="M1021.5 160h342.54v40H1021.5z" fill="#ccc"/><path d="M1021.5 165c0-2.76 2.24-5 5-5h332.54c2.77 0 5 2.24 5 5v254c0 2.76-2.23 5-5 5H1026.5c-2.76 0-5-2.24-5-5zM1021.5 200h342.54M1081.5 200v224M1222.77 200v224" stroke="#000" fill="none"/><use xlink:href="#ak" transform="matrix(1,0,0,1,1031.5,160) translate(0 23.6)"/><use xlink:href="#l" transform="matrix(1,0,0,1,1026.5,202.5) translate(0 17.1)"/><use xlink:href="#m" transform="matrix(1,0,0,1,1086.5,202.5) translate(0 17.1)"/><use xlink:href="#n" transform="matrix(1,0,0,1,1227.7722371919742,202.5) translate(0 17.1)"/><use xlink:href="#o" transform="matrix(1,0,0,1,1026.5,234.5) translate(0 17.1)"/><use xlink:href="#p" transform="matrix(1,0,0,1,1086.5,234.5) translate(0 17.1)"/><use xlink:href="#n" transform="matrix(1,0,0,1,1227.7722371919742,234.5) translate(0 17.1)"/><use xlink:href="#o" transform="matrix(1,0,0,1,1026.5,266.5) translate(0 17.1)"/><use xlink:href="#al" transform="matrix(1,0,0,1,1086.5,266.5) translate(0 17.1)"/><use xlink:href="#n" transform="matrix(1,0,0,1,1227.7722371919742,266.5) translate(0 17.1)"/><use xlink:href="#am" transform="matrix(1,0,0,1,1086.5,298.5) translate(0 17.1)"/><use xlink:href="#s" transform="matrix(1,0,0,1,1227.7722371919742,298.5) translate(0 17.1)"/><use xlink:href="#t" transform="matrix(1,0,0,1,1086.5,330.5) translate(0 17.1)"/><use xlink:href="#u" transform="matrix(1,0,0,1,1227.7722371919742,330.5) translate(0 17.1)"/><use xlink:href="#v" transform="matrix(1,0,0,1,1086.5,362.5) translate(0 17.1)"/><use xlink:href="#u" transform="matrix(1,0,0,1,1227.7722371919742,362.5) translate(0 17.1)"/><use xlink:href="#w" transform="matrix(1,0,0,1,1086.5,394.5) translate(0 17.1)"/><use xlink:href="#x" transform="matrix(1,0,0,1,1227.7722371919742,394.5) translate(0 17.1)"/><path d="M645.13 983.84c0-2.76 2.24-5 5-5H941.6c2.75 0 5 2.24 5 5v222c0 2.76-2.25 5-5 5H650.12c-2.76 0-5-2.24-5-5z" fill="#fff"/><path d="M645.13 978.84H946.6v40H645.12z" fill="#ccc"/><path d="M645.13 983.84c0-2.76 2.24-5 5-5H941.6c2.75 0 5 2.24 5 5v222c0 2.76-2.25 5-5 5H650.12c-2.76 0-5-2.24-5-5zM645.13 1018.84H946.6M692.62 1018.84v192M836.84 1018.84v192" stroke="#000" fill="none"/><use xlink:href="#an" transform="matrix(1,0,0,1,655.1334231518452,978.8379158232394) translate(0 23.6)"/><use xlink:href="#l" transform="matrix(1,0,0,1,650.1334231518452,1021.3379158232394) translate(0 17.1)"/><use xlink:href="#m" transform="matrix(1,0,0,1,697.6217168109422,1021.3379158232394) translate(0 17.1)"/><use xlink:href="#n" transform="matrix(1,0,0,1,841.8435065014697,1021.3379158232394) translate(0 17.1)"/><use xlink:href="#o" transform="matrix(1,0,0,1,650.1334231518452,1053.3379158232394) translate(0 17.1)"/><use xlink:href="#ao" transform="matrix(1,0,0,1,697.6217168109422,1053.3379158232394) translate(0 17.1)"/><use xlink:href="#n" transform="matrix(1,0,0,1,841.8435065014697,1053.3379158232394) translate(0 17.1)"/><use xlink:href="#o" transform="matrix(1,0,0,1,650.1334231518452,1085.3379158232394) translate(0 17.1)"/><use xlink:href="#ap" transform="matrix(1,0,0,1,697.6217168109422,1085.3379158232394) translate(0 17.1)"/><use xlink:href="#n" transform="matrix(1,0,0,1,841.8435065014697,1085.3379158232394) translate(0 17.1)"/><use xlink:href="#t" transform="matrix(1,0,0,1,697.6217168109422,1117.3379158232394) translate(0 17.1)"/><use xlink:href="#u" transform="matrix(1,0,0,1,841.8435065014697,1117.3379158232394) translate(0 17.1)"/><use xlink:href="#v" transform="matrix(1,0,0,1,697.6217168109422,1149.3379158232394) translate(0 17.1)"/><use xlink:href="#u" transform="matrix(1,0,0,1,841.8435065014697,1149.3379158232394) translate(0 17.1)"/><use xlink:href="#aq" transform="matrix(1,0,0,1,697.6217168109422,1181.3379158232394) translate(0 17.1)"/><use xlink:href="#x" transform="matrix(1,0,0,1,841.8435065014697,1181.3379158232394) translate(0 17.1)"/><path d="M201 296h-28c-6.63 0-12 5.37-12 12v488c0 6.63 5.37 12 12 12h8" stroke="#834187" stroke-width="2" fill="none"/><path d="M211 286v20M221 296h-20M201 286v20M200.55 818l-20-10 20-10M200.55 808h-20M180.55 798v20" stroke="#834187" stroke-width="2" fill="#fff"/><path d="M564.54 616h6.23c6.63 0 12 5.37 12 12v80.55" stroke="#ef8d22" stroke-width="2" fill="none"/><path d="M554.54 626v-20M544.54 616h20M564.54 626v-20M611.2 699.13l-.4 20M621 709.33l-20-.4M601 708.72c0 5.52-4.47 10-10 10-5.52 0-10-4.48-10-10s4.48-10 10-10c5.53 0 10 4.48 10 10" stroke="#ef8d22" stroke-width="2" fill="#fff"/><path d="M942.36 709.33h7.32c6.63 0 12-5.38 12-12V580c0-6.63 5.37-12 12-12H981" stroke="#a3d977" stroke-width="2" fill="none"/><path d="M932.36 719.33v-20M922.36 709.33h20M942.36 719.33v-20M1000.55 578l-20-10 20-10M1000.55 568h-20M980.55 558v20" stroke="#a3d977" stroke-width="2" fill="#fff"/><path d="M1323.46 600h7.52c6.2 0 11.25-5.04 11.25-11.25 0-6.2 5.03-11.25 11.25-11.25h7.52" stroke="#c92d39" stroke-width="2" fill="none"/><path d="M1303.9 590l20 10-20 10M1303.9 600h20M1323.9 610v-20M1371 567.5v20M1381 577.5h-20M1361 567.5v20" stroke="#c92d39" stroke-width="2" fill="#fff"/><path d="M1001 248h-17.32c-6.63 0-12 5.37-12 12v437.33c0 6.62-5.37 12-12 12h-17.32" stroke="#834187" stroke-width="2" fill="none"/><path d="M1020.55 258l-20-10 20-10M1020.55 248h-20M1000.55 238v20M932.36 719.33v-20M922.36 709.33h20M942.36 719.33v-20" stroke="#834187" stroke-width="2" fill="#fff"/><path d="M1001 280h-28c-6.63 0-12 5.37-12 12v232c0 6.63 5.37 12 12 12h8" stroke="#3aa6dd" stroke-width="2" fill="none"/><path d="M1020.55 290l-20-10 20-10M1020.55 280h-20M1000.55 270v20M991 526v20M1001 536h-20M981 526v20" stroke="#3aa6dd" stroke-width="2" fill="#fff"/><path d="M624.63 1066.84H606.6c-6.64 0-12-5.37-12-12V628c0-6.63-5.38-12-12-12h-18.06" stroke="#834187" stroke-width="2" fill="none"/><path d="M644.2 1076.84l-20-10 20-10M644.2 1066.84h-20M624.2 1056.84v20M554.54 626v-20M544.54 616h20M564.54 626v-20" stroke="#834187" stroke-width="2" fill="#fff"/><path d="M967.1 1098.84c3.83 0 6.94-3.12 6.94-6.96V962.96c0-3.85 3.12-6.96 6.96-6.96" stroke="#19967d" stroke-width="2" fill="none"/><path d="M947.54 1088.84l20 10-20 10M947.54 1098.84h20M967.54 1108.84v-20M991 946v20M1001 956h-20M981 946v20" stroke="#19967d" stroke-width="2" fill="#fff"/><path d="M1381.5 905c0-2.76 2.24-5 5-5h290.36c2.77 0 5 2.24 5 5v190c0 2.76-2.23 5-5 5H1386.5c-2.76 0-5-2.24-5-5z" fill="#fff"/><path d="M1381.5 900h300.36v40H1381.5z" fill="#ccc"/><path d="M1381.5 905c0-2.76 2.24-5 5-5h290.36c2.77 0 5 2.24 5 5v190c0 2.76-2.23 5-5 5H1386.5c-2.76 0-5-2.24-5-5zM1381.5 940h300.36M1429.5 940v160M1576.94 940v160" stroke="#000" fill="none"/><use xlink:href="#ar" transform="matrix(1,0,0,1,1391.5,900) translate(0 23.6)"/><use xlink:href="#l" transform="matrix(1,0,0,1,1386.5,942.5) translate(0 17.1)"/><use xlink:href="#m" transform="matrix(1,0,0,1,1434.4999839726825,942.5) translate(0 17.1)"/><use xlink:href="#n" transform="matrix(1,0,0,1,1581.9373523062402,942.5) translate(0 17.1)"/><use xlink:href="#ab" transform="matrix(1,0,0,1,1434.4999839726825,974.5) translate(0 17.1)"/><use xlink:href="#s" transform="matrix(1,0,0,1,1581.9373523062402,974.5) translate(0 17.1)"/><use xlink:href="#t" transform="matrix(1,0,0,1,1434.4999839726825,1006.5) translate(0 17.1)"/><use xlink:href="#u" transform="matrix(1,0,0,1,1581.9373523062402,1006.5) translate(0 17.1)"/><use xlink:href="#v" transform="matrix(1,0,0,1,1434.4999839726825,1038.5) translate(0 17.1)"/><use xlink:href="#u" transform="matrix(1,0,0,1,1581.9373523062402,1038.5) translate(0 17.1)"/><use xlink:href="#aq" transform="matrix(1,0,0,1,1434.4999839726825,1070.5) translate(0 17.1)"/><use xlink:href="#R" transform="matrix(1,0,0,1,1581.9373523062402,1070.5) translate(0 17.1)"/><path d="M1361 609.5c-5.25 0-9.5 4.25-9.5 9.5v327.5c0 5.25-4.25 9.5-9.5 9.5" stroke="#fcc438" stroke-width="2" fill="none"/><path d="M1380.55 619.5l-20-10 20-10M1380.55 609.5h-20M1360.55 599.5v20M1332 966v-20M1322 956h20M1342 966v-20" stroke="#fcc438" stroke-width="2" fill="#fff"/><path d="M1361 641.5h-8c-6.63 0-12 5.37-12 12V944c0 6.63 5.37 12 12 12h8" stroke="#0c7cba" stroke-width="2" fill="none"/><path d="M1380.55 651.5l-20-10 20-10M1380.55 641.5h-20M1360.55 631.5v20M1371 946v20M1381 956h-20M1361 946v20" stroke="#0c7cba" stroke-width="2" fill="#fff"/><path d="M961.36 709.33c.18 0 .32.14.32.3V944c0 6.63 5.37 12 12 12H981" stroke="#0c7cba" stroke-width="2" fill="none"/><path d="M932.36 719.33v-20M922.36 709.33h20M962.36 709.33c0 5.52-4.47 10-10 10-5.52 0-10-4.48-10-10 0-5.53 4.48-10 10-10 5.53 0 10 4.47 10 10M991 946v20M1001 956h-20M981 946v20" stroke="#0c7cba" stroke-width="2" fill="#fff"/><path d="M821.5 540h79" stroke="#834187" stroke-width="2" fill="none"/><path d="M811.5 550v-20M801.5 540h20M821.5 550v-20" stroke="#834187" stroke-width="2" fill="#fff"/><path d="M900.47 540h1.03" stroke="#834187" stroke-width="2" fill="none"/><path d="M801.5 580h79" stroke="#a3d977" stroke-width="2" fill="none"/><path d="M791.5 590v-20M781.5 580h20M801.5 590v-20" stroke="#a3d977" stroke-width="2" fill="#fff"/><path d="M880.47 580h1.03" stroke="#a3d977" stroke-width="2" fill="none"/><path d="M800.5 620h60" stroke="#0c7cba" stroke-width="2" fill="none"/><path d="M771.5 630v-20M761.5 620h20M801.5 620c0 5.52-4.48 10-10 10s-10-4.48-10-10 4.48-10 10-10 10 4.48 10 10" stroke="#0c7cba" stroke-width="2" fill="#fff"/><path d="M860.47 620h1.03" stroke="#0c7cba" stroke-width="2" fill="none"/><path d="M901.5 540.5v5.27m0 5.27v10.55m0 5.26v10.54m0 5.27v10.54m0 5.28v10.55m0 5.27v10.54m0 5.27v5.28l.4 3.12 1.2 2.88m4.4 4.4l2.9 1.2 3.1.4h4.64m4.65 0h9.28m4.64 0h9.3m4.63 0h4.65M901.5 540.5v-.5" stroke="#000" fill="none"/><path d="M970.06 647.38l-14.26 4.64v-9.27z" stroke="#000" fill="#fff"/><path d="M881.5 580.5v4.6m0 4.6v9.2m0 4.62v9.2m0 4.6v9.2m0 4.62v9.2m0 4.6v4.6l.4 3.13 1.2 2.87m4.4 4.4l2.9 1.2 3.1.4h5.76m5.75 0h11.52m5.76 0h11.5m5.76 0h5.76M881.5 580.5v-.5" stroke="#000" fill="none"/><path d="M960.06 661.55l-14.26 4.64v-9.28z" stroke="#000" fill="#fff"/><path d="M861.5 620.5v4.83m0 4.82v9.65m0 4.83v9.65m0 4.82v9.65m0 4.83v9.65m0 4.82v9.65m0 4.83v9.65m0 4.82v4.83l.4 3.1 1.2 2.9m4.4 4.4l2.9 1.2 3.1.4h4.8m4.77 0h9.58m4.78 0H907m4.8 0h9.57m4.78 0h9.57m4.8 0h4.78M861.5 620.5v-.5" stroke="#000" fill="none"/><path d="M960.06 733.83l-14.26 4.63v-9.27z" stroke="#000" fill="#fff"/><path d="M101 985c0-2.76 2.24-5 5-5h230c2.76 0 5 2.24 5 5v190c0 2.76-2.24 5-5 5H106c-2.76 0-5-2.24-5-5z" fill="#fff"/><path d="M101 980h240v40H101z" fill="#ccc"/><path d="M101 985c0-2.76 2.24-5 5-5h230c2.76 0 5 2.24 5 5v190c0 2.76-2.24 5-5 5H106c-2.76 0-5-2.24-5-5zM101 1020h240M145.46 1020v160M247.7 1020v160" stroke="#000" stroke-width="2" fill="none"/><use xlink:href="#as" transform="matrix(1,0,0,1,111,980) translate(0 23.6)"/><use xlink:href="#at" transform="matrix(1,0,0,1,106,1022.5) translate(0 17.1)"/><use xlink:href="#au" transform="matrix(1,0,0,1,150.4550380660665,1022.5) translate(0 17.1)"/><use xlink:href="#N" transform="matrix(1,0,0,1,252.68956314630464,1022.5) translate(0 17.1)"/><use xlink:href="#av" transform="matrix(1,0,0,1,150.4550380660665,1054.5) translate(0 17.1)"/><use xlink:href="#K" transform="matrix(1,0,0,1,252.68956314630464,1054.5) translate(0 17.1)"/><use xlink:href="#aw" transform="matrix(1,0,0,1,150.4550380660665,1086.5) translate(0 17.1)"/><use xlink:href="#K" transform="matrix(1,0,0,1,252.68956314630464,1086.5) translate(0 17.1)"/><use xlink:href="#ax" transform="matrix(1,0,0,1,150.4550380660665,1118.5) translate(0 17.1)"/><use xlink:href="#N" transform="matrix(1,0,0,1,252.68956314630464,1118.5) translate(0 17.1)"/><use xlink:href="#L" transform="matrix(1,0,0,1,106,1150.5) translate(0 17.1)"/><use xlink:href="#ay" transform="matrix(1,0,0,1,150.4550380660665,1150.5) translate(0 17.1)"/><use xlink:href="#N" transform="matrix(1,0,0,1,252.68956314630464,1150.5) translate(0 17.1)"/><path d="M101 1216.84c0-2.76 2.24-5 5-5h190c2.76 0 5 2.24 5 5v94c0 2.76-2.24 5-5 5H106c-2.76 0-5-2.24-5-5z" fill="#fff"/><path d="M101 1211.84h200v40H101z" fill="#ccc"/><path d="M101 1216.84c0-2.76 2.24-5 5-5h190c2.76 0 5 2.24 5 5v94c0 2.76-2.24 5-5 5H106c-2.76 0-5-2.24-5-5zM101 1251.84h200M161 1251.84v64M231 1251.84v64" stroke="#000" stroke-width="2" fill="none"/><use xlink:href="#az" transform="matrix(1,0,0,1,111,1211.837915823455) translate(0 23.6)"/><use xlink:href="#at" transform="matrix(1,0,0,1,106,1254.337915823455) translate(0 17.1)"/><use xlink:href="#au" transform="matrix(1,0,0,1,166,1254.337915823455) translate(0 17.1)"/><use xlink:href="#N" transform="matrix(1,0,0,1,236,1254.337915823455) translate(0 17.1)"/><use xlink:href="#av" transform="matrix(1,0,0,1,166,1286.337915823455) translate(0 17.1)"/><use xlink:href="#K" transform="matrix(1,0,0,1,236,1286.337915823455) translate(0 17.1)"/><path d="M201 456H83c-6.63 0-12 5.37-12 12v559c0 4.97 4.03 9 9 9" stroke="#ffdf71" stroke-width="2" fill="none"/><path d="M220.55 466l-20-10 20-10M220.55 456h-20M200.55 446v20M90 1026v20M100 1036H80M80 1026v20" stroke="#ffdf71" stroke-width="2" fill="#fff"/><path d="M80 1164h-8c-6.63 0-12 5.37-12 12v79.84c0 6.63 5.37 12 12 12h8" stroke="#0c7cba" stroke-width="2" fill="none"/><path d="M99.55 1174l-20-10 20-10M99.55 1164h-20M79.55 1154v20M90 1257.84v20M100 1267.84H80M80 1257.84v20" stroke="#0c7cba" stroke-width="2" fill="#fff"/><path d="M181 776.1H72c-6.63 0-12 5.38-12 12V1024c0 6.63 5.37 12 12 12h8" stroke="#7ab648" stroke-width="2" fill="none"/><path d="M200.55 786.1l-20-10 20-10M200.55 776.1h-20M180.55 766.1v20M90 1026v20M100 1036H80M80 1026v20" stroke="#7ab648" stroke-width="2" fill="#fff"/><path d="M981 1116.16c-5.52 0-10 4.48-10 10V1218c0 6.63-5.37 12-12 12H383c-6.63 0-12-5.37-12-12v-173c0-4.97-4.03-9-9-9" stroke="#0c7cba" stroke-width="2" fill="none"/><path d="M1000.55 1126.16l-20-10 20-10M1000.55 1116.16h-20M980.55 1106.16v20M352 1046v-20M342 1036h20M362 1046v-20" stroke="#0c7cba" stroke-width="2" fill="#fff"/><defs><path fill="#b2b2b2" d="M169-182c-1-43-94-46-97-3 18 66 151 10 154 114 3 95-165 93-204 36-6-8-10-19-12-30l50-8c3 46 112 56 116 5-17-69-150-10-154-114-4-87 153-88 188-35 5 8 8 18 10 28" id="aA"/><path fill="#b2b2b2" d="M136-208V0H84v-208H4v-40h212v40h-80" id="aB"/><path fill="#b2b2b2" d="M238-95c0 69-44 99-111 99C63 4 22-25 22-93v-155h51v151c-1 38 19 59 55 60 90 1 49-130 58-211h52v153" id="aC"/><path fill="#b2b2b2" d="M24-248c120-7 223 5 221 122C244-46 201 0 124 0H24v-248zM76-40c74 7 117-18 117-86 0-67-45-88-117-82v168" id="aD"/><path fill="#b2b2b2" d="M24 0v-248h195v40H76v63h132v40H76v65h150V0H24" id="aE"/><path fill="#b2b2b2" d="M175 0L67-191c6 58 2 128 3 191H24v-248h59L193-55c-6-58-2-129-3-193h46V0h-61" id="aF"/><g id="a"><use transform="matrix(0.07407407407407408,0,0,0.07407407407407408,0,0)" xlink:href="#aA"/><use transform="matrix(0.07407407407407408,0,0,0.07407407407407408,17.77777777777778,0)" xlink:href="#aB"/><use transform="matrix(0.07407407407407408,0,0,0.07407407407407408,34,0)" xlink:href="#aC"/><use transform="matrix(0.07407407407407408,0,0,0.07407407407407408,53.18518518518519,0)" xlink:href="#aD"/><use transform="matrix(0.07407407407407408,0,0,0.07407407407407408,72.37037037037038,0)" xlink:href="#aE"/><use transform="matrix(0.07407407407407408,0,0,0.07407407407407408,90.14814814814817,0)" xlink:href="#aF"/><use transform="matrix(0.07407407407407408,0,0,0.07407407407407408,109.33333333333334,0)" xlink:href="#aB"/></g><path fill="#b2b2b2" d="M24-248c93 1 206-16 204 79-1 75-69 88-152 82V0H24v-248zm52 121c47 0 100 7 100-41 0-47-54-39-100-39v80" id="aG"/><path fill="#b2b2b2" d="M140-251c80 0 125 45 125 126S219 4 139 4C58 4 15-44 15-125s44-126 125-126zm-1 214c52 0 73-35 73-88 0-50-21-86-72-86-52 0-73 35-73 86s22 88 72 88" id="aH"/><path fill="#b2b2b2" d="M240-174c0 40-23 61-54 70L253 0h-59l-57-94H76V0H24v-248c93 4 217-23 216 74zM76-134c48-2 112 12 112-38 0-48-66-32-112-35v73" id="aI"/><path fill="#b2b2b2" d="M199 0l-22-63H83L61 0H9l90-248h61L250 0h-51zm-33-102l-36-108c-10 38-24 72-36 108h72" id="aJ"/><path fill="#b2b2b2" d="M24 0v-248h52v208h133V0H24" id="aK"/><g id="b"><use transform="matrix(0.07407407407407408,0,0,0.07407407407407408,0,0)" xlink:href="#aG"/><use transform="matrix(0.07407407407407408,0,0,0.07407407407407408,17.77777777777778,0)" xlink:href="#aH"/><use transform="matrix(0.07407407407407408,0,0,0.07407407407407408,38.51851851851851,0)" xlink:href="#aI"/><use transform="matrix(0.07407407407407408,0,0,0.07407407407407408,57.70370370370371,0)" xlink:href="#aB"/><use transform="matrix(0.07407407407407408,0,0,0.07407407407407408,71.92592592592594,0)" xlink:href="#aJ"/><use transform="matrix(0.07407407407407408,0,0,0.07407407407407408,91.11111111111113,0)" xlink:href="#aK"/></g><path fill="#b2b2b2" d="M182-130c37 4 62 22 62 59C244 23 116-4 24 0v-248c84 5 203-23 205 63 0 31-19 50-47 55zM76-148c40-3 101 13 101-30 0-44-60-28-101-31v61zm0 110c48-3 116 14 116-37 0-48-69-32-116-35v72" id="aL"/><g id="c"><use transform="matrix(0.07407407407407408,0,0,0.07407407407407408,0,0)" xlink:href="#aD"/><use transform="matrix(0.07407407407407408,0,0,0.07407407407407408,19.185185185185187,0)" xlink:href="#aJ"/><use transform="matrix(0.07407407407407408,0,0,0.07407407407407408,36.370370370370374,0)" xlink:href="#aB"/><use transform="matrix(0.07407407407407408,0,0,0.07407407407407408,50.5925925925926,0)" xlink:href="#aJ"/><use transform="matrix(0.07407407407407408,0,0,0.07407407407407408,69.77777777777779,0)" xlink:href="#aL"/><use transform="matrix(0.07407407407407408,0,0,0.07407407407407408,88.96296296296298,0)" xlink:href="#aJ"/><use transform="matrix(0.07407407407407408,0,0,0.07407407407407408,108.14814814814817,0)" xlink:href="#aA"/><use transform="matrix(0.07407407407407408,0,0,0.07407407407407408,125.92592592592597,0)" xlink:href="#aE"/></g><path fill="#b2b2b2" d="M205 0l-28-72H64L36 0H1l101-248h38L239 0h-34zm-38-99l-47-123c-12 45-31 82-46 123h93" id="aM"/><path fill="#b2b2b2" d="M117-194c89-4 53 116 60 194h-32v-121c0-31-8-49-39-48C34-167 62-67 57 0H25l-1-190h30c1 10-1 24 2 32 11-22 29-35 61-36" id="aN"/><path fill="#b2b2b2" d="M59-47c-2 24 18 29 38 22v24C64 9 27 4 27-40v-127H5v-23h24l9-43h21v43h35v23H59v120" id="aO"/><path fill="#b2b2b2" d="M106-169C34-169 62-67 57 0H25v-261h32l-1 103c12-21 28-36 61-36 89 0 53 116 60 194h-32v-121c2-32-8-49-39-48" id="aP"/><path fill="#b2b2b2" d="M100-194c62-1 85 37 85 99 1 63-27 99-86 99S16-35 15-95c0-66 28-99 85-99zM99-20c44 1 53-31 53-75 0-43-8-75-51-75s-53 32-53 75 10 74 51 75" id="aQ"/><path fill="#b2b2b2" d="M179-190L93 31C79 59 56 82 12 73V49c39 6 53-20 64-50L1-190h34L92-34l54-156h33" id="aR"/><g id="d"><use transform="matrix(0.04320987654320988,0,0,0.04320987654320988,0,0)" xlink:href="#aM"/><use transform="matrix(0.04320987654320988,0,0,0.04320987654320988,10.370370370370372,0)" xlink:href="#aN"/><use transform="matrix(0.04320987654320988,0,0,0.04320987654320988,19.01234567901235,0)" xlink:href="#aO"/><use transform="matrix(0.04320987654320988,0,0,0.04320987654320988,23.333333333333336,0)" xlink:href="#aP"/><use transform="matrix(0.04320987654320988,0,0,0.04320987654320988,31.97530864197531,0)" xlink:href="#aQ"/><use transform="matrix(0.04320987654320988,0,0,0.04320987654320988,40.617283950617285,0)" xlink:href="#aN"/><use transform="matrix(0.04320987654320988,0,0,0.04320987654320988,49.25925925925925,0)" xlink:href="#aR"/></g><path fill="#b2b2b2" d="M153-248C145-148 188 4 80 4 36 3 13-21 6-62l32-5c4 25 16 42 43 43 27 0 39-20 39-49v-147H72v-28h81" id="aS"/><path fill="#b2b2b2" d="M141-36C126-15 110 5 73 4 37 3 15-17 15-53c-1-64 63-63 125-63 3-35-9-54-41-54-24 1-41 7-42 31l-33-3c5-37 33-52 76-52 45 0 72 20 72 64v82c-1 20 7 32 28 27v20c-31 9-61-2-59-35zM48-53c0 20 12 33 32 33 41-3 63-29 60-74-43 2-92-5-92 41" id="aT"/><g id="e"><use transform="matrix(0.04320987654320988,0,0,0.04320987654320988,0,0)" xlink:href="#aS"/><use transform="matrix(0.04320987654320988,0,0,0.04320987654320988,7.777777777777779,0)" xlink:href="#aT"/><use transform="matrix(0.04320987654320988,0,0,0.04320987654320988,16.419753086419753,0)" xlink:href="#aR"/></g><path fill="#b2b2b2" d="M135-143c-3-34-86-38-87 0 15 53 115 12 119 90S17 21 10-45l28-5c4 36 97 45 98 0-10-56-113-15-118-90-4-57 82-63 122-42 12 7 21 19 24 35" id="aU"/><path fill="#b2b2b2" d="M24-231v-30h32v30H24zM24 0v-190h32V0H24" id="aV"/><g id="f"><use transform="matrix(0.04320987654320988,0,0,0.04320987654320988,0,0)" xlink:href="#aM"/><use transform="matrix(0.04320987654320988,0,0,0.04320987654320988,10.370370370370372,0)" xlink:href="#aN"/><use transform="matrix(0.04320987654320988,0,0,0.04320987654320988,19.01234567901235,0)" xlink:href="#aU"/><use transform="matrix(0.04320987654320988,0,0,0.04320987654320988,26.790123456790127,0)" xlink:href="#aV"/><use transform="matrix(0.04320987654320988,0,0,0.04320987654320988,30.203703703703713,0)" xlink:href="#aO"/></g><path fill="#b2b2b2" d="M32 76v-337h29V76H32" id="aW"/><use transform="matrix(0.04320987654320988,0,0,0.04320987654320988,0,0)" xlink:href="#aW" id="g"/><path fill="#b2b2b2" d="M30-248c118-7 216 8 213 122C240-48 200 0 122 0H30v-248zM63-27c89 8 146-16 146-99s-60-101-146-95v194" id="aX"/><path fill="#b2b2b2" d="M100-194c63 0 86 42 84 106H49c0 40 14 67 53 68 26 1 43-12 49-29l28 8c-11 28-37 45-77 45C44 4 14-33 15-96c1-61 26-98 85-98zm52 81c6-60-76-77-97-28-3 7-6 17-6 28h103" id="aY"/><path fill="#b2b2b2" d="M96-169c-40 0-48 33-48 73s9 75 48 75c24 0 41-14 43-38l32 2c-6 37-31 61-74 61-59 0-76-41-82-99-10-93 101-131 147-64 4 7 5 14 7 22l-32 3c-4-21-16-35-41-35" id="aZ"/><path fill="#b2b2b2" d="M210-169c-67 3-38 105-44 169h-31v-121c0-29-5-50-35-48C34-165 62-65 56 0H25l-1-190h30c1 10-1 24 2 32 10-44 99-50 107 0 11-21 27-35 58-36 85-2 47 119 55 194h-31v-121c0-29-5-49-35-48" id="ba"/><path fill="#b2b2b2" d="M115-194c53 0 69 39 70 98 0 66-23 100-70 100C84 3 66-7 56-30L54 0H23l1-261h32v101c10-23 28-34 59-34zm-8 174c40 0 45-34 45-75 0-40-5-75-45-74-42 0-51 32-51 76 0 43 10 73 51 73" id="bb"/><path fill="#b2b2b2" d="M114-163C36-179 61-72 57 0H25l-1-190h30c1 12-1 29 2 39 6-27 23-49 58-41v29" id="bc"/><g id="h"><use transform="matrix(0.04320987654320988,0,0,0.04320987654320988,0,0)" xlink:href="#aX"/><use transform="matrix(0.04320987654320988,0,0,0.04320987654320988,11.19135802469136,0)" xlink:href="#aY"/><use transform="matrix(0.04320987654320988,0,0,0.04320987654320988,19.833333333333336,0)" xlink:href="#aZ"/><use transform="matrix(0.04320987654320988,0,0,0.04320987654320988,27.611111111111114,0)" xlink:href="#aY"/><use transform="matrix(0.04320987654320988,0,0,0.04320987654320988,36.25308641975309,0)" xlink:href="#ba"/><use transform="matrix(0.04320987654320988,0,0,0.04320987654320988,49.17283950617284,0)" xlink:href="#bb"/><use transform="matrix(0.04320987654320988,0,0,0.04320987654320988,57.814814814814824,0)" xlink:href="#aY"/><use transform="matrix(0.04320987654320988,0,0,0.04320987654320988,66.4567901234568,0)" xlink:href="#bc"/></g><path fill="#b2b2b2" d="M101-251c82-7 93 87 43 132L82-64C71-53 59-42 53-27h129V0H18c2-99 128-94 128-182 0-28-16-43-45-43s-46 15-49 41l-32-3c6-41 34-60 81-64" id="bd"/><path fill="#b2b2b2" d="M126-127c33 6 58 20 58 59 0 88-139 92-164 29-3-8-5-16-6-25l32-3c6 27 21 44 54 44 32 0 52-15 52-46 0-38-36-46-79-43v-28c39 1 72-4 72-42 0-27-17-43-46-43-28 0-47 15-49 41l-32-3c6-42 35-63 81-64 48-1 79 21 79 65 0 36-21 52-52 59" id="be"/><path fill="#b2b2b2" d="M68-38c1 34 0 65-14 84H32c9-13 17-26 17-46H33v-38h35" id="bf"/><g id="i"><use transform="matrix(0.04320987654320988,0,0,0.04320987654320988,0,0)" xlink:href="#bd"/><use transform="matrix(0.04320987654320988,0,0,0.04320987654320988,8.641975308641976,0)" xlink:href="#be"/><use transform="matrix(0.04320987654320988,0,0,0.04320987654320988,17.283950617283953,0)" xlink:href="#bf"/></g><path fill="#b2b2b2" d="M101-251c68 0 85 55 85 127S166 4 100 4C33 4 14-52 14-124c0-73 17-127 87-127zm-1 229c47 0 54-49 54-102s-4-102-53-102c-51 0-55 48-55 102 0 53 5 102 54 102" id="bg"/><g id="j"><use transform="matrix(0.04320987654320988,0,0,0.04320987654320988,0,0)" xlink:href="#bd"/><use transform="matrix(0.04320987654320988,0,0,0.04320987654320988,8.641975308641976,0)" xlink:href="#bg"/><use transform="matrix(0.04320987654320988,0,0,0.04320987654320988,17.283950617283953,0)" xlink:href="#bd"/><use transform="matrix(0.04320987654320988,0,0,0.04320987654320988,25.925925925925927,0)" xlink:href="#bg"/></g><path d="M205 0l-28-72H64L36 0H1l101-248h38L239 0h-34zm-38-99l-47-123c-12 45-31 82-46 123h93" id="bh"/><path d="M114-163C36-179 61-72 57 0H25l-1-190h30c1 12-1 29 2 39 6-27 23-49 58-41v29" id="bi"/><path d="M59-47c-2 24 18 29 38 22v24C64 9 27 4 27-40v-127H5v-23h24l9-43h21v43h35v23H59v120" id="bj"/><path d="M24-231v-30h32v30H24zM24 0v-190h32V0H24" id="bk"/><path d="M96-169c-40 0-48 33-48 73s9 75 48 75c24 0 41-14 43-38l32 2c-6 37-31 61-74 61-59 0-76-41-82-99-10-93 101-131 147-64 4 7 5 14 7 22l-32 3c-4-21-16-35-41-35" id="bl"/><path d="M24 0v-261h32V0H24" id="bm"/><path d="M100-194c63 0 86 42 84 106H49c0 40 14 67 53 68 26 1 43-12 49-29l28 8c-11 28-37 45-77 45C44 4 14-33 15-96c1-61 26-98 85-98zm52 81c6-60-76-77-97-28-3 7-6 17-6 28h103" id="bn"/><path d="M135-143c-3-34-86-38-87 0 15 53 115 12 119 90S17 21 10-45l28-5c4 36 97 45 98 0-10-56-113-15-118-90-4-57 82-63 122-42 12 7 21 19 24 35" id="bo"/><path d="M-5 72V49h209v23H-5" id="bp"/><path d="M117-194c89-4 53 116 60 194h-32v-121c0-31-8-49-39-48C34-167 62-67 57 0H25l-1-190h30c1 10-1 24 2 32 11-22 29-35 61-36" id="bq"/><path d="M177-190C167-65 218 103 67 71c-23-6-38-20-44-43l32-5c15 47 100 32 89-28v-30C133-14 115 1 83 1 29 1 15-40 15-95c0-56 16-97 71-98 29-1 48 16 59 35 1-10 0-23 2-32h30zM94-22c36 0 50-32 50-73 0-42-14-75-50-75-39 0-46 34-46 75s6 73 46 73" id="br"/><path d="M141-36C126-15 110 5 73 4 37 3 15-17 15-53c-1-64 63-63 125-63 3-35-9-54-41-54-24 1-41 7-42 31l-33-3c5-37 33-52 76-52 45 0 72 20 72 64v82c-1 20 7 32 28 27v20c-31 9-61-2-59-35zM48-53c0 20 12 33 32 33 41-3 63-29 60-74-43 2-92-5-92 41" id="bs"/><path d="M210-169c-67 3-38 105-44 169h-31v-121c0-29-5-50-35-48C34-165 62-65 56 0H25l-1-190h30c1 10-1 24 2 32 10-44 99-50 107 0 11-21 27-35 58-36 85-2 47 119 55 194h-31v-121c0-29-5-49-35-48" id="bt"/><g id="k"><use transform="matrix(0.05,0,0,0.05,0,0)" xlink:href="#bh"/><use transform="matrix(0.05,0,0,0.05,12,0)" xlink:href="#bi"/><use transform="matrix(0.05,0,0,0.05,17.95,0)" xlink:href="#bj"/><use transform="matrix(0.05,0,0,0.05,22.95,0)" xlink:href="#bk"/><use transform="matrix(0.05,0,0,0.05,26.899999999999995,0)" xlink:href="#bl"/><use transform="matrix(0.05,0,0,0.05,35.9,0)" xlink:href="#bm"/><use transform="matrix(0.05,0,0,0.05,39.85,0)" xlink:href="#bn"/><use transform="matrix(0.05,0,0,0.05,49.85,0)" xlink:href="#bo"/><use transform="matrix(0.05,0,0,0.05,58.85,0)" xlink:href="#bp"/><use transform="matrix(0.05,0,0,0.05,68.85,0)" xlink:href="#bn"/><use transform="matrix(0.05,0,0,0.05,78.85,0)" xlink:href="#bq"/><use transform="matrix(0.05,0,0,0.05,88.85,0)" xlink:href="#br"/><use transform="matrix(0.05,0,0,0.05,98.85,0)" xlink:href="#bs"/><use transform="matrix(0.05,0,0,0.05,108.84999999999998,0)" xlink:href="#br"/><use transform="matrix(0.05,0,0,0.05,118.84999999999998,0)" xlink:href="#bn"/><use transform="matrix(0.05,0,0,0.05,128.85,0)" xlink:href="#bt"/><use transform="matrix(0.05,0,0,0.05,143.79999999999998,0)" xlink:href="#bn"/><use transform="matrix(0.05,0,0,0.05,153.79999999999998,0)" xlink:href="#bq"/><use transform="matrix(0.05,0,0,0.05,163.79999999999998,0)" xlink:href="#bj"/></g><path d="M24-248c93 1 206-16 204 79-1 75-69 88-152 82V0H24v-248zm52 121c47 0 100 7 100-41 0-47-54-39-100-39v80" id="bu"/><path d="M195 0l-88-114-31 24V0H24v-248h52v113l112-113h60L142-143 257 0h-62" id="bv"/><g id="l"><use transform="matrix(0.05,0,0,0.05,0,0)" xlink:href="#bu"/><use transform="matrix(0.05,0,0,0.05,12,0)" xlink:href="#bv"/></g><path d="M85-194c31 0 48 13 60 33l-1-100h32l1 261h-30c-2-10 0-23-3-31C134-8 116 4 85 4 32 4 16-35 15-94c0-66 23-100 70-100zm9 24c-40 0-46 34-46 75 0 40 6 74 45 74 42 0 51-32 51-76 0-42-9-74-50-73" id="bw"/><g id="m"><use transform="matrix(0.05,0,0,0.05,0,0)" xlink:href="#bk"/><use transform="matrix(0.05,0,0,0.05,3.95,0)" xlink:href="#bw"/></g><g id="n"><use transform="matrix(0.05,0,0,0.05,0,0)" xlink:href="#bk"/><use transform="matrix(0.05,0,0,0.05,3.95,0)" xlink:href="#bq"/><use transform="matrix(0.05,0,0,0.05,13.949999999999998,0)" xlink:href="#bj"/></g><path d="M76-208v77h127v40H76V0H24v-248h183v40H76" id="bx"/><g id="o"><use transform="matrix(0.05,0,0,0.05,0,0)" xlink:href="#bx"/><use transform="matrix(0.05,0,0,0.05,10.950000000000001,0)" xlink:href="#bv"/></g><path d="M84 4C-5 8 30-112 23-190h32v120c0 31 7 50 39 49 72-2 45-101 50-169h31l1 190h-30c-1-10 1-25-2-33-11 22-28 36-60 37" id="by"/><g id="p"><use transform="matrix(0.05,0,0,0.05,0,0)" xlink:href="#by"/><use transform="matrix(0.05,0,0,0.05,10,0)" xlink:href="#bo"/><use transform="matrix(0.05,0,0,0.05,19,0)" xlink:href="#bn"/><use transform="matrix(0.05,0,0,0.05,29,0)" xlink:href="#bi"/><use transform="matrix(0.05,0,0,0.05,34.95,0)" xlink:href="#bp"/><use transform="matrix(0.05,0,0,0.05,44.95,0)" xlink:href="#bk"/><use transform="matrix(0.05,0,0,0.05,48.900000000000006,0)" xlink:href="#bw"/></g><g id="q"><use transform="matrix(0.05,0,0,0.05,0,0)" xlink:href="#bs"/><use transform="matrix(0.05,0,0,0.05,10,0)" xlink:href="#bi"/><use transform="matrix(0.05,0,0,0.05,15.949999999999998,0)" xlink:href="#bj"/><use transform="matrix(0.05,0,0,0.05,20.95,0)" xlink:href="#bk"/><use transform="matrix(0.05,0,0,0.05,24.9,0)" xlink:href="#bl"/><use transform="matrix(0.05,0,0,0.05,33.9,0)" xlink:href="#bm"/><use transform="matrix(0.05,0,0,0.05,37.85,0)" xlink:href="#bn"/><use transform="matrix(0.05,0,0,0.05,47.85,0)" xlink:href="#bp"/><use transform="matrix(0.05,0,0,0.05,57.85,0)" xlink:href="#bk"/><use transform="matrix(0.05,0,0,0.05,61.800000000000004,0)" xlink:href="#bw"/></g><path d="M100-194c62-1 85 37 85 99 1 63-27 99-86 99S16-35 15-95c0-66 28-99 85-99zM99-20c44 1 53-31 53-75 0-43-8-75-51-75s-53 32-53 75 10 74 51 75" id="bz"/><g id="r"><use transform="matrix(0.05,0,0,0.05,0,0)" xlink:href="#bl"/><use transform="matrix(0.05,0,0,0.05,9,0)" xlink:href="#bz"/><use transform="matrix(0.05,0,0,0.05,19,0)" xlink:href="#bt"/><use transform="matrix(0.05,0,0,0.05,33.95,0)" xlink:href="#bt"/><use transform="matrix(0.05,0,0,0.05,48.900000000000006,0)" xlink:href="#bn"/><use transform="matrix(0.05,0,0,0.05,58.900000000000006,0)" xlink:href="#bq"/><use transform="matrix(0.05,0,0,0.05,68.9,0)" xlink:href="#bj"/></g><path d="M108 0H70L1-190h34L89-25l56-165h34" id="bA"/><path d="M106-169C34-169 62-67 57 0H25v-261h32l-1 103c12-21 28-36 61-36 89 0 53 116 60 194h-32v-121c2-32-8-49-39-48" id="bB"/><g id="s"><use transform="matrix(0.05,0,0,0.05,0,0)" xlink:href="#bA"/><use transform="matrix(0.05,0,0,0.05,9,0)" xlink:href="#bs"/><use transform="matrix(0.05,0,0,0.05,19,0)" xlink:href="#bi"/><use transform="matrix(0.05,0,0,0.05,24.95,0)" xlink:href="#bl"/><use transform="matrix(0.05,0,0,0.05,33.95,0)" xlink:href="#bB"/><use transform="matrix(0.05,0,0,0.05,43.95,0)" xlink:href="#bs"/><use transform="matrix(0.05,0,0,0.05,53.95,0)" xlink:href="#bi"/></g><path d="M101-234c-31-9-42 10-38 44h38v23H63V0H32v-167H5v-23h27c-7-52 17-82 69-68v24" id="bC"/><g id="t"><use transform="matrix(0.05,0,0,0.05,0,0)" xlink:href="#bt"/><use transform="matrix(0.05,0,0,0.05,14.950000000000001,0)" xlink:href="#bz"/><use transform="matrix(0.05,0,0,0.05,24.950000000000003,0)" xlink:href="#bw"/><use transform="matrix(0.05,0,0,0.05,34.95,0)" xlink:href="#bk"/><use transform="matrix(0.05,0,0,0.05,38.900000000000006,0)" xlink:href="#bC"/><use transform="matrix(0.05,0,0,0.05,43.900000000000006,0)" xlink:href="#bk"/><use transform="matrix(0.05,0,0,0.05,47.85000000000001,0)" xlink:href="#bn"/><use transform="matrix(0.05,0,0,0.05,57.85,0)" xlink:href="#bw"/><use transform="matrix(0.05,0,0,0.05,67.85000000000001,0)" xlink:href="#bp"/><use transform="matrix(0.05,0,0,0.05,77.85000000000001,0)" xlink:href="#bs"/><use transform="matrix(0.05,0,0,0.05,87.85000000000001,0)" xlink:href="#bj"/></g><path d="M115-194c55 1 70 41 70 98S169 2 115 4C84 4 66-9 55-30l1 105H24l-1-265h31l2 30c10-21 28-34 59-34zm-8 174c40 0 45-34 45-75s-6-73-45-74c-42 0-51 32-51 76 0 43 10 73 51 73" id="bD"/><g id="u"><use transform="matrix(0.05,0,0,0.05,0,0)" xlink:href="#bj"/><use transform="matrix(0.05,0,0,0.05,5,0)" xlink:href="#bk"/><use transform="matrix(0.05,0,0,0.05,8.95,0)" xlink:href="#bt"/><use transform="matrix(0.05,0,0,0.05,23.9,0)" xlink:href="#bn"/><use transform="matrix(0.05,0,0,0.05,33.9,0)" xlink:href="#bp"/><use transform="matrix(0.05,0,0,0.05,43.9,0)" xlink:href="#bo"/><use transform="matrix(0.05,0,0,0.05,52.900000000000006,0)" xlink:href="#bj"/><use transform="matrix(0.05,0,0,0.05,57.900000000000006,0)" xlink:href="#bs"/><use transform="matrix(0.05,0,0,0.05,67.9,0)" xlink:href="#bt"/><use transform="matrix(0.05,0,0,0.05,82.85000000000001,0)" xlink:href="#bD"/></g><g id="v"><use transform="matrix(0.05,0,0,0.05,0,0)" xlink:href="#bl"/><use transform="matrix(0.05,0,0,0.05,9,0)" xlink:href="#bi"/><use transform="matrix(0.05,0,0,0.05,14.949999999999998,0)" xlink:href="#bn"/><use transform="matrix(0.05,0,0,0.05,24.95,0)" xlink:href="#bs"/><use transform="matrix(0.05,0,0,0.05,34.95,0)" xlink:href="#bj"/><use transform="matrix(0.05,0,0,0.05,39.95,0)" xlink:href="#bn"/><use transform="matrix(0.05,0,0,0.05,49.95,0)" xlink:href="#bw"/><use transform="matrix(0.05,0,0,0.05,59.95,0)" xlink:href="#bp"/><use transform="matrix(0.05,0,0,0.05,69.95,0)" xlink:href="#bs"/><use transform="matrix(0.05,0,0,0.05,79.95,0)" xlink:href="#bj"/></g><g id="w"><use transform="matrix(0.05,0,0,0.05,0,0)" xlink:href="#bk"/><use transform="matrix(0.05,0,0,0.05,3.95,0)" xlink:href="#bo"/><use transform="matrix(0.05,0,0,0.05,12.949999999999998,0)" xlink:href="#bp"/><use transform="matrix(0.05,0,0,0.05,22.95,0)" xlink:href="#bs"/><use transform="matrix(0.05,0,0,0.05,32.95,0)" xlink:href="#bl"/><use transform="matrix(0.05,0,0,0.05,41.95,0)" xlink:href="#bj"/><use transform="matrix(0.05,0,0,0.05,46.95,0)" xlink:href="#bk"/><use transform="matrix(0.05,0,0,0.05,50.900000000000006,0)" xlink:href="#bA"/><use transform="matrix(0.05,0,0,0.05,59.900000000000006,0)" xlink:href="#bn"/></g><path d="M115-194c53 0 69 39 70 98 0 66-23 100-70 100C84 3 66-7 56-30L54 0H23l1-261h32v101c10-23 28-34 59-34zm-8 174c40 0 45-34 45-75 0-40-5-75-45-74-42 0-51 32-51 76 0 43 10 73 51 73" id="bE"/><g id="x"><use transform="matrix(0.05,0,0,0.05,0,0)" xlink:href="#bE"/><use transform="matrix(0.05,0,0,0.05,10,0)" xlink:href="#bz"/><use transform="matrix(0.05,0,0,0.05,20,0)" xlink:href="#bz"/><use transform="matrix(0.05,0,0,0.05,30,0)" xlink:href="#bm"/><use transform="matrix(0.05,0,0,0.05,33.95,0)" xlink:href="#bn"/><use transform="matrix(0.05,0,0,0.05,43.95,0)" xlink:href="#bs"/><use transform="matrix(0.05,0,0,0.05,53.95,0)" xlink:href="#bq"/></g><g id="y"><use transform="matrix(0.05,0,0,0.05,0,0)" xlink:href="#bh"/><use transform="matrix(0.05,0,0,0.05,12,0)" xlink:href="#bi"/><use transform="matrix(0.05,0,0,0.05,17.95,0)" xlink:href="#bj"/><use transform="matrix(0.05,0,0,0.05,22.95,0)" xlink:href="#bk"/><use transform="matrix(0.05,0,0,0.05,26.899999999999995,0)" xlink:href="#bl"/><use transform="matrix(0.05,0,0,0.05,35.9,0)" xlink:href="#bm"/><use transform="matrix(0.05,0,0,0.05,39.85,0)" xlink:href="#bn"/><use transform="matrix(0.05,0,0,0.05,49.85,0)" xlink:href="#bo"/></g><g id="z"><use transform="matrix(0.04999999999999998,0,0,0.04999999999999998,0,0)" xlink:href="#bs"/><use transform="matrix(0.04999999999999998,0,0,0.04999999999999998,9.999999999999996,0)" xlink:href="#by"/><use transform="matrix(0.04999999999999998,0,0,0.04999999999999998,19.999999999999993,0)" xlink:href="#bj"/><use transform="matrix(0.04999999999999998,0,0,0.04999999999999998,24.999999999999993,0)" xlink:href="#bB"/><use transform="matrix(0.04999999999999998,0,0,0.04999999999999998,34.999999999999986,0)" xlink:href="#bz"/><use transform="matrix(0.04999999999999998,0,0,0.04999999999999998,44.999999999999986,0)" xlink:href="#bi"/><use transform="matrix(0.04999999999999998,0,0,0.04999999999999998,50.94999999999998,0)" xlink:href="#bp"/><use transform="matrix(0.04999999999999998,0,0,0.04999999999999998,60.94999999999998,0)" xlink:href="#bk"/><use transform="matrix(0.04999999999999998,0,0,0.04999999999999998,64.89999999999998,0)" xlink:href="#bw"/></g><path d="M24-231v-30h32v30H24zM-9 49c24 4 33-6 33-30v-209h32V24c2 40-23 58-65 49V49" id="bF"/><g id="A"><use transform="matrix(0.04999999999999998,0,0,0.04999999999999998,0,0)" xlink:href="#bo"/><use transform="matrix(0.04999999999999998,0,0,0.04999999999999998,8.999999999999996,0)" xlink:href="#by"/><use transform="matrix(0.04999999999999998,0,0,0.04999999999999998,18.999999999999993,0)" xlink:href="#bE"/><use transform="matrix(0.04999999999999998,0,0,0.04999999999999998,28.99999999999999,0)" xlink:href="#bF"/><use transform="matrix(0.04999999999999998,0,0,0.04999999999999998,32.94999999999999,0)" xlink:href="#bn"/><use transform="matrix(0.04999999999999998,0,0,0.04999999999999998,42.94999999999999,0)" xlink:href="#bl"/><use transform="matrix(0.04999999999999998,0,0,0.04999999999999998,51.949999999999996,0)" xlink:href="#bj"/><use transform="matrix(0.04999999999999998,0,0,0.04999999999999998,56.94999999999999,0)" xlink:href="#bp"/><use transform="matrix(0.04999999999999998,0,0,0.04999999999999998,66.94999999999999,0)" xlink:href="#bk"/><use transform="matrix(0.04999999999999998,0,0,0.04999999999999998,70.89999999999999,0)" xlink:href="#bw"/></g><g id="B"><use transform="matrix(0.04999999999999998,0,0,0.04999999999999998,0,0)" xlink:href="#bj"/><use transform="matrix(0.04999999999999998,0,0,0.04999999999999998,4.999999999999998,0)" xlink:href="#bk"/><use transform="matrix(0.04999999999999998,0,0,0.04999999999999998,8.949999999999996,0)" xlink:href="#bj"/><use transform="matrix(0.04999999999999998,0,0,0.04999999999999998,13.949999999999996,0)" xlink:href="#bm"/><use transform="matrix(0.04999999999999998,0,0,0.04999999999999998,17.89999999999999,0)" xlink:href="#bn"/></g><g id="C"><use transform="matrix(0.04999999999999998,0,0,0.04999999999999998,0,0)" xlink:href="#bl"/><use transform="matrix(0.04999999999999998,0,0,0.04999999999999998,8.999999999999996,0)" xlink:href="#bz"/><use transform="matrix(0.04999999999999998,0,0,0.04999999999999998,18.999999999999993,0)" xlink:href="#bq"/><use transform="matrix(0.04999999999999998,0,0,0.04999999999999998,28.99999999999999,0)" xlink:href="#bj"/><use transform="matrix(0.04999999999999998,0,0,0.04999999999999998,33.999999999999986,0)" xlink:href="#bn"/><use transform="matrix(0.04999999999999998,0,0,0.04999999999999998,43.999999999999986,0)" xlink:href="#bq"/><use transform="matrix(0.04999999999999998,0,0,0.04999999999999998,53.99999999999998,0)" xlink:href="#bj"/></g><g id="D"><use transform="matrix(0.04999999999999998,0,0,0.04999999999999998,0,0)" xlink:href="#bt"/><use transform="matrix(0.04999999999999998,0,0,0.04999999999999998,14.949999999999994,0)" xlink:href="#bz"/><use transform="matrix(0.04999999999999998,0,0,0.04999999999999998,24.94999999999999,0)" xlink:href="#bw"/><use transform="matrix(0.04999999999999998,0,0,0.04999999999999998,34.94999999999999,0)" xlink:href="#bk"/><use transform="matrix(0.04999999999999998,0,0,0.04999999999999998,38.899999999999984,0)" xlink:href="#bC"/><use transform="matrix(0.04999999999999998,0,0,0.04999999999999998,43.899999999999984,0)" xlink:href="#bk"/><use transform="matrix(0.04999999999999998,0,0,0.04999999999999998,47.84999999999998,0)" xlink:href="#bn"/><use transform="matrix(0.04999999999999998,0,0,0.04999999999999998,57.84999999999998,0)" xlink:href="#bw"/><use transform="matrix(0.04999999999999998,0,0,0.04999999999999998,67.84999999999998,0)" xlink:href="#bp"/><use transform="matrix(0.04999999999999998,0,0,0.04999999999999998,77.84999999999998,0)" xlink:href="#bs"/><use transform="matrix(0.04999999999999998,0,0,0.04999999999999998,87.84999999999998,0)" xlink:href="#bj"/></g><g id="E"><use transform="matrix(0.04999999999999999,0,0,0.04999999999999999,0,0)" xlink:href="#bl"/><use transform="matrix(0.05,0,0,0.05,8.999999999999998,0)" xlink:href="#bi"/><use transform="matrix(0.05,0,0,0.05,14.949999999999998,0)" xlink:href="#bn"/><use transform="matrix(0.05,0,0,0.05,24.95,0)" xlink:href="#bs"/><use transform="matrix(0.05,0,0,0.05,34.95,0)" xlink:href="#bj"/><use transform="matrix(0.05,0,0,0.05,39.95,0)" xlink:href="#bn"/><use transform="matrix(0.05,0,0,0.05,49.95,0)" xlink:href="#bw"/><use transform="matrix(0.05,0,0,0.05,59.95,0)" xlink:href="#bp"/><use transform="matrix(0.05,0,0,0.05,69.95,0)" xlink:href="#bs"/><use transform="matrix(0.05,0,0,0.05,79.95,0)" xlink:href="#bj"/></g><g id="F"><use transform="matrix(0.05,0,0,0.05,0,0)" xlink:href="#bh"/><use transform="matrix(0.05,0,0,0.05,12,0)" xlink:href="#by"/><use transform="matrix(0.05,0,0,0.05,22,0)" xlink:href="#bj"/><use transform="matrix(0.05,0,0,0.05,27,0)" xlink:href="#bB"/><use transform="matrix(0.05,0,0,0.05,37,0)" xlink:href="#bz"/><use transform="matrix(0.05,0,0,0.05,47,0)" xlink:href="#bi"/><use transform="matrix(0.05,0,0,0.05,52.95,0)" xlink:href="#bo"/></g><g id="G"><use transform="matrix(0.05,0,0,0.05,0,0)" xlink:href="#bC"/><use transform="matrix(0.05,0,0,0.05,5,0)" xlink:href="#bq"/><use transform="matrix(0.05,0,0,0.05,15,0)" xlink:href="#bs"/><use transform="matrix(0.05,0,0,0.05,25,0)" xlink:href="#bt"/><use transform="matrix(0.05,0,0,0.05,39.95,0)" xlink:href="#bn"/></g><g id="H"><use transform="matrix(0.05,0,0,0.05,0,0)" xlink:href="#bm"/><use transform="matrix(0.05,0,0,0.05,3.95,0)" xlink:href="#bq"/><use transform="matrix(0.05,0,0,0.05,13.949999999999998,0)" xlink:href="#bs"/><use transform="matrix(0.05,0,0,0.05,23.95,0)" xlink:href="#bt"/><use transform="matrix(0.05,0,0,0.05,38.9,0)" xlink:href="#bn"/></g><g id="I"><use transform="matrix(0.05,0,0,0.05,0,0)" xlink:href="#bl"/><use transform="matrix(0.05,0,0,0.05,9,0)" xlink:href="#bz"/><use transform="matrix(0.05,0,0,0.05,19,0)" xlink:href="#bq"/><use transform="matrix(0.05,0,0,0.05,29,0)" xlink:href="#bj"/><use transform="matrix(0.05,0,0,0.05,34,0)" xlink:href="#bs"/><use transform="matrix(0.05,0,0,0.05,44,0)" xlink:href="#bl"/><use transform="matrix(0.05,0,0,0.05,53,0)" xlink:href="#bj"/><use transform="matrix(0.05,0,0,0.05,58,0)" xlink:href="#bp"/><use transform="matrix(0.05,0,0,0.05,68,0)" xlink:href="#bq"/><use transform="matrix(0.05,0,0,0.05,78,0)" xlink:href="#bz"/></g><g id="J"><use transform="matrix(0.05,0,0,0.05,0,0)" xlink:href="#bo"/><use transform="matrix(0.05,0,0,0.05,9,0)" xlink:href="#bs"/><use transform="matrix(0.05,0,0,0.05,19,0)" xlink:href="#bw"/><use transform="matrix(0.05,0,0,0.05,29,0)" xlink:href="#bw"/><use transform="matrix(0.05,0,0,0.05,39,0)" xlink:href="#bi"/><use transform="matrix(0.05,0,0,0.05,44.95,0)" xlink:href="#bn"/><use transform="matrix(0.05,0,0,0.05,54.95,0)" xlink:href="#bo"/><use transform="matrix(0.05,0,0,0.05,63.95,0)" xlink:href="#bo"/></g><g id="K"><use transform="matrix(0.05,0,0,0.05,0,0)" xlink:href="#bA"/><use transform="matrix(0.05,0,0,0.05,9,0)" xlink:href="#bs"/><use transform="matrix(0.05,0,0,0.05,19,0)" xlink:href="#bi"/><use transform="matrix(0.05,0,0,0.05,24.95,0)" xlink:href="#bl"/><use transform="matrix(0.05,0,0,0.05,33.95,0)" xlink:href="#bB"/><use transform="matrix(0.05,0,0,0.05,43.95,0)" xlink:href="#bs"/><use transform="matrix(0.05,0,0,0.05,53.95,0)" xlink:href="#bi"/></g><g id="L"><use transform="matrix(0.05,0,0,0.05,0,0)" xlink:href="#bx"/><use transform="matrix(0.05,0,0,0.05,10.950000000000001,0)" xlink:href="#bv"/></g><path d="M179-190L93 31C79 59 56 82 12 73V49c39 6 53-20 64-50L1-190h34L92-34l54-156h33" id="bG"/><g id="M"><use transform="matrix(0.05,0,0,0.05,0,0)" xlink:href="#bl"/><use transform="matrix(0.05,0,0,0.05,9,0)" xlink:href="#bk"/><use transform="matrix(0.05,0,0,0.05,12.949999999999998,0)" xlink:href="#bj"/><use transform="matrix(0.05,0,0,0.05,17.95,0)" xlink:href="#bG"/><use transform="matrix(0.05,0,0,0.05,26.950000000000003,0)" xlink:href="#bp"/><use transform="matrix(0.05,0,0,0.05,36.95,0)" xlink:href="#bk"/><use transform="matrix(0.05,0,0,0.05,40.900000000000006,0)" xlink:href="#bw"/></g><g id="N"><use transform="matrix(0.05,0,0,0.05,0,0)" xlink:href="#bk"/><use transform="matrix(0.05,0,0,0.05,3.95,0)" xlink:href="#bq"/><use transform="matrix(0.05,0,0,0.05,13.949999999999998,0)" xlink:href="#bj"/></g><g id="O"><use transform="matrix(0.04999999999999998,0,0,0.04999999999999998,0,0)" xlink:href="#bt"/><use transform="matrix(0.04999999999999998,0,0,0.04999999999999998,14.949999999999994,0)" xlink:href="#bz"/><use transform="matrix(0.04999999999999998,0,0,0.04999999999999998,24.94999999999999,0)" xlink:href="#bw"/><use transform="matrix(0.04999999999999998,0,0,0.04999999999999998,34.94999999999999,0)" xlink:href="#bk"/><use transform="matrix(0.04999999999999998,0,0,0.04999999999999998,38.899999999999984,0)" xlink:href="#bC"/><use transform="matrix(0.04999999999999998,0,0,0.04999999999999998,43.899999999999984,0)" xlink:href="#bk"/><use transform="matrix(0.04999999999999998,0,0,0.04999999999999998,47.84999999999998,0)" xlink:href="#bn"/><use transform="matrix(0.04999999999999998,0,0,0.04999999999999998,57.84999999999998,0)" xlink:href="#bw"/><use transform="matrix(0.04999999999999998,0,0,0.04999999999999998,67.84999999999998,0)" xlink:href="#bp"/><use transform="matrix(0.04999999999999998,0,0,0.04999999999999998,77.84999999999998,0)" xlink:href="#bs"/><use transform="matrix(0.04999999999999998,0,0,0.04999999999999998,87.84999999999998,0)" xlink:href="#bj"/></g><g id="P"><use transform="matrix(0.05,0,0,0.05,0,0)" xlink:href="#bj"/><use transform="matrix(0.05,0,0,0.05,5,0)" xlink:href="#bk"/><use transform="matrix(0.05,0,0,0.05,8.95,0)" xlink:href="#bt"/><use transform="matrix(0.05,0,0,0.05,23.9,0)" xlink:href="#bn"/><use transform="matrix(0.05,0,0,0.05,33.9,0)" xlink:href="#bp"/><use transform="matrix(0.05,0,0,0.05,43.9,0)" xlink:href="#bo"/><use transform="matrix(0.05,0,0,0.05,52.900000000000006,0)" xlink:href="#bj"/><use transform="matrix(0.05,0,0,0.05,57.900000000000006,0)" xlink:href="#bs"/><use transform="matrix(0.05,0,0,0.05,67.9,0)" xlink:href="#bt"/><use transform="matrix(0.05,0,0,0.05,82.85000000000001,0)" xlink:href="#bD"/></g><g id="Q"><use transform="matrix(0.05,0,0,0.05,0,0)" xlink:href="#bl"/><use transform="matrix(0.05,0,0,0.05,9,0)" xlink:href="#bi"/><use transform="matrix(0.05,0,0,0.05,14.949999999999998,0)" xlink:href="#bn"/><use transform="matrix(0.05,0,0,0.05,24.95,0)" xlink:href="#bs"/><use transform="matrix(0.05,0,0,0.05,34.95,0)" xlink:href="#bj"/><use transform="matrix(0.05,0,0,0.05,39.95,0)" xlink:href="#bn"/><use transform="matrix(0.05,0,0,0.05,49.95,0)" xlink:href="#bw"/><use transform="matrix(0.05,0,0,0.05,59.95,0)" xlink:href="#bp"/><use transform="matrix(0.05,0,0,0.05,69.95,0)" xlink:href="#bs"/><use transform="matrix(0.05,0,0,0.05,79.95,0)" xlink:href="#bj"/></g><g id="R"><use transform="matrix(0.05,0,0,0.05,0,0)" xlink:href="#bE"/><use transform="matrix(0.05,0,0,0.05,10,0)" xlink:href="#bz"/><use transform="matrix(0.05,0,0,0.05,20,0)" xlink:href="#bz"/><use transform="matrix(0.05,0,0,0.05,30,0)" xlink:href="#bm"/><use transform="matrix(0.05,0,0,0.05,33.95,0)" xlink:href="#bn"/><use transform="matrix(0.05,0,0,0.05,43.95,0)" xlink:href="#bs"/><use transform="matrix(0.05,0,0,0.05,53.95,0)" xlink:href="#bq"/></g><path d="M185-189c-5-48-123-54-124 2 14 75 158 14 163 119 3 78-121 87-175 55-17-10-28-26-33-46l33-7c5 56 141 63 141-1 0-78-155-14-162-118-5-82 145-84 179-34 5 7 8 16 11 25" id="bH"/><g id="S"><use transform="matrix(0.05,0,0,0.05,0,0)" xlink:href="#bH"/><use transform="matrix(0.05,0,0,0.05,12,0)" xlink:href="#bj"/><use transform="matrix(0.05,0,0,0.05,17,0)" xlink:href="#by"/><use transform="matrix(0.05,0,0,0.05,27,0)" xlink:href="#bw"/><use transform="matrix(0.05,0,0,0.05,37,0)" xlink:href="#bn"/><use transform="matrix(0.05,0,0,0.05,47,0)" xlink:href="#bq"/><use transform="matrix(0.05,0,0,0.05,57,0)" xlink:href="#bj"/><use transform="matrix(0.05,0,0,0.05,62,0)" xlink:href="#bo"/></g><g id="T"><use transform="matrix(0.05,0,0,0.05,0,0)" xlink:href="#bl"/><use transform="matrix(0.05,0,0,0.05,9,0)" xlink:href="#bz"/><use transform="matrix(0.05,0,0,0.05,19,0)" xlink:href="#bq"/><use transform="matrix(0.05,0,0,0.05,29,0)" xlink:href="#bj"/><use transform="matrix(0.05,0,0,0.05,34,0)" xlink:href="#bs"/><use transform="matrix(0.05,0,0,0.05,44,0)" xlink:href="#bl"/><use transform="matrix(0.05,0,0,0.05,53,0)" xlink:href="#bj"/><use transform="matrix(0.05,0,0,0.05,58,0)" xlink:href="#bp"/><use transform="matrix(0.05,0,0,0.05,68,0)" xlink:href="#bq"/><use transform="matrix(0.05,0,0,0.05,78,0)" xlink:href="#bz"/></g><g id="U"><use transform="matrix(0.05,0,0,0.05,0,0)" xlink:href="#bo"/><use transform="matrix(0.05,0,0,0.05,9,0)" xlink:href="#bs"/><use transform="matrix(0.05,0,0,0.05,19,0)" xlink:href="#bw"/><use transform="matrix(0.05,0,0,0.05,29,0)" xlink:href="#bw"/><use transform="matrix(0.05,0,0,0.05,39,0)" xlink:href="#bi"/><use transform="matrix(0.05,0,0,0.05,44.95,0)" xlink:href="#bn"/><use transform="matrix(0.05,0,0,0.05,54.95,0)" xlink:href="#bo"/><use transform="matrix(0.05,0,0,0.05,63.95,0)" xlink:href="#bo"/></g><g id="V"><use transform="matrix(0.05,0,0,0.05,0,0)" xlink:href="#bl"/><use transform="matrix(0.05,0,0,0.05,9,0)" xlink:href="#bk"/><use transform="matrix(0.05,0,0,0.05,12.949999999999998,0)" xlink:href="#bj"/><use transform="matrix(0.05,0,0,0.05,17.95,0)" xlink:href="#bG"/><use transform="matrix(0.05,0,0,0.05,26.950000000000003,0)" xlink:href="#bp"/><use transform="matrix(0.05,0,0,0.05,36.95,0)" xlink:href="#bk"/><use transform="matrix(0.05,0,0,0.05,40.900000000000006,0)" xlink:href="#bw"/></g><g id="W"><use transform="matrix(0.05,0,0,0.05,0,0)" xlink:href="#bo"/><use transform="matrix(0.05,0,0,0.05,9,0)" xlink:href="#bl"/><use transform="matrix(0.05,0,0,0.05,18,0)" xlink:href="#bB"/><use transform="matrix(0.05,0,0,0.05,28,0)" xlink:href="#bz"/><use transform="matrix(0.05,0,0,0.05,38,0)" xlink:href="#bz"/><use transform="matrix(0.05,0,0,0.05,48,0)" xlink:href="#bm"/><use transform="matrix(0.05,0,0,0.05,51.95,0)" xlink:href="#bp"/><use transform="matrix(0.05,0,0,0.05,61.95,0)" xlink:href="#bk"/><use transform="matrix(0.05,0,0,0.05,65.9,0)" xlink:href="#bw"/></g><g id="X"><use transform="matrix(0.05,0,0,0.05,0,0)" xlink:href="#bl"/><use transform="matrix(0.05,0,0,0.05,9,0)" xlink:href="#bi"/><use transform="matrix(0.05,0,0,0.05,14.949999999999998,0)" xlink:href="#bn"/><use transform="matrix(0.05,0,0,0.05,24.95,0)" xlink:href="#bs"/><use transform="matrix(0.05,0,0,0.05,34.95,0)" xlink:href="#bj"/><use transform="matrix(0.05,0,0,0.05,39.95,0)" xlink:href="#bn"/><use transform="matrix(0.05,0,0,0.05,49.95,0)" xlink:href="#bw"/><use transform="matrix(0.05,0,0,0.05,59.95,0)" xlink:href="#bp"/><use transform="matrix(0.05,0,0,0.05,69.95,0)" xlink:href="#bs"/><use transform="matrix(0.05,0,0,0.05,79.95,0)" xlink:href="#bj"/></g><g id="Y"><use transform="matrix(0.05,0,0,0.05,0,0)" xlink:href="#bj"/><use transform="matrix(0.05,0,0,0.05,5,0)" xlink:href="#bk"/><use transform="matrix(0.05,0,0,0.05,8.95,0)" xlink:href="#bt"/><use transform="matrix(0.05,0,0,0.05,23.9,0)" xlink:href="#bn"/><use transform="matrix(0.05,0,0,0.05,33.9,0)" xlink:href="#bp"/><use transform="matrix(0.05,0,0,0.05,43.9,0)" xlink:href="#bo"/><use transform="matrix(0.05,0,0,0.05,52.900000000000006,0)" xlink:href="#bj"/><use transform="matrix(0.05,0,0,0.05,57.900000000000006,0)" xlink:href="#bs"/><use transform="matrix(0.05,0,0,0.05,67.9,0)" xlink:href="#bt"/><use transform="matrix(0.05,0,0,0.05,82.85000000000001,0)" xlink:href="#bD"/></g><g id="Z"><use transform="matrix(0.05,0,0,0.05,0,0)" xlink:href="#bk"/><use transform="matrix(0.05,0,0,0.05,3.95,0)" xlink:href="#bo"/><use transform="matrix(0.05,0,0,0.05,12.949999999999998,0)" xlink:href="#bp"/><use transform="matrix(0.05,0,0,0.05,22.95,0)" xlink:href="#bs"/><use transform="matrix(0.05,0,0,0.05,32.95,0)" xlink:href="#bl"/><use transform="matrix(0.05,0,0,0.05,41.95,0)" xlink:href="#bj"/><use transform="matrix(0.05,0,0,0.05,46.95,0)" xlink:href="#bk"/><use transform="matrix(0.05,0,0,0.05,50.900000000000006,0)" xlink:href="#bA"/><use transform="matrix(0.05,0,0,0.05,59.900000000000006,0)" xlink:href="#bn"/></g><g id="aa"><use transform="matrix(0.05,0,0,0.05,0,0)" xlink:href="#bH"/><use transform="matrix(0.05,0,0,0.05,12,0)" xlink:href="#bl"/><use transform="matrix(0.05,0,0,0.05,21,0)" xlink:href="#bB"/><use transform="matrix(0.05,0,0,0.05,31,0)" xlink:href="#bz"/><use transform="matrix(0.05,0,0,0.05,41,0)" xlink:href="#bz"/><use transform="matrix(0.05,0,0,0.05,51,0)" xlink:href="#bm"/><use transform="matrix(0.05,0,0,0.05,54.95,0)" xlink:href="#bo"/></g><g id="ab"><use transform="matrix(0.05,0,0,0.05,0,0)" xlink:href="#bq"/><use transform="matrix(0.05,0,0,0.05,10,0)" xlink:href="#bs"/><use transform="matrix(0.05,0,0,0.05,20,0)" xlink:href="#bt"/><use transform="matrix(0.05,0,0,0.05,34.95,0)" xlink:href="#bn"/></g><g id="ac"><use transform="matrix(0.05,0,0,0.05,0,0)" xlink:href="#bn"/><use transform="matrix(0.05,0,0,0.05,10,0)" xlink:href="#bt"/><use transform="matrix(0.05,0,0,0.05,24.950000000000003,0)" xlink:href="#bs"/><use transform="matrix(0.05,0,0,0.05,34.95,0)" xlink:href="#bk"/><use transform="matrix(0.05,0,0,0.05,38.900000000000006,0)" xlink:href="#bm"/></g><g id="ad"><use transform="matrix(0.05,0,0,0.05,0,0)" xlink:href="#bm"/><use transform="matrix(0.05,0,0,0.05,3.95,0)" xlink:href="#bs"/><use transform="matrix(0.05,0,0,0.05,13.949999999999998,0)" xlink:href="#bq"/><use transform="matrix(0.05,0,0,0.05,23.95,0)" xlink:href="#bw"/><use transform="matrix(0.05,0,0,0.05,33.95,0)" xlink:href="#bm"/><use transform="matrix(0.05,0,0,0.05,37.900000000000006,0)" xlink:href="#bk"/><use transform="matrix(0.05,0,0,0.05,41.85000000000001,0)" xlink:href="#bq"/><use transform="matrix(0.05,0,0,0.05,51.85,0)" xlink:href="#bn"/><use transform="matrix(0.05,0,0,0.05,61.85,0)" xlink:href="#bp"/><use transform="matrix(0.05,0,0,0.05,71.85000000000001,0)" xlink:href="#bq"/><use transform="matrix(0.05,0,0,0.05,81.85000000000001,0)" xlink:href="#bz"/></g><g id="ae"><use transform="matrix(0.05,0,0,0.05,0,0)" xlink:href="#bt"/><use transform="matrix(0.05,0,0,0.05,14.950000000000001,0)" xlink:href="#bz"/><use transform="matrix(0.05,0,0,0.05,24.950000000000003,0)" xlink:href="#bw"/><use transform="matrix(0.05,0,0,0.05,34.95,0)" xlink:href="#bk"/><use transform="matrix(0.05,0,0,0.05,38.900000000000006,0)" xlink:href="#bC"/><use transform="matrix(0.05,0,0,0.05,43.900000000000006,0)" xlink:href="#bk"/><use transform="matrix(0.05,0,0,0.05,47.85000000000001,0)" xlink:href="#bn"/><use transform="matrix(0.05,0,0,0.05,57.85,0)" xlink:href="#bw"/><use transform="matrix(0.05,0,0,0.05,67.85000000000001,0)" xlink:href="#bp"/><use transform="matrix(0.05,0,0,0.05,77.85000000000001,0)" xlink:href="#bs"/><use transform="matrix(0.05,0,0,0.05,87.85000000000001,0)" xlink:href="#bj"/></g><path d="M232-93c-1 65-40 97-104 97C67 4 28-28 28-90v-158h33c8 89-33 224 67 224 102 0 64-133 71-224h33v155" id="bI"/><g id="af"><use transform="matrix(0.05,0,0,0.05,0,0)" xlink:href="#bI"/><use transform="matrix(0.05,0,0,0.05,12.950000000000001,0)" xlink:href="#bo"/><use transform="matrix(0.05,0,0,0.05,21.950000000000003,0)" xlink:href="#bn"/><use transform="matrix(0.05,0,0,0.05,31.950000000000003,0)" xlink:href="#bi"/><use transform="matrix(0.05,0,0,0.05,37.900000000000006,0)" xlink:href="#bo"/></g><g id="ag"><use transform="matrix(0.05,0,0,0.05,0,0)" xlink:href="#by"/><use transform="matrix(0.05,0,0,0.05,10,0)" xlink:href="#bo"/><use transform="matrix(0.05,0,0,0.05,19,0)" xlink:href="#bn"/><use transform="matrix(0.05,0,0,0.05,29,0)" xlink:href="#bi"/><use transform="matrix(0.05,0,0,0.05,34.95,0)" xlink:href="#bp"/><use transform="matrix(0.05,0,0,0.05,44.95,0)" xlink:href="#bl"/><use transform="matrix(0.05,0,0,0.05,53.95,0)" xlink:href="#bm"/><use transform="matrix(0.05,0,0,0.05,57.900000000000006,0)" xlink:href="#bs"/><use transform="matrix(0.05,0,0,0.05,67.9,0)" xlink:href="#bo"/><use transform="matrix(0.05,0,0,0.05,76.9,0)" xlink:href="#bo"/></g><g id="ah"><use transform="matrix(0.05,0,0,0.05,0,0)" xlink:href="#by"/><use transform="matrix(0.05,0,0,0.05,10,0)" xlink:href="#bq"/><use transform="matrix(0.05,0,0,0.05,20,0)" xlink:href="#bs"/><use transform="matrix(0.05,0,0,0.05,30,0)" xlink:href="#bt"/><use transform="matrix(0.05,0,0,0.05,44.95,0)" xlink:href="#bn"/></g><path d="M206 0h-36l-40-164L89 0H53L-1-190h32L70-26l43-164h34l41 164 42-164h31" id="bJ"/><g id="ai"><use transform="matrix(0.05,0,0,0.05,0,0)" xlink:href="#bD"/><use transform="matrix(0.05,0,0,0.05,10,0)" xlink:href="#bJ"/><use transform="matrix(0.05,0,0,0.05,22.950000000000003,0)" xlink:href="#bz"/><use transform="matrix(0.05,0,0,0.05,32.95,0)" xlink:href="#bi"/><use transform="matrix(0.05,0,0,0.05,38.900000000000006,0)" xlink:href="#bw"/></g><g id="aj"><use transform="matrix(0.05,0,0,0.05,0,0)" xlink:href="#bn"/><use transform="matrix(0.05,0,0,0.05,10,0)" xlink:href="#bt"/><use transform="matrix(0.05,0,0,0.05,24.950000000000003,0)" xlink:href="#bs"/><use transform="matrix(0.05,0,0,0.05,34.95,0)" xlink:href="#bk"/><use transform="matrix(0.05,0,0,0.05,38.900000000000006,0)" xlink:href="#bm"/></g><g id="ak"><use transform="matrix(0.05,0,0,0.05,0,0)" xlink:href="#bh"/><use transform="matrix(0.05,0,0,0.05,12,0)" xlink:href="#bi"/><use transform="matrix(0.05,0,0,0.05,17.95,0)" xlink:href="#bj"/><use transform="matrix(0.05,0,0,0.05,22.95,0)" xlink:href="#bk"/><use transform="matrix(0.05,0,0,0.05,26.899999999999995,0)" xlink:href="#bl"/><use transform="matrix(0.05,0,0,0.05,35.9,0)" xlink:href="#bm"/><use transform="matrix(0.05,0,0,0.05,39.85,0)" xlink:href="#bn"/><use transform="matrix(0.05,0,0,0.05,49.85,0)" xlink:href="#bo"/><use transform="matrix(0.05,0,0,0.05,58.85,0)" xlink:href="#bp"/><use transform="matrix(0.05,0,0,0.05,68.85,0)" xlink:href="#bi"/><use transform="matrix(0.05,0,0,0.05,74.8,0)" xlink:href="#bn"/><use transform="matrix(0.05,0,0,0.05,84.8,0)" xlink:href="#bD"/><use transform="matrix(0.05,0,0,0.05,94.8,0)" xlink:href="#bm"/><use transform="matrix(0.05,0,0,0.05,98.75,0)" xlink:href="#bG"/></g><g id="al"><use transform="matrix(0.05,0,0,0.05,0,0)" xlink:href="#bl"/><use transform="matrix(0.05,0,0,0.05,9,0)" xlink:href="#bz"/><use transform="matrix(0.05,0,0,0.05,19,0)" xlink:href="#bt"/><use transform="matrix(0.05,0,0,0.05,33.95,0)" xlink:href="#bt"/><use transform="matrix(0.05,0,0,0.05,48.900000000000006,0)" xlink:href="#bn"/><use transform="matrix(0.05,0,0,0.05,58.900000000000006,0)" xlink:href="#bq"/><use transform="matrix(0.05,0,0,0.05,68.9,0)" xlink:href="#bj"/><use transform="matrix(0.05,0,0,0.05,73.9,0)" xlink:href="#bp"/><use transform="matrix(0.05,0,0,0.05,83.9,0)" xlink:href="#bk"/><use transform="matrix(0.05,0,0,0.05,87.85000000000001,0)" xlink:href="#bw"/></g><g id="am"><use transform="matrix(0.05,0,0,0.05,0,0)" xlink:href="#bi"/><use transform="matrix(0.05,0,0,0.05,5.95,0)" xlink:href="#bn"/><use transform="matrix(0.05,0,0,0.05,15.949999999999998,0)" xlink:href="#bD"/><use transform="matrix(0.05,0,0,0.05,25.950000000000003,0)" xlink:href="#bm"/><use transform="matrix(0.05,0,0,0.05,29.899999999999995,0)" xlink:href="#bG"/></g><g id="an"><use transform="matrix(0.05,0,0,0.05,0,0)" xlink:href="#bh"/><use transform="matrix(0.05,0,0,0.05,12,0)" xlink:href="#by"/><use transform="matrix(0.05,0,0,0.05,22,0)" xlink:href="#bj"/><use transform="matrix(0.05,0,0,0.05,27,0)" xlink:href="#bB"/><use transform="matrix(0.05,0,0,0.05,37,0)" xlink:href="#bz"/><use transform="matrix(0.05,0,0,0.05,47,0)" xlink:href="#bi"/><use transform="matrix(0.05,0,0,0.05,52.95,0)" xlink:href="#bp"/><use transform="matrix(0.05,0,0,0.05,62.95,0)" xlink:href="#bo"/><use transform="matrix(0.05,0,0,0.05,71.95,0)" xlink:href="#by"/><use transform="matrix(0.05,0,0,0.05,81.95,0)" xlink:href="#bE"/><use transform="matrix(0.05,0,0,0.05,91.95,0)" xlink:href="#bo"/><use transform="matrix(0.05,0,0,0.05,100.95,0)" xlink:href="#bl"/><use transform="matrix(0.05,0,0,0.05,109.95,0)" xlink:href="#bi"/><use transform="matrix(0.05,0,0,0.05,115.9,0)" xlink:href="#bk"/><use transform="matrix(0.05,0,0,0.05,119.85000000000001,0)" xlink:href="#bD"/><use transform="matrix(0.05,0,0,0.05,129.85000000000002,0)" xlink:href="#bj"/><use transform="matrix(0.05,0,0,0.05,134.85000000000002,0)" xlink:href="#bk"/><use transform="matrix(0.05,0,0,0.05,138.8,0)" xlink:href="#bz"/><use transform="matrix(0.05,0,0,0.05,148.8,0)" xlink:href="#bq"/></g><g id="ao"><use transform="matrix(0.05,0,0,0.05,0,0)" xlink:href="#bo"/><use transform="matrix(0.05,0,0,0.05,9,0)" xlink:href="#bj"/><use transform="matrix(0.05,0,0,0.05,14,0)" xlink:href="#by"/><use transform="matrix(0.05,0,0,0.05,24,0)" xlink:href="#bw"/><use transform="matrix(0.05,0,0,0.05,34,0)" xlink:href="#bn"/><use transform="matrix(0.05,0,0,0.05,44,0)" xlink:href="#bq"/><use transform="matrix(0.05,0,0,0.05,54,0)" xlink:href="#bj"/><use transform="matrix(0.05,0,0,0.05,59,0)" xlink:href="#bp"/><use transform="matrix(0.05,0,0,0.05,69,0)" xlink:href="#bk"/><use transform="matrix(0.05,0,0,0.05,72.95,0)" xlink:href="#bw"/></g><g id="ap"><use transform="matrix(0.05,0,0,0.05,0,0)" xlink:href="#bs"/><use transform="matrix(0.05,0,0,0.05,10,0)" xlink:href="#by"/><use transform="matrix(0.05,0,0,0.05,20,0)" xlink:href="#bj"/><use transform="matrix(0.05,0,0,0.05,25,0)" xlink:href="#bB"/><use transform="matrix(0.05,0,0,0.05,35,0)" xlink:href="#bz"/><use transform="matrix(0.05,0,0,0.05,45,0)" xlink:href="#bi"/><use transform="matrix(0.05,0,0,0.05,50.95,0)" xlink:href="#bp"/><use transform="matrix(0.05,0,0,0.05,60.95,0)" xlink:href="#bk"/><use transform="matrix(0.05,0,0,0.05,64.9,0)" xlink:href="#bw"/></g><g id="aq"><use transform="matrix(0.05,0,0,0.05,0,0)" xlink:href="#bk"/><use transform="matrix(0.05,0,0,0.05,3.95,0)" xlink:href="#bo"/><use transform="matrix(0.05,0,0,0.05,12.949999999999998,0)" xlink:href="#bp"/><use transform="matrix(0.05,0,0,0.05,22.95,0)" xlink:href="#bs"/><use transform="matrix(0.05,0,0,0.05,32.95,0)" xlink:href="#bl"/><use transform="matrix(0.05,0,0,0.05,41.95,0)" xlink:href="#bj"/><use transform="matrix(0.05,0,0,0.05,46.95,0)" xlink:href="#bk"/><use transform="matrix(0.05,0,0,0.05,50.900000000000006,0)" xlink:href="#bA"/><use transform="matrix(0.05,0,0,0.05,59.900000000000006,0)" xlink:href="#bn"/></g><g id="ar"><use transform="matrix(0.05,0,0,0.05,0,0)" xlink:href="#bH"/><use transform="matrix(0.05,0,0,0.05,12,0)" xlink:href="#by"/><use transform="matrix(0.05,0,0,0.05,22,0)" xlink:href="#bE"/><use transform="matrix(0.05,0,0,0.05,32,0)" xlink:href="#bF"/><use transform="matrix(0.05,0,0,0.05,35.95,0)" xlink:href="#bn"/><use transform="matrix(0.05,0,0,0.05,45.95,0)" xlink:href="#bl"/><use transform="matrix(0.05,0,0,0.05,54.95,0)" xlink:href="#bj"/><use transform="matrix(0.05,0,0,0.05,59.95,0)" xlink:href="#bo"/></g><path d="M212-179c-10-28-35-45-73-45-59 0-87 40-87 99 0 60 29 101 89 101 43 0 62-24 78-52l27 14C228-24 195 4 139 4 59 4 22-46 18-125c-6-104 99-153 187-111 19 9 31 26 39 46" id="bK"/><g id="as"><use transform="matrix(0.05,0,0,0.05,0,0)" xlink:href="#bK"/><use transform="matrix(0.05,0,0,0.05,12.950000000000001,0)" xlink:href="#bk"/><use transform="matrix(0.05,0,0,0.05,16.900000000000002,0)" xlink:href="#bj"/><use transform="matrix(0.05,0,0,0.05,21.900000000000002,0)" xlink:href="#bk"/><use transform="matrix(0.05,0,0,0.05,25.85,0)" xlink:href="#bn"/><use transform="matrix(0.05,0,0,0.05,35.85,0)" xlink:href="#bo"/></g><g id="at"><use transform="matrix(0.05,0,0,0.05,0,0)" xlink:href="#bu"/><use transform="matrix(0.05,0,0,0.05,12,0)" xlink:href="#bv"/></g><g id="au"><use transform="matrix(0.05,0,0,0.05,0,0)" xlink:href="#bk"/><use transform="matrix(0.05,0,0,0.05,3.95,0)" xlink:href="#bw"/></g><g id="av"><use transform="matrix(0.05,0,0,0.05,0,0)" xlink:href="#bq"/><use transform="matrix(0.05,0,0,0.05,10,0)" xlink:href="#bs"/><use transform="matrix(0.05,0,0,0.05,20,0)" xlink:href="#bt"/><use transform="matrix(0.05,0,0,0.05,34.95,0)" xlink:href="#bn"/></g><g id="aw"><use transform="matrix(0.05,0,0,0.05,0,0)" xlink:href="#bD"/><use transform="matrix(0.05,0,0,0.05,10,0)" xlink:href="#bi"/><use transform="matrix(0.05,0,0,0.05,15.949999999999998,0)" xlink:href="#bz"/><use transform="matrix(0.05,0,0,0.05,25.950000000000003,0)" xlink:href="#bA"/><use transform="matrix(0.05,0,0,0.05,34.95,0)" xlink:href="#bk"/><use transform="matrix(0.05,0,0,0.05,38.900000000000006,0)" xlink:href="#bq"/><use transform="matrix(0.05,0,0,0.05,48.900000000000006,0)" xlink:href="#bl"/><use transform="matrix(0.05,0,0,0.05,57.900000000000006,0)" xlink:href="#bn"/></g><path d="M9 0v-24l116-142H16v-24h144v24L44-24h123V0H9" id="bL"/><g id="ax"><use transform="matrix(0.05,0,0,0.05,0,0)" xlink:href="#bL"/><use transform="matrix(0.05,0,0,0.05,9,0)" xlink:href="#bk"/><use transform="matrix(0.05,0,0,0.05,12.949999999999998,0)" xlink:href="#bD"/></g><g id="ay"><use transform="matrix(0.05,0,0,0.05,0,0)" xlink:href="#bl"/><use transform="matrix(0.05,0,0,0.05,9,0)" xlink:href="#bz"/><use transform="matrix(0.05,0,0,0.05,19,0)" xlink:href="#by"/><use transform="matrix(0.05,0,0,0.05,29,0)" xlink:href="#bq"/><use transform="matrix(0.05,0,0,0.05,39,0)" xlink:href="#bj"/><use transform="matrix(0.05,0,0,0.05,44,0)" xlink:href="#bi"/><use transform="matrix(0.05,0,0,0.05,49.95,0)" xlink:href="#bG"/><use transform="matrix(0.05,0,0,0.05,58.95,0)" xlink:href="#bp"/><use transform="matrix(0.05,0,0,0.05,68.95,0)" xlink:href="#bk"/><use transform="matrix(0.05,0,0,0.05,72.9,0)" xlink:href="#bw"/></g><g id="az"><use transform="matrix(0.05,0,0,0.05,0,0)" xlink:href="#bK"/><use transform="matrix(0.05,0,0,0.05,12.950000000000001,0)" xlink:href="#bz"/><use transform="matrix(0.05,0,0,0.05,22.950000000000003,0)" xlink:href="#by"/><use transform="matrix(0.05,0,0,0.05,32.95,0)" xlink:href="#bq"/><use transform="matrix(0.05,0,0,0.05,42.95,0)" xlink:href="#bj"/><use transform="matrix(0.05,0,0,0.05,47.95,0)" xlink:href="#bi"/><use transform="matrix(0.05,0,0,0.05,53.900000000000006,0)" xlink:href="#bk"/><use transform="matrix(0.05,0,0,0.05,57.85,0)" xlink:href="#bn"/><use transform="matrix(0.05,0,0,0.05,67.85000000000001,0)" xlink:href="#bo"/></g></defs></g></svg>