<svg xmlns="http://www.w3.org/2000/svg" xmlns:xlink="http://www.w3.org/1999/xlink" xmlns:lucid="lucid" width="1760" height="1360"><g transform="translate(0 0)" lucid:page-tab-id="0_0"><path d="M0 0h1760v1360H0z" fill="#fff"/><path d="M620 523c0-2.76 2.24-5 5-5h160.54c2.77 0 5 2.24 5 5v50c0 2.76-2.23 5-5 5H625c-2.76 0-5-2.24-5-5z" fill="none"/><use xlink:href="#a" transform="matrix(1,0,0,1,620,518) translate(2.8299382716049593 24.57777777777778)"/><use xlink:href="#b" transform="matrix(1,0,0,1,620,518) translate(38.94043209876545 24.57777777777778)"/><use xlink:href="#c" transform="matrix(1,0,0,1,620,518) translate(81.6780864197531 24.57777777777778)"/><use xlink:href="#d" transform="matrix(1,0,0,1,620,518) translate(42.98827160493828 40.84444444444445)"/><use xlink:href="#e" transform="matrix(1,0,0,1,620,518) translate(62.53086419753087 40.84444444444445)"/><use xlink:href="#f" transform="matrix(1,0,0,1,620,518) translate(99.39444444444445 40.84444444444445)"/><path d="M365.96 74c0-6.63 5.37-12 12-12h936.17c6.63 0 12 5.37 12 12v39.08c0 6.62-5.37 12-12 12H377.96c-6.63 0-12-5.38-12-12z" stroke="#000" stroke-opacity="0" stroke-width="2" fill="#fff" fill-opacity="0"/><use xlink:href="#g" transform="matrix(1,0,0,1,370.95736456049923,66.99999999999994) translate(229.01851851851848 31.458333333333336)"/><use xlink:href="#h" transform="matrix(1,0,0,1,370.95736456049923,66.99999999999994) translate(427.3888888888889 31.458333333333336)"/><use xlink:href="#i" transform="matrix(1,0,0,1,370.95736456049923,66.99999999999994) translate(511.6851851851852 31.458333333333336)"/><use xlink:href="#j" transform="matrix(1,0,0,1,370.95736456049923,66.99999999999994) translate(578.2777777777778 31.458333333333336)"/><path d="M621.1 129.87c0-6.63 5.36-12 12-12h430c6.62 0 12 5.37 12 12V140c0 6.63-5.38 12-12 12h-430c-6.64 0-12-5.37-12-12z" stroke="#000" stroke-opacity="0" stroke-width="2" fill="#fff" fill-opacity="0"/><use xlink:href="#k" transform="matrix(1,0,0,1,626.0889487678969,122.86936285872464) translate(81.44135802469137 15.569444444444446)"/><use xlink:href="#l" transform="matrix(1,0,0,1,626.0889487678969,122.86936285872464) translate(142.7993827160494 15.569444444444446)"/><use xlink:href="#m" transform="matrix(1,0,0,1,626.0889487678969,122.86936285872464) translate(171.3179012345679 15.569444444444446)"/><use xlink:href="#n" transform="matrix(1,0,0,1,626.0889487678969,122.86936285872464) translate(214.48456790123458 15.569444444444446)"/><use xlink:href="#o" transform="matrix(1,0,0,1,626.0889487678969,122.86936285872464) translate(227.14506172839506 15.569444444444446)"/><use xlink:href="#p" transform="matrix(1,0,0,1,626.0889487678969,122.86936285872464) translate(303.0648148148148 15.569444444444446)"/><use xlink:href="#q" transform="matrix(1,0,0,1,626.0889487678969,122.86936285872464) translate(328.99074074074076 15.569444444444446)"/><path d="M543.6 117.6h610.2M543.62 117.6h-1.02M1153.78 117.6h1.03" stroke="#b2b2b2" stroke-width="2" fill="none"/><path d="M1001.5 485c0-2.76 2.24-5 5-5h291.46c2.76 0 5 2.24 5 5v222c0 2.76-2.24 5-5 5H1006.5c-2.76 0-5-2.24-5-5z" fill="#ffc374"/><path d="M1001.5 480h301.46v40H1001.5z" fill="#cc9c5d"/><path d="M1001.5 485c0-2.76 2.24-5 5-5h291.46c2.76 0 5 2.24 5 5v222c0 2.76-2.24 5-5 5H1006.5c-2.76 0-5-2.24-5-5zM1001.5 520h301.46M1049 520v192M1193.2 520v192" stroke="#000" fill="none"/><use xlink:href="#r" transform="matrix(1,0,0,1,1011.5000000000001,480) translate(0 23.6)"/><use xlink:href="#s" transform="matrix(1,0,0,1,1006.5000000000001,522.5) translate(0 17.1)"/><use xlink:href="#t" transform="matrix(1,0,0,1,1053.988293659097,522.5) translate(0 17.1)"/><use xlink:href="#u" transform="matrix(1,0,0,1,1198.2100833496247,522.5) translate(0 17.1)"/><use xlink:href="#v" transform="matrix(1,0,0,1,1006.5000000000001,554.5) translate(0 17.1)"/><use xlink:href="#w" transform="matrix(1,0,0,1,1053.988293659097,554.5) translate(0 17.1)"/><use xlink:href="#u" transform="matrix(1,0,0,1,1198.2100833496247,554.5) translate(0 17.1)"/><use xlink:href="#v" transform="matrix(1,0,0,1,1006.5000000000001,586.5) translate(0 17.1)"/><use xlink:href="#x" transform="matrix(1,0,0,1,1053.988293659097,586.5) translate(0 17.1)"/><use xlink:href="#u" transform="matrix(1,0,0,1,1198.2100833496247,586.5) translate(0 17.1)"/><use xlink:href="#y" transform="matrix(1,0,0,1,1053.988293659097,618.5) translate(0 17.1)"/><use xlink:href="#z" transform="matrix(1,0,0,1,1198.2100833496247,618.5) translate(0 17.1)"/><use xlink:href="#A" transform="matrix(1,0,0,1,1053.988293659097,650.5) translate(0 17.1)"/><use xlink:href="#B" transform="matrix(1,0,0,1,1198.2100833496247,650.5) translate(0 17.1)"/><use xlink:href="#C" transform="matrix(1,0,0,1,1053.988293659097,682.5) translate(0 17.1)"/><use xlink:href="#B" transform="matrix(1,0,0,1,1198.2100833496247,682.5) translate(0 17.1)"/><path d="M1381.5 526.5c0-2.76 2.24-5 5-5h290.36c2.77 0 5 2.24 5 5v286c0 2.76-2.23 5-5 5H1386.5c-2.76 0-5-2.24-5-5z" fill="#ffc374"/><path d="M1381.5 521.5h300.36v40H1381.5z" fill="#cc9c5d"/><path d="M1381.5 526.5c0-2.76 2.24-5 5-5h290.36c2.77 0 5 2.24 5 5v286c0 2.76-2.23 5-5 5H1386.5c-2.76 0-5-2.24-5-5zM1381.5 561.5h300.36M1429 561.5v256M1574.44 561.5v256" stroke="#000" fill="none"/><use xlink:href="#D" transform="matrix(1,0,0,1,1391.5,521.5) translate(0 23.6)"/><use xlink:href="#s" transform="matrix(1,0,0,1,1386.5,564) translate(0 17.1)"/><use xlink:href="#x" transform="matrix(1,0,0,1,1433.988293659097,564) translate(0 17.1)"/><use xlink:href="#u" transform="matrix(1,0,0,1,1579.4357410375815,564) translate(0 17.1)"/><use xlink:href="#v" transform="matrix(1,0,0,1,1386.5,596) translate(0 17.1)"/><use xlink:href="#E" transform="matrix(1,0,0,1,1433.988293659097,596) translate(0 17.099999999999998)"/><use xlink:href="#u" transform="matrix(1,0,0,1,1579.4357410375815,596) translate(0 17.1)"/><use xlink:href="#v" transform="matrix(1,0,0,1,1386.5,628) translate(0 17.1)"/><use xlink:href="#F" transform="matrix(1,0,0,1,1433.988293659097,628) translate(0 17.099999999999998)"/><use xlink:href="#u" transform="matrix(1,0,0,1,1579.4357410375815,628) translate(0 17.1)"/><use xlink:href="#G" transform="matrix(1,0,0,1,1433.988293659097,660) translate(0 17.099999999999998)"/><use xlink:href="#z" transform="matrix(1,0,0,1,1579.4357410375815,660) translate(0 17.1)"/><use xlink:href="#H" transform="matrix(1,0,0,1,1433.988293659097,692) translate(0 17.099999999999998)"/><use xlink:href="#z" transform="matrix(1,0,0,1,1579.4357410375815,692) translate(0 17.1)"/><use xlink:href="#I" transform="matrix(1,0,0,1,1433.988293659097,724) translate(0 17.099999999999998)"/><use xlink:href="#B" transform="matrix(1,0,0,1,1579.4357410375815,724) translate(0 17.1)"/><use xlink:href="#J" transform="matrix(1,0,0,1,1433.988293659097,756) translate(0 17.1)"/><use xlink:href="#B" transform="matrix(1,0,0,1,1579.4357410375815,756) translate(0 17.1)"/><use xlink:href="#K" transform="matrix(1,0,0,1,1433.988293659097,788) translate(0 17.1)"/><use xlink:href="#L" transform="matrix(1,0,0,1,1579.4357410375815,788) translate(0 17.1)"/><path d="M140 565c0-2.76 2.24-5 5-5h332.54c2.77 0 5 2.24 5 5v350c0 2.76-2.23 5-5 5H145c-2.76 0-5-2.24-5-5z" fill="#83bbe5"/><path d="M140 560h342.54v40H140z" fill="#6996b7"/><path d="M140 565c0-2.76 2.24-5 5-5h332.54c2.77 0 5 2.24 5 5v350c0 2.76-2.23 5-5 5H145c-2.76 0-5-2.24-5-5zM140 600h342.54M187.5 600v320M377.7 600v320" stroke="#000" fill="none"/><use xlink:href="#M" transform="matrix(1,0,0,1,150,560) translate(0 23.6)"/><use xlink:href="#s" transform="matrix(1,0,0,1,145,602.5) translate(0 17.1)"/><use xlink:href="#w" transform="matrix(1,0,0,1,192.48829365909694,602.5) translate(0 17.1)"/><use xlink:href="#u" transform="matrix(1,0,0,1,382.6997852797556,602.5) translate(0 17.1)"/><use xlink:href="#N" transform="matrix(1,0,0,1,192.48829365909694,634.5) translate(0 17.1)"/><use xlink:href="#z" transform="matrix(1,0,0,1,382.6997852797556,634.5) translate(0 17.1)"/><use xlink:href="#O" transform="matrix(1,0,0,1,192.48829365909694,666.5) translate(0 17.1)"/><use xlink:href="#z" transform="matrix(1,0,0,1,382.6997852797556,666.5) translate(0 17.1)"/><use xlink:href="#P" transform="matrix(1,0,0,1,192.48829365909694,698.5) translate(0 17.1)"/><use xlink:href="#z" transform="matrix(1,0,0,1,382.6997852797556,698.5) translate(0 17.1)"/><use xlink:href="#Q" transform="matrix(1,0,0,1,192.48829365909694,730.5) translate(0 17.1)"/><use xlink:href="#z" transform="matrix(1,0,0,1,382.6997852797556,730.5) translate(0 17.1)"/><use xlink:href="#v" transform="matrix(1,0,0,1,145,762.5) translate(0 17.1)"/><use xlink:href="#R" transform="matrix(1,0,0,1,192.48829365909694,762.5) translate(0 17.1)"/><use xlink:href="#u" transform="matrix(1,0,0,1,382.6997852797556,762.5) translate(0 17.1)"/><use xlink:href="#v" transform="matrix(1,0,0,1,145,794.5) translate(0 17.1)"/><use xlink:href="#S" transform="matrix(1,0,0,1,192.48829365909694,794.5) translate(0 17.1)"/><use xlink:href="#u" transform="matrix(1,0,0,1,382.6997852797556,794.5) translate(0 17.1)"/><use xlink:href="#I" transform="matrix(1,0,0,1,192.48829365909694,826.5) translate(0 17.099999999999998)"/><use xlink:href="#B" transform="matrix(1,0,0,1,382.6997852797556,826.5) translate(0 17.1)"/><use xlink:href="#T" transform="matrix(1,0,0,1,192.48829365909694,858.5) translate(0 17.1)"/><use xlink:href="#U" transform="matrix(1,0,0,1,382.6997852797556,858.5) translate(0 17.1)"/><use xlink:href="#K" transform="matrix(1,0,0,1,192.48829365909694,890.5) translate(0 17.1)"/><use xlink:href="#L" transform="matrix(1,0,0,1,382.6997852797556,890.5) translate(0 17.1)"/><path d="M580 205c0-2.76 2.24-5 5-5h248.9c2.77 0 5 2.24 5 5v286c0 2.76-2.23 5-5 5H585c-2.76 0-5-2.24-5-5z" fill="#83bbe5"/><path d="M580 200h258.9v40H580z" fill="#6996b7"/><path d="M580 205c0-2.76 2.24-5 5-5h248.9c2.77 0 5 2.24 5 5v286c0 2.76-2.23 5-5 5H585c-2.76 0-5-2.24-5-5zM580 240h258.9M614.52 240v256M733.34 240v256" stroke="#000" fill="none"/><use xlink:href="#V" transform="matrix(1,0,0,1,590,200) translate(0 23.6)"/><use xlink:href="#s" transform="matrix(1,0,0,1,585,242.5) translate(0 17.1)"/><use xlink:href="#W" transform="matrix(1,0,0,1,619.5201358641459,242.5) translate(0 17.1)"/><use xlink:href="#u" transform="matrix(1,0,0,1,738.3394108151015,242.5) translate(0 17.1)"/><use xlink:href="#X" transform="matrix(1,0,0,1,619.5201358641459,274.5) translate(0 17.1)"/><use xlink:href="#z" transform="matrix(1,0,0,1,738.3394108151015,274.5) translate(0 17.1)"/><use xlink:href="#Y" transform="matrix(1,0,0,1,619.5201358641459,306.5) translate(0 17.1)"/><use xlink:href="#z" transform="matrix(1,0,0,1,738.3394108151015,306.5) translate(0 17.1)"/><use xlink:href="#Z" transform="matrix(1,0,0,1,619.5201358641459,338.5) translate(0 17.1)"/><use xlink:href="#z" transform="matrix(1,0,0,1,738.3394108151015,338.5) translate(0 17.1)"/><use xlink:href="#aa" transform="matrix(1,0,0,1,619.5201358641459,370.5) translate(0 17.1)"/><use xlink:href="#z" transform="matrix(1,0,0,1,738.3394108151015,370.5) translate(0 17.1)"/><use xlink:href="#v" transform="matrix(1,0,0,1,585,402.5) translate(0 17.1)"/><use xlink:href="#ab" transform="matrix(1,0,0,1,619.5201358641459,402.5) translate(0 17.1)"/><use xlink:href="#u" transform="matrix(1,0,0,1,738.3394108151015,402.5) translate(0 17.1)"/><use xlink:href="#A" transform="matrix(1,0,0,1,619.5201358641459,434.5) translate(0 17.1)"/><use xlink:href="#B" transform="matrix(1,0,0,1,738.3394108151015,434.5) translate(0 17.1)"/><use xlink:href="#C" transform="matrix(1,0,0,1,619.5201358641459,466.5) translate(0 17.1)"/><use xlink:href="#B" transform="matrix(1,0,0,1,738.3394108151015,466.5) translate(0 17.1)"/><path d="M621.5 625c0-2.76 2.24-5 5-5h290.36c2.77 0 5 2.24 5 5v318c0 2.76-2.23 5-5 5H626.5c-2.76 0-5-2.24-5-5z" fill="#83bbe5"/><path d="M621.5 620h300.36v40H621.5z" fill="#6996b7"/><path d="M621.5 625c0-2.76 2.24-5 5-5h290.36c2.77 0 5 2.24 5 5v318c0 2.76-2.23 5-5 5H626.5c-2.76 0-5-2.24-5-5zM621.5 660h300.36M692.03 660v288M813.23 660v288" stroke="#000" fill="none"/><use xlink:href="#ac" transform="matrix(1,0,0,1,631.5,620) translate(0 23.6)"/><use xlink:href="#ad" transform="matrix(1,0,0,1,626.5,662.5) translate(0 17.1)"/><use xlink:href="#ae" transform="matrix(1,0,0,1,626.5,662.5) translate(34.95 17.1)"/><use xlink:href="#w" transform="matrix(1,0,0,1,697.0307536904626,662.5) translate(0 17.1)"/><use xlink:href="#u" transform="matrix(1,0,0,1,818.2307281345253,662.5) translate(0 17.1)"/><use xlink:href="#v" transform="matrix(1,0,0,1,626.5,694.5) translate(0 17.1)"/><use xlink:href="#af" transform="matrix(1,0,0,1,697.0307536904626,694.5) translate(0 17.1)"/><use xlink:href="#u" transform="matrix(1,0,0,1,818.2307281345253,694.5) translate(0 17.1)"/><use xlink:href="#ag" transform="matrix(1,0,0,1,697.0307536904626,726.5) translate(0 17.1)"/><use xlink:href="#z" transform="matrix(1,0,0,1,818.2307281345253,726.5) translate(0 17.1)"/><use xlink:href="#ah" transform="matrix(1,0,0,1,697.0307536904626,758.5) translate(0 17.1)"/><use xlink:href="#z" transform="matrix(1,0,0,1,818.2307281345253,758.5) translate(0 17.1)"/><use xlink:href="#ai" transform="matrix(1,0,0,1,697.0307536904626,790.5) translate(0 17.1)"/><use xlink:href="#z" transform="matrix(1,0,0,1,818.2307281345253,790.5) translate(0 17.1)"/><use xlink:href="#aj" transform="matrix(1,0,0,1,697.0307536904626,822.5) translate(0 17.1)"/><use xlink:href="#z" transform="matrix(1,0,0,1,818.2307281345253,822.5) translate(0 17.1)"/><use xlink:href="#I" transform="matrix(1,0,0,1,697.0307536904626,854.5) translate(0 17.099999999999998)"/><use xlink:href="#B" transform="matrix(1,0,0,1,818.2307281345253,854.5) translate(0 17.1)"/><use xlink:href="#T" transform="matrix(1,0,0,1,697.0307536904626,886.5) translate(0 17.1)"/><use xlink:href="#B" transform="matrix(1,0,0,1,818.2307281345253,886.5) translate(0 17.1)"/><use xlink:href="#K" transform="matrix(1,0,0,1,697.0307536904626,918.5) translate(0 17.1)"/><use xlink:href="#L" transform="matrix(1,0,0,1,818.2307281345253,918.5) translate(0 17.1)"/><path d="M1021.5 205c0-2.76 2.24-5 5-5h332.54c2.77 0 5 2.24 5 5v222c0 2.76-2.23 5-5 5H1026.5c-2.76 0-5-2.24-5-5z" fill="#ffc374"/><path d="M1021.5 200h342.54v40H1021.5z" fill="#cc9c5d"/><path d="M1021.5 205c0-2.76 2.24-5 5-5h332.54c2.77 0 5 2.24 5 5v222c0 2.76-2.23 5-5 5H1026.5c-2.76 0-5-2.24-5-5zM1021.5 240h342.54M1081.5 240v192M1222.77 240v192" stroke="#000" fill="none"/><use xlink:href="#ak" transform="matrix(1,0,0,1,1031.5,200) translate(0 23.6)"/><use xlink:href="#s" transform="matrix(1,0,0,1,1026.5,242.5) translate(0 17.1)"/><use xlink:href="#al" transform="matrix(1,0,0,1,1086.5,242.5) translate(0 17.1)"/><use xlink:href="#u" transform="matrix(1,0,0,1,1227.7722371919742,242.5) translate(0 17.1)"/><use xlink:href="#v" transform="matrix(1,0,0,1,1026.5,274.5) translate(0 17.1)"/><use xlink:href="#w" transform="matrix(1,0,0,1,1086.5,274.5) translate(0 17.1)"/><use xlink:href="#u" transform="matrix(1,0,0,1,1227.7722371919742,274.5) translate(0 17.1)"/><use xlink:href="#v" transform="matrix(1,0,0,1,1026.5,306.5) translate(0 17.1)"/><use xlink:href="#t" transform="matrix(1,0,0,1,1086.5,306.5) translate(0 17.1)"/><use xlink:href="#u" transform="matrix(1,0,0,1,1227.7722371919742,306.5) translate(0 17.1)"/><use xlink:href="#am" transform="matrix(1,0,0,1,1086.5,338.5) translate(0 17.1)"/><use xlink:href="#z" transform="matrix(1,0,0,1,1227.7722371919742,338.5) translate(0 17.1)"/><use xlink:href="#A" transform="matrix(1,0,0,1,1086.5,370.5) translate(0 17.1)"/><use xlink:href="#B" transform="matrix(1,0,0,1,1227.7722371919742,370.5) translate(0 17.1)"/><use xlink:href="#C" transform="matrix(1,0,0,1,1086.5,402.5) translate(0 17.1)"/><use xlink:href="#B" transform="matrix(1,0,0,1,1227.7722371919742,402.5) translate(0 17.1)"/><path d="M645.13 983.84c0-2.76 2.24-5 5-5H941.6c2.75 0 5 2.24 5 5v190c0 2.76-2.25 5-5 5H650.12c-2.76 0-5-2.24-5-5z" fill="#83bbe5"/><path d="M645.13 978.84H946.6v40H645.12z" fill="#6996b7"/><path d="M645.13 983.84c0-2.76 2.24-5 5-5H941.6c2.75 0 5 2.24 5 5v190c0 2.76-2.25 5-5 5H650.12c-2.76 0-5-2.24-5-5zM645.13 1018.84H946.6M725.47 1018.84v160M836.84 1018.84v160" stroke="#000" fill="none"/><use xlink:href="#an" transform="matrix(1,0,0,1,655.1334231518452,978.8379158232394) translate(0 23.6)"/><use xlink:href="#ad" transform="matrix(1,0,0,1,650.1334231518452,1021.3379158232394) translate(0 17.1)"/><use xlink:href="#ae" transform="matrix(1,0,0,1,650.1334231518452,1021.3379158232394) translate(34.95 17.1)"/><use xlink:href="#w" transform="matrix(1,0,0,1,730.4692148245296,1021.3379158232394) translate(0 17.1)"/><use xlink:href="#u" transform="matrix(1,0,0,1,841.8435065014697,1021.3379158232394) translate(0 17.1)"/><use xlink:href="#ad" transform="matrix(1,0,0,1,650.1334231518452,1053.3379158232394) translate(0 17.1)"/><use xlink:href="#ae" transform="matrix(1,0,0,1,650.1334231518452,1053.3379158232394) translate(34.95 17.1)"/><use xlink:href="#ao" transform="matrix(1,0,0,1,730.4692148245296,1053.3379158232394) translate(0 17.1)"/><use xlink:href="#u" transform="matrix(1,0,0,1,841.8435065014697,1053.3379158232394) translate(0 17.1)"/><use xlink:href="#A" transform="matrix(1,0,0,1,730.4692148245296,1085.3379158232394) translate(0 17.1)"/><use xlink:href="#B" transform="matrix(1,0,0,1,841.8435065014697,1085.3379158232394) translate(0 17.1)"/><use xlink:href="#C" transform="matrix(1,0,0,1,730.4692148245296,1117.3379158232394) translate(0 17.1)"/><use xlink:href="#B" transform="matrix(1,0,0,1,841.8435065014697,1117.3379158232394) translate(0 17.1)"/><use xlink:href="#ap" transform="matrix(1,0,0,1,730.4692148245296,1149.3379158232394) translate(0 17.1)"/><use xlink:href="#L" transform="matrix(1,0,0,1,841.8435065014697,1149.3379158232394) translate(0 17.1)"/><path d="M559.5 256H512c-6.63 0-12 5.37-12 12v258c0 6.63 5.37 12 12 12h46c6.63 0 12 5.37 12 12v246c0 6.63-5.37 12-12 12h-35.96" stroke="#b391b5" stroke-width="2" fill="none"/><path d="M569.5 246v20M579.5 256h-20M559.5 246v20M483.5 798l20 10-20 10M483.5 808h20M523.5 808c0 5.52-4.5 10-10 10-5.53 0-10-4.48-10-10s4.47-10 10-10c5.5 0 10 4.48 10 10" stroke="#b391b5" stroke-width="2" fill="#fff"/><path d="M942.36 676h7.32c6.63 0 12-5.37 12-12v-84c0-6.63 5.37-12 12-12H981" stroke="#a3d977" stroke-width="2" fill="none"/><path d="M932.36 686v-20M922.36 676h20M942.36 686v-20M1000.55 578l-20-10 20-10M1000.55 568h-20M980.55 558v20" stroke="#a3d977" stroke-width="2" fill="#fff"/><path d="M1323.46 600h7.52c6.2 0 11.25-5.04 11.25-11.25 0-6.2 5.03-11.25 11.25-11.25h7.52" stroke="#c92d39" stroke-width="2" fill="none"/><path d="M1303.9 590l20 10-20 10M1303.9 600h20M1323.9 610v-20M1371 567.5v20M1381 577.5h-20M1361 567.5v20" stroke="#c92d39" stroke-width="2" fill="#fff"/><path d="M1001 288h-17.32c-6.63 0-12 5.37-12 12v364c0 6.63-5.37 12-12 12h-17.32" stroke="#834187" stroke-width="2" fill="none"/><path d="M1020.55 298l-20-10 20-10M1020.55 288h-20M1000.55 278v20M932.36 686v-20M922.36 676h20M942.36 686v-20" stroke="#834187" stroke-width="2" fill="#fff"/><path d="M1001 320h-28c-6.63 0-12 5.37-12 12v192c0 6.63 5.37 12 12 12h8" stroke="#3aa6dd" stroke-width="2" fill="none"/><path d="M1020.55 330l-20-10 20-10M1020.55 320h-20M1000.55 310v20M991 526v20M1001 536h-20M981 526v20" stroke="#3aa6dd" stroke-width="2" fill="#fff"/><path d="M624.63 1034.84H572c-6.63 0-12-5.37-12-12V670.5c0-5.8 4.7-10.5 10.5-10.5h2.5c4.42 0 8 3.58 8 8s3.58 8 8 8h12" stroke="#834187" stroke-width="2" fill="none"/><path d="M644.2 1044.84l-20-10 20-10M644.2 1034.84h-20M624.2 1024.84v20M611 666v20M621 676h-20M601 666v20" stroke="#834187" stroke-width="2" fill="#fff"/><path d="M1381.5 865c0-2.76 2.24-5 5-5h290.36c2.77 0 5 2.24 5 5v190c0 2.76-2.23 5-5 5H1386.5c-2.76 0-5-2.24-5-5z" fill="#ffc374"/><path d="M1381.5 860h300.36v40H1381.5z" fill="#cc9c5d"/><path d="M1381.5 865c0-2.76 2.24-5 5-5h290.36c2.77 0 5 2.24 5 5v190c0 2.76-2.23 5-5 5H1386.5c-2.76 0-5-2.24-5-5zM1381.5 900h300.36M1429.5 900v160M1576.94 900v160" stroke="#000" fill="none"/><use xlink:href="#aq" transform="matrix(1,0,0,1,1391.5,860) translate(0 23.6)"/><use xlink:href="#s" transform="matrix(1,0,0,1,1386.5,902.5) translate(0 17.1)"/><use xlink:href="#ar" transform="matrix(1,0,0,1,1434.4999839726825,902.5) translate(0 17.1)"/><use xlink:href="#u" transform="matrix(1,0,0,1,1581.9373523062402,902.5) translate(0 17.1)"/><use xlink:href="#X" transform="matrix(1,0,0,1,1434.4999839726825,934.5) translate(0 17.1)"/><use xlink:href="#z" transform="matrix(1,0,0,1,1581.9373523062402,934.5) translate(0 17.1)"/><use xlink:href="#A" transform="matrix(1,0,0,1,1434.4999839726825,966.5) translate(0 17.1)"/><use xlink:href="#B" transform="matrix(1,0,0,1,1581.9373523062402,966.5) translate(0 17.1)"/><use xlink:href="#C" transform="matrix(1,0,0,1,1434.4999839726825,998.5) translate(0 17.1)"/><use xlink:href="#B" transform="matrix(1,0,0,1,1581.9373523062402,998.5) translate(0 17.1)"/><use xlink:href="#ap" transform="matrix(1,0,0,1,1434.4999839726825,1030.5) translate(0 17.1)"/><use xlink:href="#L" transform="matrix(1,0,0,1,1581.9373523062402,1030.5) translate(0 17.1)"/><path d="M1361 609.5c-6.08 0-11 4.92-11 11V718c0 6.63-5.37 12-12 12H972c-6.63 0-12-5.37-12-12v-30c0-6.63-5.37-12-12-12h-5.64" stroke="#0c7cba" stroke-width="2" fill="none"/><path d="M1380.55 619.5l-20-10 20-10M1380.55 609.5h-20M1360.55 599.5v20M932.36 686v-20M922.36 676h20M942.36 686v-20" stroke="#0c7cba" stroke-width="2" fill="#fff"/><path d="M1361 641.5h-8c-6.63 0-12 5.37-12 12V904c0 6.63 5.37 12 12 12h8" stroke="#ef8d22" stroke-width="2" fill="none"/><path d="M1380.55 651.5l-20-10 20-10M1380.55 641.5h-20M1360.55 631.5v20M1371 906v20M1381 916h-20M1361 906v20" stroke="#ef8d22" stroke-width="2" fill="#fff"/><path d="M840 520h79" stroke="#834187" stroke-width="2" fill="none"/><path d="M830 530v-20M820 520h20M840 530v-20" stroke="#834187" stroke-width="2" fill="#fff"/><path d="M918.97 520H920" stroke="#834187" stroke-width="2" fill="none"/><path d="M801.5 560h79" stroke="#a3d977" stroke-width="2" fill="none"/><path d="M791.5 570v-20M781.5 560h20M801.5 570v-20" stroke="#a3d977" stroke-width="2" fill="#fff"/><path d="M880.47 560h1.03" stroke="#a3d977" stroke-width="2" fill="none"/><path d="M760 600h79" stroke="#0c7cba" stroke-width="2" fill="none"/><path d="M750 610v-20M740 600h20M760 610v-20" stroke="#0c7cba" stroke-width="2" fill="#fff"/><path d="M838.97 600H840" stroke="#0c7cba" stroke-width="2" fill="none"/><path d="M920 520.5v5.34m0 5.34v10.68m0 5.34v10.68m0 5.34v10.68m0 5.34v10.7m0 5.33v10.68m0 5.34v5.33l.4 3.1 1.2 2.9m4.4 4.4l2.9 1.2 3.1.4h3.88m3.9 0h7.75m3.9 0h3.87M920 520.5v-.5" stroke="#de5f85" fill="none"/><path d="M970.06 628.63l-14.26 4.63V624z" stroke="#de5f85" fill="#fff"/><path d="M880.26 560.5v4.6m0 4.6v9.18m0 4.6v9.18m0 4.6v9.2m0 4.58v9.2m0 4.6v4.58l.4 3.1 1.2 2.9m4.4 4.4l2.9 1.2 3.1.4h4.42m4.42 0h8.84m4.42 0h8.84m4.42 0h8.84m4.42 0h4.42M880.26 560.5v-.5" stroke="#a3d977" fill="none"/><path d="M960.06 641.42l-14.26 4.64v-9.27z" stroke="#a3d977" fill="#fff"/><path d="M840.5 600h5.37m5.37 0h10.74m5.38 0h10.74m5.37 0h5.37l3.12.4 2.87 1.2m4.4 4.4l1.2 2.9.4 3.1v4.6m0 4.63v9.22m0 4.62v9.22m0 4.6v9.23m0 4.62v9.22m0 4.62v9.2m0 4.63v4.6l.42 3.12 1.2 2.88m4.4 4.4l2.88 1.2 3.1.4h5.42m5.4 0h10.83m5.4 0h5.42M840.5 600h-.5" stroke="#0c7cba" fill="none"/><path d="M960.06 707.04l-14.26 4.64v-9.28z" stroke="#0c7cba" fill="#fff"/><path d="M101 985c0-2.76 2.24-5 5-5h230c2.76 0 5 2.24 5 5v126c0 2.76-2.24 5-5 5H106c-2.76 0-5-2.24-5-5z" fill="#f5b5c8"/><path d="M101 980h240v40H101z" fill="#c491a0"/><path d="M101 985c0-2.76 2.24-5 5-5h230c2.76 0 5 2.24 5 5v126c0 2.76-2.24 5-5 5H106c-2.76 0-5-2.24-5-5zM101 1020h240M145.46 1020v96M247.7 1020v96" stroke="#000" stroke-width="2" fill="none"/><use xlink:href="#as" transform="matrix(1,0,0,1,111,980) translate(0 23.6)"/><use xlink:href="#s" transform="matrix(1,0,0,1,106,1022.5) translate(0 17.1)"/><use xlink:href="#ab" transform="matrix(1,0,0,1,150.4550380660665,1022.5) translate(0 17.1)"/><use xlink:href="#u" transform="matrix(1,0,0,1,252.68956314630464,1022.5) translate(0 17.1)"/><use xlink:href="#X" transform="matrix(1,0,0,1,150.4550380660665,1054.5) translate(0 17.1)"/><use xlink:href="#z" transform="matrix(1,0,0,1,252.68956314630464,1054.5) translate(0 17.1)"/><use xlink:href="#v" transform="matrix(1,0,0,1,106,1086.5) translate(0 17.1)"/><use xlink:href="#at" transform="matrix(1,0,0,1,150.4550380660665,1086.5) translate(0 17.1)"/><use xlink:href="#u" transform="matrix(1,0,0,1,252.68956314630464,1086.5) translate(0 17.1)"/><path d="M40 1245c0-2.76 2.24-5 5-5h230c2.76 0 5 2.24 5 5v94c0 2.76-2.24 5-5 5H45c-2.76 0-5-2.24-5-5z" fill="#f5b5c8"/><path d="M40 1240h240v40H40z" fill="#c491a0"/><path d="M40 1245c0-2.76 2.24-5 5-5h230c2.76 0 5 2.24 5 5v94c0 2.76-2.24 5-5 5H45c-2.76 0-5-2.24-5-5zM40 1280h240M86 1280v64M197.92 1280v64" stroke="#000" stroke-width="2" fill="none"/><use xlink:href="#au" transform="matrix(1,0,0,1,49.999999999999986,1240) translate(0 23.6)"/><use xlink:href="#s" transform="matrix(1,0,0,1,44.999999999999986,1282.5) translate(0 17.1)"/><use xlink:href="#av" transform="matrix(1,0,0,1,90.99753518389845,1282.5) translate(0 17.1)"/><use xlink:href="#u" transform="matrix(1,0,0,1,202.9154863276034,1282.5) translate(0 17.1)"/><use xlink:href="#X" transform="matrix(1,0,0,1,90.99753518389845,1314.5) translate(0 17.1)"/><use xlink:href="#z" transform="matrix(1,0,0,1,202.9154863276034,1314.5) translate(0 17.1)"/><path d="M344.96 1280h-13.98c-4.42 0-8 3.58-8 8s-3.58 8-8 8H301" stroke="#0c7cba" stroke-width="2" fill="none"/><path d="M364.5 1290l-20-10 20-10M364.5 1280h-20M344.5 1270v20M291 1306v-20M281 1296h20M301 1306v-20" stroke="#0c7cba" stroke-width="2" fill="#fff"/><path d="M119.5 776H72c-6.63 0-12 5.37-12 12v236c0 6.63 5.37 12 12 12h8" stroke="#7ab648" stroke-width="2" fill="none"/><path d="M139.05 786l-20-10 20-10M139.05 776h-20M119.05 766v20M90 1026v20M100 1036H80M80 1026v20" stroke="#7ab648" stroke-width="2" fill="#fff"/><path d="M559.5 416H552c-6.63 0-12 5.37-12 12v596c0 6.63-5.37 12-12 12H362" stroke="#fcc438" stroke-width="2" fill="none"/><path d="M579.05 426l-20-10 20-10M579.05 416h-20M559.05 406v20M352 1046v-20M342 1036h20M362 1046v-20" stroke="#fcc438" stroke-width="2" fill="#fff"/><path d="M80 397c0-2.76 2.24-5 5-5h332.54c2.77 0 5 2.24 5 5v94c0 2.76-2.23 5-5 5H85c-2.76 0-5-2.24-5-5z" fill="#83bbe5"/><path d="M80 392h342.54v40H80z" fill="#6996b7"/><path d="M80 397c0-2.76 2.24-5 5-5h332.54c2.77 0 5 2.24 5 5v94c0 2.76-2.23 5-5 5H85c-2.76 0-5-2.24-5-5zM80 432h342.54M127.5 432v64M317.7 432v64" stroke="#000" fill="none"/><use xlink:href="#aw" transform="matrix(1,0,0,1,90,392) translate(0 23.6)"/><use xlink:href="#s" transform="matrix(1,0,0,1,85,434.5) translate(0 17.1)"/><use xlink:href="#af" transform="matrix(1,0,0,1,132.48829365909694,434.5) translate(0 17.1)"/><use xlink:href="#u" transform="matrix(1,0,0,1,322.6997852797556,434.5) translate(0 17.1)"/><use xlink:href="#ax" transform="matrix(1,0,0,1,132.48829365909694,466.5) translate(0 17.1)"/><use xlink:href="#z" transform="matrix(1,0,0,1,322.6997852797556,466.5) translate(0 17.1)"/><path d="M443.04 448h66.98c6.63 0 12 5.37 12 12v236c0 6.63 5.37 12 12 12H601" stroke="#0c7cba" stroke-width="2" fill="none"/><path d="M433.04 458v-20M423.04 448h20M443.04 458v-20M620.55 718l-20-10 20-10M620.55 708h-20M600.55 698v20" stroke="#0c7cba" stroke-width="2" fill="#fff"/><path d="M503.04 616h36.98c6.63 0 12 5.37 12 12v36c0 6.63 5.37 12 12 12H601" stroke="#ef8d22" stroke-width="2" fill="none"/><path d="M493.04 626v-20M483.04 616h20M503.04 626v-20M611 666v20M621 676h-20M601 666v20" stroke="#ef8d22" stroke-width="2" fill="#fff"/><path d="M601 676c-6.08 0-11 4.92-11 11v367.84c0 6.63 5.37 12 12 12h22.63" stroke="#19967d" stroke-width="2" fill="none"/><path d="M611 666v20M621 676h-20M601 666v20M644.2 1076.84l-20-10 20-10M644.2 1066.84h-20M624.2 1056.84v20" stroke="#19967d" stroke-width="2" fill="#fff"/><path d="M365.96 1165c0-2.76 2.24-5 5-5H595c2.76 0 5 2.24 5 5v126c0 2.76-2.24 5-5 5H370.96c-2.76 0-5-2.24-5-5z" fill="#f5b5c8"/><path d="M365.96 1160H600v40H365.96z" fill="#c491a0"/><path d="M365.96 1165c0-2.76 2.24-5 5-5H595c2.76 0 5 2.24 5 5v126c0 2.76-2.24 5-5 5H370.96c-2.76 0-5-2.24-5-5zM365.96 1200H600M411.94 1200v96M514.53 1200v96" stroke="#000" stroke-width="2" fill="none"/><g><use xlink:href="#ay" transform="matrix(1,0,0,1,375.95736456049923,1160) translate(0 23.6)"/></g><g><use xlink:href="#s" transform="matrix(1,0,0,1,370.95736456049923,1202.5) translate(0 17.1)"/></g><g><use xlink:href="#at" transform="matrix(1,0,0,1,416.94039813124357,1202.5) translate(0 17.1)"/></g><g><use xlink:href="#u" transform="matrix(1,0,0,1,519.5318533463064,1202.5) translate(0 17.1)"/></g><g><use xlink:href="#X" transform="matrix(1,0,0,1,416.94039813124357,1234.5) translate(0 17.1)"/></g><g><use xlink:href="#z" transform="matrix(1,0,0,1,519.5318533463064,1234.5) translate(0 17.1)"/></g><g><use xlink:href="#av" transform="matrix(1,0,0,1,416.94039813124357,1266.5) translate(0 17.1)"/></g><g><use xlink:href="#u" transform="matrix(1,0,0,1,519.5318533463064,1266.5) translate(0 17.1)"/></g><path d="M80 1100h-8c-6.63 0-12 5.37-12 12v92c0 6.63 5.37 12 12 12h272.96" stroke="#c92d39" stroke-width="2" fill="none"/><path d="M99.55 1110l-20-10 20-10M99.55 1100h-20M79.55 1090v20M354.96 1206v20M364.96 1216h-20M344.96 1206v20" stroke="#c92d39" stroke-width="2" fill="#fff"/><defs><path d="M173 0L80-213 41 0H11l48-248h37l94 214 40-214h30L212 0h-39" id="az"/><path d="M30-147c31-64 166-65 159 27C183-49 158 1 86 4 9 8 1-88 30-147zM88-20c53 0 68-48 68-100 0-31-11-51-44-50-52 1-68 46-68 97 0 32 13 53 44 53" id="aA"/><path d="M51-54c-9 22 5 41 31 30L79-1C43 14 10-4 19-52l22-115H19l5-23h22l19-43h21l-9 43h35l-4 23H73" id="aB"/><path d="M111-194c62-3 86 47 72 106H45c-7 38 6 69 45 68 27-1 43-14 53-32l24 11C152-15 129 4 87 4 38 3 12-23 12-71c0-70 32-119 99-123zm44 81c14-66-71-72-95-28-4 8-8 17-11 28h106" id="aC"/><path d="M44-154l7-36h35l-8 36H44zM14 0l7-36h35L49 0H14" id="aD"/><g id="a"><use transform="matrix(0.03765432098765432,0,0,0.03765432098765432,0,0)" xlink:href="#az"/><use transform="matrix(0.03765432098765432,0,0,0.03765432098765432,9.752469135802468,0)" xlink:href="#aA"/><use transform="matrix(0.03765432098765432,0,0,0.03765432098765432,17.28333333333333,0)" xlink:href="#aB"/><use transform="matrix(0.03765432098765432,0,0,0.03765432098765432,21.048765432098765,0)" xlink:href="#aC"/><use transform="matrix(0.03765432098765432,0,0,0.03765432098765432,28.579629629629625,0)" xlink:href="#aD"/></g><path d="M135-143c-3-34-86-38-87 0 15 53 115 12 119 90S17 21 10-45l28-5c4 36 97 45 98 0-10-56-113-15-118-90-4-57 82-63 122-42 12 7 21 19 24 35" id="aE"/><path d="M24-231v-30h32v30H24zM24 0v-190h32V0H24" id="aF"/><path d="M210-169c-67 3-38 105-44 169h-31v-121c0-29-5-50-35-48C34-165 62-65 56 0H25l-1-190h30c1 10-1 24 2 32 10-44 99-50 107 0 11-21 27-35 58-36 85-2 47 119 55 194h-31v-121c0-29-5-49-35-48" id="aG"/><path d="M24 0v-261h32V0H24" id="aH"/><path d="M141-36C126-15 110 5 73 4 37 3 15-17 15-53c-1-64 63-63 125-63 3-35-9-54-41-54-24 1-41 7-42 31l-33-3c5-37 33-52 76-52 45 0 72 20 72 64v82c-1 20 7 32 28 27v20c-31 9-61-2-59-35zM48-53c0 20 12 33 32 33 41-3 63-29 60-74-43 2-92-5-92 41" id="aI"/><path d="M114-163C36-179 61-72 57 0H25l-1-190h30c1 12-1 29 2 39 6-27 23-49 58-41v29" id="aJ"/><g id="b"><use transform="matrix(0.03765432098765432,0,0,0.03765432098765432,0,0)" xlink:href="#aE"/><use transform="matrix(0.03765432098765432,0,0,0.03765432098765432,6.777777777777777,0)" xlink:href="#aF"/><use transform="matrix(0.03765432098765432,0,0,0.03765432098765432,9.752469135802468,0)" xlink:href="#aG"/><use transform="matrix(0.03765432098765432,0,0,0.03765432098765432,21.01111111111111,0)" xlink:href="#aF"/><use transform="matrix(0.03765432098765432,0,0,0.03765432098765432,23.985802469135802,0)" xlink:href="#aH"/><use transform="matrix(0.03765432098765432,0,0,0.03765432098765432,26.960493827160494,0)" xlink:href="#aI"/><use transform="matrix(0.03765432098765432,0,0,0.03765432098765432,34.49135802469136,0)" xlink:href="#aJ"/></g><path d="M100-194c63 0 86 42 84 106H49c0 40 14 67 53 68 26 1 43-12 49-29l28 8c-11 28-37 45-77 45C44 4 14-33 15-96c1-61 26-98 85-98zm52 81c6-60-76-77-97-28-3 7-6 17-6 28h103" id="aK"/><path d="M115-194c55 1 70 41 70 98S169 2 115 4C84 4 66-9 55-30l1 105H24l-1-265h31l2 30c10-21 28-34 59-34zm-8 174c40 0 45-34 45-75s-6-73-45-74c-42 0-51 32-51 76 0 43 10 73 51 73" id="aL"/><path d="M117-194c89-4 53 116 60 194h-32v-121c0-31-8-49-39-48C34-167 62-67 57 0H25l-1-190h30c1 10-1 24 2 32 11-22 29-35 61-36" id="aM"/><path d="M59-47c-2 24 18 29 38 22v24C64 9 27 4 27-40v-127H5v-23h24l9-43h21v43h35v23H59v120" id="aN"/><path d="M100-194c62-1 85 37 85 99 1 63-27 99-86 99S16-35 15-95c0-66 28-99 85-99zM99-20c44 1 53-31 53-75 0-43-8-75-51-75s-53 32-53 75 10 74 51 75" id="aO"/><g id="c"><use transform="matrix(0.03765432098765432,0,0,0.03765432098765432,0,0)" xlink:href="#aJ"/><use transform="matrix(0.03765432098765432,0,0,0.03765432098765432,4.480864197530864,0)" xlink:href="#aK"/><use transform="matrix(0.03765432098765432,0,0,0.03765432098765432,12.011728395061727,0)" xlink:href="#aL"/><use transform="matrix(0.03765432098765432,0,0,0.03765432098765432,19.54259259259259,0)" xlink:href="#aJ"/><use transform="matrix(0.03765432098765432,0,0,0.03765432098765432,24.023456790123454,0)" xlink:href="#aK"/><use transform="matrix(0.03765432098765432,0,0,0.03765432098765432,31.554320987654318,0)" xlink:href="#aE"/><use transform="matrix(0.03765432098765432,0,0,0.03765432098765432,38.33209876543209,0)" xlink:href="#aK"/><use transform="matrix(0.03765432098765432,0,0,0.03765432098765432,45.86296296296295,0)" xlink:href="#aM"/><use transform="matrix(0.03765432098765432,0,0,0.03765432098765432,53.393827160493814,0)" xlink:href="#aN"/><use transform="matrix(0.03765432098765432,0,0,0.03765432098765432,57.159259259259244,0)" xlink:href="#aI"/><use transform="matrix(0.03765432098765432,0,0,0.03765432098765432,64.6901234567901,0)" xlink:href="#aN"/><use transform="matrix(0.03765432098765432,0,0,0.03765432098765432,68.45555555555553,0)" xlink:href="#aF"/><use transform="matrix(0.03765432098765432,0,0,0.03765432098765432,71.43024691358022,0)" xlink:href="#aO"/><use transform="matrix(0.03765432098765432,0,0,0.03765432098765432,78.96111111111108,0)" xlink:href="#aM"/></g><path d="M101-234c-31-9-42 10-38 44h38v23H63V0H32v-167H5v-23h27c-7-52 17-82 69-68v24" id="aP"/><g id="d"><use transform="matrix(0.03765432098765432,0,0,0.03765432098765432,0,0)" xlink:href="#aP"/><use transform="matrix(0.03765432098765432,0,0,0.03765432098765432,3.765432098765432,0)" xlink:href="#aO"/><use transform="matrix(0.03765432098765432,0,0,0.03765432098765432,11.296296296296296,0)" xlink:href="#aJ"/></g><path d="M108 0H70L1-190h34L89-25l56-165h34" id="aQ"/><path d="M179-190L93 31C79 59 56 82 12 73V49c39 6 53-20 64-50L1-190h34L92-34l54-156h33" id="aR"/><g id="e"><use transform="matrix(0.03765432098765432,0,0,0.03765432098765432,0,0)" xlink:href="#aK"/><use transform="matrix(0.03765432098765432,0,0,0.03765432098765432,7.530864197530864,0)" xlink:href="#aQ"/><use transform="matrix(0.03765432098765432,0,0,0.03765432098765432,14.30864197530864,0)" xlink:href="#aK"/><use transform="matrix(0.03765432098765432,0,0,0.03765432098765432,21.83950617283951,0)" xlink:href="#aJ"/><use transform="matrix(0.03765432098765432,0,0,0.03765432098765432,26.32037037037037,0)" xlink:href="#aR"/></g><path d="M96-169c-40 0-48 33-48 73s9 75 48 75c24 0 41-14 43-38l32 2c-6 37-31 61-74 61-59 0-76-41-82-99-10-93 101-131 147-64 4 7 5 14 7 22l-32 3c-4-21-16-35-41-35" id="aS"/><g id="f"><use transform="matrix(0.03765432098765432,0,0,0.03765432098765432,0,0)" xlink:href="#aS"/><use transform="matrix(0.03765432098765432,0,0,0.03765432098765432,6.777777777777777,0)" xlink:href="#aI"/><use transform="matrix(0.03765432098765432,0,0,0.03765432098765432,14.30864197530864,0)" xlink:href="#aE"/><use transform="matrix(0.03765432098765432,0,0,0.03765432098765432,21.086419753086417,0)" xlink:href="#aK"/></g><path fill="#b2b2b2" d="M24 0v-248h195v40H76v63h132v40H76v65h150V0H24" id="aT"/><path fill="#b2b2b2" d="M24-248c120-7 223 5 221 122C244-46 201 0 124 0H24v-248zM76-40c74 7 117-18 117-86 0-67-45-88-117-82v168" id="aU"/><path fill="#b2b2b2" d="M238-95c0 69-44 99-111 99C63 4 22-25 22-93v-155h51v151c-1 38 19 59 55 60 90 1 49-130 58-211h52v153" id="aV"/><path fill="#b2b2b2" d="M67-125c0 53 21 87 73 88 37 1 54-22 65-47l45 17C233-25 199 4 140 4 58 4 20-42 15-125 8-235 124-281 211-232c18 10 29 29 36 50l-46 12c-8-25-30-41-62-41-52 0-71 34-72 86" id="aW"/><path fill="#b2b2b2" d="M199 0l-22-63H83L61 0H9l90-248h61L250 0h-51zm-33-102l-36-108c-10 38-24 72-36 108h72" id="aX"/><path fill="#b2b2b2" d="M136-208V0H84v-208H4v-40h212v40h-80" id="aY"/><path fill="#b2b2b2" d="M24 0v-248h52V0H24" id="aZ"/><path fill="#b2b2b2" d="M140-251c80 0 125 45 125 126S219 4 139 4C58 4 15-44 15-125s44-126 125-126zm-1 214c52 0 73-35 73-88 0-50-21-86-72-86-52 0-73 35-73 86s22 88 72 88" id="ba"/><path fill="#b2b2b2" d="M175 0L67-191c6 58 2 128 3 191H24v-248h59L193-55c-6-58-2-129-3-193h46V0h-61" id="bb"/><path fill="#b2b2b2" d="M24 0v-248h52v208h133V0H24" id="bc"/><g id="g"><use transform="matrix(0.07407407407407408,0,0,0.07407407407407408,0,0)" xlink:href="#aT"/><use transform="matrix(0.07407407407407408,0,0,0.07407407407407408,17.77777777777778,0)" xlink:href="#aU"/><use transform="matrix(0.07407407407407408,0,0,0.07407407407407408,36.96296296296296,0)" xlink:href="#aV"/><use transform="matrix(0.07407407407407408,0,0,0.07407407407407408,56.14814814814815,0)" xlink:href="#aW"/><use transform="matrix(0.07407407407407408,0,0,0.07407407407407408,75.33333333333334,0)" xlink:href="#aX"/><use transform="matrix(0.07407407407407408,0,0,0.07407407407407408,92.51851851851853,0)" xlink:href="#aY"/><use transform="matrix(0.07407407407407408,0,0,0.07407407407407408,108.74074074074076,0)" xlink:href="#aZ"/><use transform="matrix(0.07407407407407408,0,0,0.07407407407407408,116.14814814814817,0)" xlink:href="#ba"/><use transform="matrix(0.07407407407407408,0,0,0.07407407407407408,136.8888888888889,0)" xlink:href="#bb"/><use transform="matrix(0.07407407407407408,0,0,0.07407407407407408,156.0740740740741,0)" xlink:href="#aX"/><use transform="matrix(0.07407407407407408,0,0,0.07407407407407408,175.2592592592593,0)" xlink:href="#bc"/></g><path fill="#b2b2b2" d="M182-130c37 4 62 22 62 59C244 23 116-4 24 0v-248c84 5 203-23 205 63 0 31-19 50-47 55zM76-148c40-3 101 13 101-30 0-44-60-28-101-31v61zm0 110c48-3 116 14 116-37 0-48-69-32-116-35v72" id="bd"/><path fill="#b2b2b2" d="M67-125c0 54 23 88 75 88 28 0 53-7 68-21v-34h-60v-39h108v91C232-14 192 4 140 4 58 4 20-42 15-125 8-236 126-280 215-234c19 10 29 26 37 47l-47 15c-11-23-29-39-63-39-53 1-75 33-75 86" id="be"/><g id="h"><use transform="matrix(0.07407407407407408,0,0,0.07407407407407408,0,0)" xlink:href="#bd"/><use transform="matrix(0.07407407407407408,0,0,0.07407407407407408,19.185185185185187,0)" xlink:href="#bc"/><use transform="matrix(0.07407407407407408,0,0,0.07407407407407408,35.40740740740741,0)" xlink:href="#ba"/><use transform="matrix(0.07407407407407408,0,0,0.07407407407407408,56.14814814814815,0)" xlink:href="#be"/></g><path fill="#b2b2b2" d="M169-182c-1-43-94-46-97-3 18 66 151 10 154 114 3 95-165 93-204 36-6-8-10-19-12-30l50-8c3 46 112 56 116 5-17-69-150-10-154-114-4-87 153-88 188-35 5 8 8 18 10 28" id="bf"/><g id="i"><use transform="matrix(0.07407407407407408,0,0,0.07407407407407408,0,0)" xlink:href="#bf"/><use transform="matrix(0.07407407407407408,0,0,0.07407407407407408,17.77777777777778,0)" xlink:href="#aZ"/><use transform="matrix(0.07407407407407408,0,0,0.07407407407407408,25.185185185185187,0)" xlink:href="#aY"/><use transform="matrix(0.07407407407407408,0,0,0.07407407407407408,41.40740740740741,0)" xlink:href="#aT"/></g><g id="j"><use transform="matrix(0.07407407407407408,0,0,0.07407407407407408,0,0)" xlink:href="#aU"/><use transform="matrix(0.07407407407407408,0,0,0.07407407407407408,19.185185185185187,0)" xlink:href="#aX"/><use transform="matrix(0.07407407407407408,0,0,0.07407407407407408,36.370370370370374,0)" xlink:href="#aY"/><use transform="matrix(0.07407407407407408,0,0,0.07407407407407408,50.5925925925926,0)" xlink:href="#aX"/><use transform="matrix(0.07407407407407408,0,0,0.07407407407407408,69.77777777777779,0)" xlink:href="#bd"/><use transform="matrix(0.07407407407407408,0,0,0.07407407407407408,88.96296296296298,0)" xlink:href="#aX"/><use transform="matrix(0.07407407407407408,0,0,0.07407407407407408,108.14814814814817,0)" xlink:href="#bf"/><use transform="matrix(0.07407407407407408,0,0,0.07407407407407408,125.92592592592597,0)" xlink:href="#aT"/></g><path fill="#b2b2b2" d="M205 0l-28-72H64L36 0H1l101-248h38L239 0h-34zm-38-99l-47-123c-12 45-31 82-46 123h93" id="bg"/><path fill="#b2b2b2" d="M117-194c89-4 53 116 60 194h-32v-121c0-31-8-49-39-48C34-167 62-67 57 0H25l-1-190h30c1 10-1 24 2 32 11-22 29-35 61-36" id="bh"/><path fill="#b2b2b2" d="M59-47c-2 24 18 29 38 22v24C64 9 27 4 27-40v-127H5v-23h24l9-43h21v43h35v23H59v120" id="bi"/><path fill="#b2b2b2" d="M106-169C34-169 62-67 57 0H25v-261h32l-1 103c12-21 28-36 61-36 89 0 53 116 60 194h-32v-121c2-32-8-49-39-48" id="bj"/><path fill="#b2b2b2" d="M100-194c62-1 85 37 85 99 1 63-27 99-86 99S16-35 15-95c0-66 28-99 85-99zM99-20c44 1 53-31 53-75 0-43-8-75-51-75s-53 32-53 75 10 74 51 75" id="bk"/><path fill="#b2b2b2" d="M179-190L93 31C79 59 56 82 12 73V49c39 6 53-20 64-50L1-190h34L92-34l54-156h33" id="bl"/><g id="k"><use transform="matrix(0.04320987654320988,0,0,0.04320987654320988,0,0)" xlink:href="#bg"/><use transform="matrix(0.04320987654320988,0,0,0.04320987654320988,10.370370370370372,0)" xlink:href="#bh"/><use transform="matrix(0.04320987654320988,0,0,0.04320987654320988,19.01234567901235,0)" xlink:href="#bi"/><use transform="matrix(0.04320987654320988,0,0,0.04320987654320988,23.333333333333336,0)" xlink:href="#bj"/><use transform="matrix(0.04320987654320988,0,0,0.04320987654320988,31.97530864197531,0)" xlink:href="#bk"/><use transform="matrix(0.04320987654320988,0,0,0.04320987654320988,40.617283950617285,0)" xlink:href="#bh"/><use transform="matrix(0.04320987654320988,0,0,0.04320987654320988,49.25925925925925,0)" xlink:href="#bl"/></g><path fill="#b2b2b2" d="M153-248C145-148 188 4 80 4 36 3 13-21 6-62l32-5c4 25 16 42 43 43 27 0 39-20 39-49v-147H72v-28h81" id="bm"/><path fill="#b2b2b2" d="M141-36C126-15 110 5 73 4 37 3 15-17 15-53c-1-64 63-63 125-63 3-35-9-54-41-54-24 1-41 7-42 31l-33-3c5-37 33-52 76-52 45 0 72 20 72 64v82c-1 20 7 32 28 27v20c-31 9-61-2-59-35zM48-53c0 20 12 33 32 33 41-3 63-29 60-74-43 2-92-5-92 41" id="bn"/><g id="l"><use transform="matrix(0.04320987654320988,0,0,0.04320987654320988,0,0)" xlink:href="#bm"/><use transform="matrix(0.04320987654320988,0,0,0.04320987654320988,7.777777777777779,0)" xlink:href="#bn"/><use transform="matrix(0.04320987654320988,0,0,0.04320987654320988,16.419753086419753,0)" xlink:href="#bl"/></g><path fill="#b2b2b2" d="M135-143c-3-34-86-38-87 0 15 53 115 12 119 90S17 21 10-45l28-5c4 36 97 45 98 0-10-56-113-15-118-90-4-57 82-63 122-42 12 7 21 19 24 35" id="bo"/><path fill="#b2b2b2" d="M24-231v-30h32v30H24zM24 0v-190h32V0H24" id="bp"/><g id="m"><use transform="matrix(0.04320987654320988,0,0,0.04320987654320988,0,0)" xlink:href="#bg"/><use transform="matrix(0.04320987654320988,0,0,0.04320987654320988,10.370370370370372,0)" xlink:href="#bh"/><use transform="matrix(0.04320987654320988,0,0,0.04320987654320988,19.01234567901235,0)" xlink:href="#bo"/><use transform="matrix(0.04320987654320988,0,0,0.04320987654320988,26.790123456790127,0)" xlink:href="#bp"/><use transform="matrix(0.04320987654320988,0,0,0.04320987654320988,30.203703703703713,0)" xlink:href="#bi"/></g><path fill="#b2b2b2" d="M32 76v-337h29V76H32" id="bq"/><use transform="matrix(0.04320987654320988,0,0,0.04320987654320988,0,0)" xlink:href="#bq" id="n"/><path fill="#b2b2b2" d="M30-248c118-7 216 8 213 122C240-48 200 0 122 0H30v-248zM63-27c89 8 146-16 146-99s-60-101-146-95v194" id="br"/><path fill="#b2b2b2" d="M100-194c63 0 86 42 84 106H49c0 40 14 67 53 68 26 1 43-12 49-29l28 8c-11 28-37 45-77 45C44 4 14-33 15-96c1-61 26-98 85-98zm52 81c6-60-76-77-97-28-3 7-6 17-6 28h103" id="bs"/><path fill="#b2b2b2" d="M96-169c-40 0-48 33-48 73s9 75 48 75c24 0 41-14 43-38l32 2c-6 37-31 61-74 61-59 0-76-41-82-99-10-93 101-131 147-64 4 7 5 14 7 22l-32 3c-4-21-16-35-41-35" id="bt"/><path fill="#b2b2b2" d="M210-169c-67 3-38 105-44 169h-31v-121c0-29-5-50-35-48C34-165 62-65 56 0H25l-1-190h30c1 10-1 24 2 32 10-44 99-50 107 0 11-21 27-35 58-36 85-2 47 119 55 194h-31v-121c0-29-5-49-35-48" id="bu"/><path fill="#b2b2b2" d="M115-194c53 0 69 39 70 98 0 66-23 100-70 100C84 3 66-7 56-30L54 0H23l1-261h32v101c10-23 28-34 59-34zm-8 174c40 0 45-34 45-75 0-40-5-75-45-74-42 0-51 32-51 76 0 43 10 73 51 73" id="bv"/><path fill="#b2b2b2" d="M114-163C36-179 61-72 57 0H25l-1-190h30c1 12-1 29 2 39 6-27 23-49 58-41v29" id="bw"/><g id="o"><use transform="matrix(0.04320987654320988,0,0,0.04320987654320988,0,0)" xlink:href="#br"/><use transform="matrix(0.04320987654320988,0,0,0.04320987654320988,11.19135802469136,0)" xlink:href="#bs"/><use transform="matrix(0.04320987654320988,0,0,0.04320987654320988,19.833333333333336,0)" xlink:href="#bt"/><use transform="matrix(0.04320987654320988,0,0,0.04320987654320988,27.611111111111114,0)" xlink:href="#bs"/><use transform="matrix(0.04320987654320988,0,0,0.04320987654320988,36.25308641975309,0)" xlink:href="#bu"/><use transform="matrix(0.04320987654320988,0,0,0.04320987654320988,49.17283950617284,0)" xlink:href="#bv"/><use transform="matrix(0.04320987654320988,0,0,0.04320987654320988,57.814814814814824,0)" xlink:href="#bs"/><use transform="matrix(0.04320987654320988,0,0,0.04320987654320988,66.4567901234568,0)" xlink:href="#bw"/></g><path fill="#b2b2b2" d="M101-251c82-7 93 87 43 132L82-64C71-53 59-42 53-27h129V0H18c2-99 128-94 128-182 0-28-16-43-45-43s-46 15-49 41l-32-3c6-41 34-60 81-64" id="bx"/><path fill="#b2b2b2" d="M155-56V0h-30v-56H8v-25l114-167h33v167h35v25h-35zm-30-156c-27 46-58 90-88 131h88v-131" id="by"/><path fill="#b2b2b2" d="M68-38c1 34 0 65-14 84H32c9-13 17-26 17-46H33v-38h35" id="bz"/><g id="p"><use transform="matrix(0.04320987654320988,0,0,0.04320987654320988,0,0)" xlink:href="#bx"/><use transform="matrix(0.04320987654320988,0,0,0.04320987654320988,8.641975308641976,0)" xlink:href="#by"/><use transform="matrix(0.04320987654320988,0,0,0.04320987654320988,17.283950617283953,0)" xlink:href="#bz"/></g><path fill="#b2b2b2" d="M101-251c68 0 85 55 85 127S166 4 100 4C33 4 14-52 14-124c0-73 17-127 87-127zm-1 229c47 0 54-49 54-102s-4-102-53-102c-51 0-55 48-55 102 0 53 5 102 54 102" id="bA"/><g id="q"><use transform="matrix(0.04320987654320988,0,0,0.04320987654320988,0,0)" xlink:href="#bx"/><use transform="matrix(0.04320987654320988,0,0,0.04320987654320988,8.641975308641976,0)" xlink:href="#bA"/><use transform="matrix(0.04320987654320988,0,0,0.04320987654320988,17.283950617283953,0)" xlink:href="#bx"/><use transform="matrix(0.04320987654320988,0,0,0.04320987654320988,25.925925925925927,0)" xlink:href="#bA"/></g><path d="M205 0l-28-72H64L36 0H1l101-248h38L239 0h-34zm-38-99l-47-123c-12 45-31 82-46 123h93" id="bB"/><path d="M-5 72V49h209v23H-5" id="bC"/><g id="r"><use transform="matrix(0.05,0,0,0.05,0,0)" xlink:href="#bB"/><use transform="matrix(0.05,0,0,0.05,12,0)" xlink:href="#aJ"/><use transform="matrix(0.05,0,0,0.05,17.95,0)" xlink:href="#aN"/><use transform="matrix(0.05,0,0,0.05,22.95,0)" xlink:href="#aF"/><use transform="matrix(0.05,0,0,0.05,26.899999999999995,0)" xlink:href="#aS"/><use transform="matrix(0.05,0,0,0.05,35.9,0)" xlink:href="#aH"/><use transform="matrix(0.05,0,0,0.05,39.85,0)" xlink:href="#aK"/><use transform="matrix(0.05,0,0,0.05,49.85,0)" xlink:href="#aE"/><use transform="matrix(0.05,0,0,0.05,58.85,0)" xlink:href="#bC"/><use transform="matrix(0.05,0,0,0.05,68.85,0)" xlink:href="#aS"/><use transform="matrix(0.05,0,0,0.05,77.85,0)" xlink:href="#aO"/><use transform="matrix(0.05,0,0,0.05,87.85,0)" xlink:href="#aG"/><use transform="matrix(0.05,0,0,0.05,102.80000000000001,0)" xlink:href="#aG"/><use transform="matrix(0.05,0,0,0.05,117.75,0)" xlink:href="#aK"/><use transform="matrix(0.05,0,0,0.05,127.75,0)" xlink:href="#aM"/><use transform="matrix(0.05,0,0,0.05,137.75,0)" xlink:href="#aN"/></g><path d="M24-248c93 1 206-16 204 79-1 75-69 88-152 82V0H24v-248zm52 121c47 0 100 7 100-41 0-47-54-39-100-39v80" id="bD"/><path d="M195 0l-88-114-31 24V0H24v-248h52v113l112-113h60L142-143 257 0h-62" id="bE"/><g id="s"><use transform="matrix(0.05,0,0,0.05,0,0)" xlink:href="#bD"/><use transform="matrix(0.05,0,0,0.05,12,0)" xlink:href="#bE"/></g><path d="M85-194c31 0 48 13 60 33l-1-100h32l1 261h-30c-2-10 0-23-3-31C134-8 116 4 85 4 32 4 16-35 15-94c0-66 23-100 70-100zm9 24c-40 0-46 34-46 75 0 40 6 74 45 74 42 0 51-32 51-76 0-42-9-74-50-73" id="bF"/><g id="t"><use transform="matrix(0.05,0,0,0.05,0,0)" xlink:href="#aI"/><use transform="matrix(0.05,0,0,0.05,10,0)" xlink:href="#aJ"/><use transform="matrix(0.05,0,0,0.05,15.949999999999998,0)" xlink:href="#aN"/><use transform="matrix(0.05,0,0,0.05,20.95,0)" xlink:href="#bC"/><use transform="matrix(0.05,0,0,0.05,30.950000000000003,0)" xlink:href="#aS"/><use transform="matrix(0.05,0,0,0.05,39.95,0)" xlink:href="#aO"/><use transform="matrix(0.05,0,0,0.05,49.95,0)" xlink:href="#aG"/><use transform="matrix(0.05,0,0,0.05,64.9,0)" xlink:href="#aG"/><use transform="matrix(0.05,0,0,0.05,79.85000000000001,0)" xlink:href="#bC"/><use transform="matrix(0.05,0,0,0.05,89.85000000000001,0)" xlink:href="#aF"/><use transform="matrix(0.05,0,0,0.05,93.80000000000001,0)" xlink:href="#bF"/></g><g id="u"><use transform="matrix(0.05,0,0,0.05,0,0)" xlink:href="#aF"/><use transform="matrix(0.05,0,0,0.05,3.95,0)" xlink:href="#aM"/><use transform="matrix(0.05,0,0,0.05,13.949999999999998,0)" xlink:href="#aN"/></g><path d="M76-208v77h127v40H76V0H24v-248h183v40H76" id="bG"/><g id="v"><use transform="matrix(0.05,0,0,0.05,0,0)" xlink:href="#bG"/><use transform="matrix(0.05,0,0,0.05,10.950000000000001,0)" xlink:href="#bE"/></g><path d="M84 4C-5 8 30-112 23-190h32v120c0 31 7 50 39 49 72-2 45-101 50-169h31l1 190h-30c-1-10 1-25-2-33-11 22-28 36-60 37" id="bH"/><g id="w"><use transform="matrix(0.05,0,0,0.05,0,0)" xlink:href="#bH"/><use transform="matrix(0.05,0,0,0.05,10,0)" xlink:href="#aE"/><use transform="matrix(0.05,0,0,0.05,19,0)" xlink:href="#aK"/><use transform="matrix(0.05,0,0,0.05,29,0)" xlink:href="#aJ"/><use transform="matrix(0.05,0,0,0.05,34.95,0)" xlink:href="#bC"/><use transform="matrix(0.05,0,0,0.05,44.95,0)" xlink:href="#aF"/><use transform="matrix(0.05,0,0,0.05,48.900000000000006,0)" xlink:href="#bF"/></g><g id="x"><use transform="matrix(0.05,0,0,0.05,0,0)" xlink:href="#aI"/><use transform="matrix(0.05,0,0,0.05,10,0)" xlink:href="#aJ"/><use transform="matrix(0.05,0,0,0.05,15.949999999999998,0)" xlink:href="#aN"/><use transform="matrix(0.05,0,0,0.05,20.95,0)" xlink:href="#aF"/><use transform="matrix(0.05,0,0,0.05,24.9,0)" xlink:href="#aS"/><use transform="matrix(0.05,0,0,0.05,33.9,0)" xlink:href="#aH"/><use transform="matrix(0.05,0,0,0.05,37.85,0)" xlink:href="#aK"/><use transform="matrix(0.05,0,0,0.05,47.85,0)" xlink:href="#bC"/><use transform="matrix(0.05,0,0,0.05,57.85,0)" xlink:href="#aF"/><use transform="matrix(0.05,0,0,0.05,61.800000000000004,0)" xlink:href="#bF"/></g><g id="y"><use transform="matrix(0.05,0,0,0.05,0,0)" xlink:href="#aS"/><use transform="matrix(0.05,0,0,0.05,9,0)" xlink:href="#aO"/><use transform="matrix(0.05,0,0,0.05,19,0)" xlink:href="#aG"/><use transform="matrix(0.05,0,0,0.05,33.95,0)" xlink:href="#aG"/><use transform="matrix(0.05,0,0,0.05,48.900000000000006,0)" xlink:href="#aK"/><use transform="matrix(0.05,0,0,0.05,58.900000000000006,0)" xlink:href="#aM"/><use transform="matrix(0.05,0,0,0.05,68.9,0)" xlink:href="#aN"/></g><path d="M106-169C34-169 62-67 57 0H25v-261h32l-1 103c12-21 28-36 61-36 89 0 53 116 60 194h-32v-121c2-32-8-49-39-48" id="bI"/><g id="z"><use transform="matrix(0.05,0,0,0.05,0,0)" xlink:href="#aQ"/><use transform="matrix(0.05,0,0,0.05,9,0)" xlink:href="#aI"/><use transform="matrix(0.05,0,0,0.05,19,0)" xlink:href="#aJ"/><use transform="matrix(0.05,0,0,0.05,24.95,0)" xlink:href="#aS"/><use transform="matrix(0.05,0,0,0.05,33.95,0)" xlink:href="#bI"/><use transform="matrix(0.05,0,0,0.05,43.95,0)" xlink:href="#aI"/><use transform="matrix(0.05,0,0,0.05,53.95,0)" xlink:href="#aJ"/></g><g id="A"><use transform="matrix(0.05,0,0,0.05,0,0)" xlink:href="#aG"/><use transform="matrix(0.05,0,0,0.05,14.950000000000001,0)" xlink:href="#aO"/><use transform="matrix(0.05,0,0,0.05,24.950000000000003,0)" xlink:href="#bF"/><use transform="matrix(0.05,0,0,0.05,34.95,0)" xlink:href="#aF"/><use transform="matrix(0.05,0,0,0.05,38.900000000000006,0)" xlink:href="#aP"/><use transform="matrix(0.05,0,0,0.05,43.900000000000006,0)" xlink:href="#aF"/><use transform="matrix(0.05,0,0,0.05,47.85000000000001,0)" xlink:href="#aK"/><use transform="matrix(0.05,0,0,0.05,57.85,0)" xlink:href="#bF"/><use transform="matrix(0.05,0,0,0.05,67.85000000000001,0)" xlink:href="#bC"/><use transform="matrix(0.05,0,0,0.05,77.85000000000001,0)" xlink:href="#aI"/><use transform="matrix(0.05,0,0,0.05,87.85000000000001,0)" xlink:href="#aN"/></g><g id="B"><use transform="matrix(0.05,0,0,0.05,0,0)" xlink:href="#aN"/><use transform="matrix(0.05,0,0,0.05,5,0)" xlink:href="#aF"/><use transform="matrix(0.05,0,0,0.05,8.95,0)" xlink:href="#aG"/><use transform="matrix(0.05,0,0,0.05,23.9,0)" xlink:href="#aK"/><use transform="matrix(0.05,0,0,0.05,33.9,0)" xlink:href="#bC"/><use transform="matrix(0.05,0,0,0.05,43.9,0)" xlink:href="#aE"/><use transform="matrix(0.05,0,0,0.05,52.900000000000006,0)" xlink:href="#aN"/><use transform="matrix(0.05,0,0,0.05,57.900000000000006,0)" xlink:href="#aI"/><use transform="matrix(0.05,0,0,0.05,67.9,0)" xlink:href="#aG"/><use transform="matrix(0.05,0,0,0.05,82.85000000000001,0)" xlink:href="#aL"/></g><g id="C"><use transform="matrix(0.05,0,0,0.05,0,0)" xlink:href="#aS"/><use transform="matrix(0.05,0,0,0.05,9,0)" xlink:href="#aJ"/><use transform="matrix(0.05,0,0,0.05,14.949999999999998,0)" xlink:href="#aK"/><use transform="matrix(0.05,0,0,0.05,24.95,0)" xlink:href="#aI"/><use transform="matrix(0.05,0,0,0.05,34.95,0)" xlink:href="#aN"/><use transform="matrix(0.05,0,0,0.05,39.95,0)" xlink:href="#aK"/><use transform="matrix(0.05,0,0,0.05,49.95,0)" xlink:href="#bF"/><use transform="matrix(0.05,0,0,0.05,59.95,0)" xlink:href="#bC"/><use transform="matrix(0.05,0,0,0.05,69.95,0)" xlink:href="#aI"/><use transform="matrix(0.05,0,0,0.05,79.95,0)" xlink:href="#aN"/></g><g id="D"><use transform="matrix(0.05,0,0,0.05,0,0)" xlink:href="#bB"/><use transform="matrix(0.05,0,0,0.05,12,0)" xlink:href="#aJ"/><use transform="matrix(0.05,0,0,0.05,17.95,0)" xlink:href="#aN"/><use transform="matrix(0.05,0,0,0.05,22.95,0)" xlink:href="#aF"/><use transform="matrix(0.05,0,0,0.05,26.899999999999995,0)" xlink:href="#aS"/><use transform="matrix(0.05,0,0,0.05,35.9,0)" xlink:href="#aH"/><use transform="matrix(0.05,0,0,0.05,39.85,0)" xlink:href="#aK"/><use transform="matrix(0.05,0,0,0.05,49.85,0)" xlink:href="#aE"/></g><g id="E"><use transform="matrix(0.04999999999999998,0,0,0.04999999999999998,0,0)" xlink:href="#aI"/><use transform="matrix(0.04999999999999998,0,0,0.04999999999999998,9.999999999999996,0)" xlink:href="#bH"/><use transform="matrix(0.04999999999999998,0,0,0.04999999999999998,19.999999999999993,0)" xlink:href="#aN"/><use transform="matrix(0.04999999999999998,0,0,0.04999999999999998,24.999999999999993,0)" xlink:href="#bI"/><use transform="matrix(0.04999999999999998,0,0,0.04999999999999998,34.999999999999986,0)" xlink:href="#aO"/><use transform="matrix(0.04999999999999998,0,0,0.04999999999999998,44.999999999999986,0)" xlink:href="#aJ"/><use transform="matrix(0.04999999999999998,0,0,0.04999999999999998,50.94999999999998,0)" xlink:href="#bC"/><use transform="matrix(0.04999999999999998,0,0,0.04999999999999998,60.94999999999998,0)" xlink:href="#aF"/><use transform="matrix(0.04999999999999998,0,0,0.04999999999999998,64.89999999999998,0)" xlink:href="#bF"/></g><path d="M115-194c53 0 69 39 70 98 0 66-23 100-70 100C84 3 66-7 56-30L54 0H23l1-261h32v101c10-23 28-34 59-34zm-8 174c40 0 45-34 45-75 0-40-5-75-45-74-42 0-51 32-51 76 0 43 10 73 51 73" id="bJ"/><path d="M24-231v-30h32v30H24zM-9 49c24 4 33-6 33-30v-209h32V24c2 40-23 58-65 49V49" id="bK"/><g id="F"><use transform="matrix(0.04999999999999998,0,0,0.04999999999999998,0,0)" xlink:href="#aE"/><use transform="matrix(0.04999999999999998,0,0,0.04999999999999998,8.999999999999996,0)" xlink:href="#bH"/><use transform="matrix(0.04999999999999998,0,0,0.04999999999999998,18.999999999999993,0)" xlink:href="#bJ"/><use transform="matrix(0.04999999999999998,0,0,0.04999999999999998,28.99999999999999,0)" xlink:href="#bK"/><use transform="matrix(0.04999999999999998,0,0,0.04999999999999998,32.94999999999999,0)" xlink:href="#bC"/><use transform="matrix(0.04999999999999998,0,0,0.04999999999999998,42.94999999999999,0)" xlink:href="#aF"/><use transform="matrix(0.04999999999999998,0,0,0.04999999999999998,46.899999999999984,0)" xlink:href="#bF"/></g><g id="G"><use transform="matrix(0.04999999999999998,0,0,0.04999999999999998,0,0)" xlink:href="#aN"/><use transform="matrix(0.04999999999999998,0,0,0.04999999999999998,4.999999999999998,0)" xlink:href="#aF"/><use transform="matrix(0.04999999999999998,0,0,0.04999999999999998,8.949999999999996,0)" xlink:href="#aN"/><use transform="matrix(0.04999999999999998,0,0,0.04999999999999998,13.949999999999996,0)" xlink:href="#aH"/><use transform="matrix(0.04999999999999998,0,0,0.04999999999999998,17.89999999999999,0)" xlink:href="#aK"/></g><g id="H"><use transform="matrix(0.04999999999999998,0,0,0.04999999999999998,0,0)" xlink:href="#aS"/><use transform="matrix(0.04999999999999998,0,0,0.04999999999999998,8.999999999999996,0)" xlink:href="#aO"/><use transform="matrix(0.04999999999999998,0,0,0.04999999999999998,18.999999999999993,0)" xlink:href="#aM"/><use transform="matrix(0.04999999999999998,0,0,0.04999999999999998,28.99999999999999,0)" xlink:href="#aN"/><use transform="matrix(0.04999999999999998,0,0,0.04999999999999998,33.999999999999986,0)" xlink:href="#aK"/><use transform="matrix(0.04999999999999998,0,0,0.04999999999999998,43.999999999999986,0)" xlink:href="#aM"/><use transform="matrix(0.04999999999999998,0,0,0.04999999999999998,53.99999999999998,0)" xlink:href="#aN"/></g><g id="I"><use transform="matrix(0.04999999999999998,0,0,0.04999999999999998,0,0)" xlink:href="#aG"/><use transform="matrix(0.04999999999999998,0,0,0.04999999999999998,14.949999999999994,0)" xlink:href="#aO"/><use transform="matrix(0.04999999999999998,0,0,0.04999999999999998,24.94999999999999,0)" xlink:href="#bF"/><use transform="matrix(0.04999999999999998,0,0,0.04999999999999998,34.94999999999999,0)" xlink:href="#aF"/><use transform="matrix(0.04999999999999998,0,0,0.04999999999999998,38.899999999999984,0)" xlink:href="#aP"/><use transform="matrix(0.04999999999999998,0,0,0.04999999999999998,43.899999999999984,0)" xlink:href="#aF"/><use transform="matrix(0.04999999999999998,0,0,0.04999999999999998,47.84999999999998,0)" xlink:href="#aK"/><use transform="matrix(0.04999999999999998,0,0,0.04999999999999998,57.84999999999998,0)" xlink:href="#bF"/><use transform="matrix(0.04999999999999998,0,0,0.04999999999999998,67.84999999999998,0)" xlink:href="#bC"/><use transform="matrix(0.04999999999999998,0,0,0.04999999999999998,77.84999999999998,0)" xlink:href="#aI"/><use transform="matrix(0.04999999999999998,0,0,0.04999999999999998,87.84999999999998,0)" xlink:href="#aN"/></g><g id="J"><use transform="matrix(0.04999999999999999,0,0,0.04999999999999999,0,0)" xlink:href="#aS"/><use transform="matrix(0.05,0,0,0.05,8.999999999999998,0)" xlink:href="#aJ"/><use transform="matrix(0.05,0,0,0.05,14.949999999999998,0)" xlink:href="#aK"/><use transform="matrix(0.05,0,0,0.05,24.95,0)" xlink:href="#aI"/><use transform="matrix(0.05,0,0,0.05,34.95,0)" xlink:href="#aN"/><use transform="matrix(0.05,0,0,0.05,39.95,0)" xlink:href="#aK"/><use transform="matrix(0.05,0,0,0.05,49.95,0)" xlink:href="#bF"/><use transform="matrix(0.05,0,0,0.05,59.95,0)" xlink:href="#bC"/><use transform="matrix(0.05,0,0,0.05,69.95,0)" xlink:href="#aI"/><use transform="matrix(0.05,0,0,0.05,79.95,0)" xlink:href="#aN"/></g><g id="K"><use transform="matrix(0.05,0,0,0.05,0,0)" xlink:href="#aF"/><use transform="matrix(0.05,0,0,0.05,3.95,0)" xlink:href="#aE"/><use transform="matrix(0.05,0,0,0.05,12.949999999999998,0)" xlink:href="#bC"/><use transform="matrix(0.05,0,0,0.05,22.95,0)" xlink:href="#aI"/><use transform="matrix(0.05,0,0,0.05,32.95,0)" xlink:href="#aS"/><use transform="matrix(0.05,0,0,0.05,41.95,0)" xlink:href="#aN"/><use transform="matrix(0.05,0,0,0.05,46.95,0)" xlink:href="#aF"/><use transform="matrix(0.05,0,0,0.05,50.900000000000006,0)" xlink:href="#aQ"/><use transform="matrix(0.05,0,0,0.05,59.900000000000006,0)" xlink:href="#aK"/></g><g id="L"><use transform="matrix(0.05,0,0,0.05,0,0)" xlink:href="#bJ"/><use transform="matrix(0.05,0,0,0.05,10,0)" xlink:href="#aO"/><use transform="matrix(0.05,0,0,0.05,20,0)" xlink:href="#aO"/><use transform="matrix(0.05,0,0,0.05,30,0)" xlink:href="#aH"/><use transform="matrix(0.05,0,0,0.05,33.95,0)" xlink:href="#aK"/><use transform="matrix(0.05,0,0,0.05,43.95,0)" xlink:href="#aI"/><use transform="matrix(0.05,0,0,0.05,53.95,0)" xlink:href="#aM"/></g><path d="M232-93c-1 65-40 97-104 97C67 4 28-28 28-90v-158h33c8 89-33 224 67 224 102 0 64-133 71-224h33v155" id="bL"/><g id="M"><use transform="matrix(0.05,0,0,0.05,0,0)" xlink:href="#bL"/><use transform="matrix(0.05,0,0,0.05,12.950000000000001,0)" xlink:href="#aE"/><use transform="matrix(0.05,0,0,0.05,21.950000000000003,0)" xlink:href="#aK"/><use transform="matrix(0.05,0,0,0.05,31.950000000000003,0)" xlink:href="#aJ"/><use transform="matrix(0.05,0,0,0.05,37.900000000000006,0)" xlink:href="#aE"/><use transform="matrix(0.05,0,0,0.05,46.900000000000006,0)" xlink:href="#bC"/><use transform="matrix(0.05,0,0,0.05,56.900000000000006,0)" xlink:href="#bF"/><use transform="matrix(0.05,0,0,0.05,66.9,0)" xlink:href="#aK"/><use transform="matrix(0.05,0,0,0.05,76.9,0)" xlink:href="#aN"/><use transform="matrix(0.05,0,0,0.05,81.9,0)" xlink:href="#aI"/><use transform="matrix(0.05,0,0,0.05,91.9,0)" xlink:href="#aF"/><use transform="matrix(0.05,0,0,0.05,95.85000000000001,0)" xlink:href="#aH"/></g><g id="N"><use transform="matrix(0.05,0,0,0.05,0,0)" xlink:href="#aP"/><use transform="matrix(0.05,0,0,0.05,5,0)" xlink:href="#aM"/><use transform="matrix(0.05,0,0,0.05,15,0)" xlink:href="#aI"/><use transform="matrix(0.05,0,0,0.05,25,0)" xlink:href="#aG"/><use transform="matrix(0.05,0,0,0.05,39.95,0)" xlink:href="#aK"/></g><g id="O"><use transform="matrix(0.05,0,0,0.05,0,0)" xlink:href="#aH"/><use transform="matrix(0.05,0,0,0.05,3.95,0)" xlink:href="#aM"/><use transform="matrix(0.05,0,0,0.05,13.949999999999998,0)" xlink:href="#aI"/><use transform="matrix(0.05,0,0,0.05,23.95,0)" xlink:href="#aG"/><use transform="matrix(0.05,0,0,0.05,38.9,0)" xlink:href="#aK"/></g><g id="P"><use transform="matrix(0.05,0,0,0.05,0,0)" xlink:href="#aS"/><use transform="matrix(0.05,0,0,0.05,9,0)" xlink:href="#aO"/><use transform="matrix(0.05,0,0,0.05,19,0)" xlink:href="#aM"/><use transform="matrix(0.05,0,0,0.05,29,0)" xlink:href="#aN"/><use transform="matrix(0.05,0,0,0.05,34,0)" xlink:href="#aI"/><use transform="matrix(0.05,0,0,0.05,44,0)" xlink:href="#aS"/><use transform="matrix(0.05,0,0,0.05,53,0)" xlink:href="#aN"/><use transform="matrix(0.05,0,0,0.05,58,0)" xlink:href="#bC"/><use transform="matrix(0.05,0,0,0.05,68,0)" xlink:href="#aM"/><use transform="matrix(0.05,0,0,0.05,78,0)" xlink:href="#aO"/></g><g id="Q"><use transform="matrix(0.05,0,0,0.05,0,0)" xlink:href="#aE"/><use transform="matrix(0.05,0,0,0.05,9,0)" xlink:href="#aI"/><use transform="matrix(0.05,0,0,0.05,19,0)" xlink:href="#bF"/><use transform="matrix(0.05,0,0,0.05,29,0)" xlink:href="#bF"/><use transform="matrix(0.05,0,0,0.05,39,0)" xlink:href="#aJ"/><use transform="matrix(0.05,0,0,0.05,44.95,0)" xlink:href="#aK"/><use transform="matrix(0.05,0,0,0.05,54.95,0)" xlink:href="#aE"/><use transform="matrix(0.05,0,0,0.05,63.95,0)" xlink:href="#aE"/></g><g id="R"><use transform="matrix(0.05,0,0,0.05,0,0)" xlink:href="#aS"/><use transform="matrix(0.05,0,0,0.05,9,0)" xlink:href="#aF"/><use transform="matrix(0.05,0,0,0.05,12.949999999999998,0)" xlink:href="#aN"/><use transform="matrix(0.05,0,0,0.05,17.95,0)" xlink:href="#aR"/><use transform="matrix(0.05,0,0,0.05,26.950000000000003,0)" xlink:href="#bC"/><use transform="matrix(0.05,0,0,0.05,36.95,0)" xlink:href="#aF"/><use transform="matrix(0.05,0,0,0.05,40.900000000000006,0)" xlink:href="#bF"/></g><g id="S"><use transform="matrix(0.05,0,0,0.05,0,0)" xlink:href="#aE"/><use transform="matrix(0.05,0,0,0.05,9,0)" xlink:href="#aS"/><use transform="matrix(0.05,0,0,0.05,18,0)" xlink:href="#bI"/><use transform="matrix(0.05,0,0,0.05,28,0)" xlink:href="#aO"/><use transform="matrix(0.05,0,0,0.05,38,0)" xlink:href="#aO"/><use transform="matrix(0.05,0,0,0.05,48,0)" xlink:href="#aH"/><use transform="matrix(0.05,0,0,0.05,51.95,0)" xlink:href="#bC"/><use transform="matrix(0.05,0,0,0.05,61.95,0)" xlink:href="#aF"/><use transform="matrix(0.05,0,0,0.05,65.9,0)" xlink:href="#bF"/></g><g id="T"><use transform="matrix(0.05,0,0,0.05,0,0)" xlink:href="#aS"/><use transform="matrix(0.05,0,0,0.05,9,0)" xlink:href="#aJ"/><use transform="matrix(0.05,0,0,0.05,14.949999999999998,0)" xlink:href="#aK"/><use transform="matrix(0.05,0,0,0.05,24.95,0)" xlink:href="#aI"/><use transform="matrix(0.05,0,0,0.05,34.95,0)" xlink:href="#aN"/><use transform="matrix(0.05,0,0,0.05,39.95,0)" xlink:href="#aK"/><use transform="matrix(0.05,0,0,0.05,49.95,0)" xlink:href="#bF"/><use transform="matrix(0.05,0,0,0.05,59.95,0)" xlink:href="#bC"/><use transform="matrix(0.05,0,0,0.05,69.95,0)" xlink:href="#aI"/><use transform="matrix(0.05,0,0,0.05,79.95,0)" xlink:href="#aN"/></g><g id="U"><use transform="matrix(0.05,0,0,0.05,0,0)" xlink:href="#aN"/><use transform="matrix(0.05,0,0,0.05,5,0)" xlink:href="#aF"/><use transform="matrix(0.05,0,0,0.05,8.95,0)" xlink:href="#aG"/><use transform="matrix(0.05,0,0,0.05,23.9,0)" xlink:href="#aK"/><use transform="matrix(0.05,0,0,0.05,33.9,0)" xlink:href="#bC"/><use transform="matrix(0.05,0,0,0.05,43.9,0)" xlink:href="#aE"/><use transform="matrix(0.05,0,0,0.05,52.900000000000006,0)" xlink:href="#aN"/><use transform="matrix(0.05,0,0,0.05,57.900000000000006,0)" xlink:href="#aI"/><use transform="matrix(0.05,0,0,0.05,67.9,0)" xlink:href="#aG"/><use transform="matrix(0.05,0,0,0.05,82.85000000000001,0)" xlink:href="#aL"/></g><path d="M185-189c-5-48-123-54-124 2 14 75 158 14 163 119 3 78-121 87-175 55-17-10-28-26-33-46l33-7c5 56 141 63 141-1 0-78-155-14-162-118-5-82 145-84 179-34 5 7 8 16 11 25" id="bM"/><g id="V"><use transform="matrix(0.05,0,0,0.05,0,0)" xlink:href="#bM"/><use transform="matrix(0.05,0,0,0.05,12,0)" xlink:href="#aS"/><use transform="matrix(0.05,0,0,0.05,21,0)" xlink:href="#bI"/><use transform="matrix(0.05,0,0,0.05,31,0)" xlink:href="#aO"/><use transform="matrix(0.05,0,0,0.05,41,0)" xlink:href="#aO"/><use transform="matrix(0.05,0,0,0.05,51,0)" xlink:href="#aH"/><use transform="matrix(0.05,0,0,0.05,54.95,0)" xlink:href="#aE"/></g><g id="W"><use transform="matrix(0.05,0,0,0.05,0,0)" xlink:href="#aE"/><use transform="matrix(0.05,0,0,0.05,9,0)" xlink:href="#aS"/><use transform="matrix(0.05,0,0,0.05,18,0)" xlink:href="#bI"/><use transform="matrix(0.05,0,0,0.05,28,0)" xlink:href="#aO"/><use transform="matrix(0.05,0,0,0.05,38,0)" xlink:href="#aO"/><use transform="matrix(0.05,0,0,0.05,48,0)" xlink:href="#aH"/><use transform="matrix(0.05,0,0,0.05,51.95,0)" xlink:href="#bC"/><use transform="matrix(0.05,0,0,0.05,61.95,0)" xlink:href="#aF"/><use transform="matrix(0.05,0,0,0.05,65.9,0)" xlink:href="#bF"/></g><g id="X"><use transform="matrix(0.05,0,0,0.05,0,0)" xlink:href="#aM"/><use transform="matrix(0.05,0,0,0.05,10,0)" xlink:href="#aI"/><use transform="matrix(0.05,0,0,0.05,20,0)" xlink:href="#aG"/><use transform="matrix(0.05,0,0,0.05,34.95,0)" xlink:href="#aK"/></g><g id="Y"><use transform="matrix(0.05,0,0,0.05,0,0)" xlink:href="#aK"/><use transform="matrix(0.05,0,0,0.05,10,0)" xlink:href="#aG"/><use transform="matrix(0.05,0,0,0.05,24.950000000000003,0)" xlink:href="#aI"/><use transform="matrix(0.05,0,0,0.05,34.95,0)" xlink:href="#aF"/><use transform="matrix(0.05,0,0,0.05,38.900000000000006,0)" xlink:href="#aH"/></g><g id="Z"><use transform="matrix(0.05,0,0,0.05,0,0)" xlink:href="#aH"/><use transform="matrix(0.05,0,0,0.05,3.95,0)" xlink:href="#aI"/><use transform="matrix(0.05,0,0,0.05,13.949999999999998,0)" xlink:href="#aM"/><use transform="matrix(0.05,0,0,0.05,23.95,0)" xlink:href="#bF"/><use transform="matrix(0.05,0,0,0.05,33.95,0)" xlink:href="#aH"/><use transform="matrix(0.05,0,0,0.05,37.900000000000006,0)" xlink:href="#aF"/><use transform="matrix(0.05,0,0,0.05,41.85000000000001,0)" xlink:href="#aM"/><use transform="matrix(0.05,0,0,0.05,51.85,0)" xlink:href="#aK"/><use transform="matrix(0.05,0,0,0.05,61.85,0)" xlink:href="#bC"/><use transform="matrix(0.05,0,0,0.05,71.85000000000001,0)" xlink:href="#aM"/><use transform="matrix(0.05,0,0,0.05,81.85000000000001,0)" xlink:href="#aO"/></g><g id="aa"><use transform="matrix(0.05,0,0,0.05,0,0)" xlink:href="#aE"/><use transform="matrix(0.05,0,0,0.05,9,0)" xlink:href="#aI"/><use transform="matrix(0.05,0,0,0.05,19,0)" xlink:href="#bF"/><use transform="matrix(0.05,0,0,0.05,29,0)" xlink:href="#bF"/><use transform="matrix(0.05,0,0,0.05,39,0)" xlink:href="#aJ"/><use transform="matrix(0.05,0,0,0.05,44.95,0)" xlink:href="#aK"/><use transform="matrix(0.05,0,0,0.05,54.95,0)" xlink:href="#aE"/><use transform="matrix(0.05,0,0,0.05,63.95,0)" xlink:href="#aE"/></g><g id="ab"><use transform="matrix(0.05,0,0,0.05,0,0)" xlink:href="#aS"/><use transform="matrix(0.05,0,0,0.05,9,0)" xlink:href="#aF"/><use transform="matrix(0.05,0,0,0.05,12.949999999999998,0)" xlink:href="#aN"/><use transform="matrix(0.05,0,0,0.05,17.95,0)" xlink:href="#aR"/><use transform="matrix(0.05,0,0,0.05,26.950000000000003,0)" xlink:href="#bC"/><use transform="matrix(0.05,0,0,0.05,36.95,0)" xlink:href="#aF"/><use transform="matrix(0.05,0,0,0.05,40.900000000000006,0)" xlink:href="#bF"/></g><g id="ac"><use transform="matrix(0.05,0,0,0.05,0,0)" xlink:href="#bL"/><use transform="matrix(0.05,0,0,0.05,12.950000000000001,0)" xlink:href="#aE"/><use transform="matrix(0.05,0,0,0.05,21.950000000000003,0)" xlink:href="#aK"/><use transform="matrix(0.05,0,0,0.05,31.950000000000003,0)" xlink:href="#aJ"/><use transform="matrix(0.05,0,0,0.05,37.900000000000006,0)" xlink:href="#aE"/></g><path d="M76-54c-1 42 2 86-19 110H24C36 42 46 24 48 0H25v-54h51" id="bN"/><g id="ad"><use transform="matrix(0.05,0,0,0.05,0,0)" xlink:href="#bD"/><use transform="matrix(0.05,0,0,0.05,12,0)" xlink:href="#bE"/><use transform="matrix(0.05,0,0,0.05,24.950000000000003,0)" xlink:href="#bN"/></g><g id="ae"><use transform="matrix(0.05,0,0,0.05,0,0)" xlink:href="#bG"/><use transform="matrix(0.05,0,0,0.05,10.950000000000001,0)" xlink:href="#bE"/></g><g id="af"><use transform="matrix(0.05,0,0,0.05,0,0)" xlink:href="#bH"/><use transform="matrix(0.05,0,0,0.05,10,0)" xlink:href="#bC"/><use transform="matrix(0.05,0,0,0.05,20,0)" xlink:href="#aS"/><use transform="matrix(0.05,0,0,0.05,29,0)" xlink:href="#aH"/><use transform="matrix(0.05,0,0,0.05,32.95,0)" xlink:href="#bC"/><use transform="matrix(0.05,0,0,0.05,42.95,0)" xlink:href="#aF"/><use transform="matrix(0.05,0,0,0.05,46.900000000000006,0)" xlink:href="#bF"/></g><g id="ag"><use transform="matrix(0.05,0,0,0.05,0,0)" xlink:href="#bH"/><use transform="matrix(0.05,0,0,0.05,10,0)" xlink:href="#aM"/><use transform="matrix(0.05,0,0,0.05,20,0)" xlink:href="#aI"/><use transform="matrix(0.05,0,0,0.05,30,0)" xlink:href="#aG"/><use transform="matrix(0.05,0,0,0.05,44.95,0)" xlink:href="#aK"/></g><path d="M206 0h-36l-40-164L89 0H53L-1-190h32L70-26l43-164h34l41 164 42-164h31" id="bO"/><g id="ah"><use transform="matrix(0.05,0,0,0.05,0,0)" xlink:href="#aL"/><use transform="matrix(0.05,0,0,0.05,10,0)" xlink:href="#bO"/><use transform="matrix(0.05,0,0,0.05,22.950000000000003,0)" xlink:href="#aO"/><use transform="matrix(0.05,0,0,0.05,32.95,0)" xlink:href="#aJ"/><use transform="matrix(0.05,0,0,0.05,38.900000000000006,0)" xlink:href="#bF"/></g><g id="ai"><use transform="matrix(0.05,0,0,0.05,0,0)" xlink:href="#aJ"/><use transform="matrix(0.05,0,0,0.05,5.95,0)" xlink:href="#aK"/><use transform="matrix(0.05,0,0,0.05,15.949999999999998,0)" xlink:href="#aS"/><use transform="matrix(0.05,0,0,0.05,24.95,0)" xlink:href="#bC"/><use transform="matrix(0.05,0,0,0.05,34.95,0)" xlink:href="#aS"/><use transform="matrix(0.05,0,0,0.05,43.95,0)" xlink:href="#aO"/><use transform="matrix(0.05,0,0,0.05,53.95,0)" xlink:href="#bF"/><use transform="matrix(0.05,0,0,0.05,63.95,0)" xlink:href="#aK"/></g><g id="aj"><use transform="matrix(0.05,0,0,0.05,0,0)" xlink:href="#aK"/><use transform="matrix(0.05,0,0,0.05,10,0)" xlink:href="#aG"/><use transform="matrix(0.05,0,0,0.05,24.950000000000003,0)" xlink:href="#aI"/><use transform="matrix(0.05,0,0,0.05,34.95,0)" xlink:href="#aF"/><use transform="matrix(0.05,0,0,0.05,38.900000000000006,0)" xlink:href="#aH"/></g><g id="ak"><use transform="matrix(0.05,0,0,0.05,0,0)" xlink:href="#bB"/><use transform="matrix(0.05,0,0,0.05,12,0)" xlink:href="#aJ"/><use transform="matrix(0.05,0,0,0.05,17.95,0)" xlink:href="#aN"/><use transform="matrix(0.05,0,0,0.05,22.95,0)" xlink:href="#aF"/><use transform="matrix(0.05,0,0,0.05,26.899999999999995,0)" xlink:href="#aS"/><use transform="matrix(0.05,0,0,0.05,35.9,0)" xlink:href="#aH"/><use transform="matrix(0.05,0,0,0.05,39.85,0)" xlink:href="#aK"/><use transform="matrix(0.05,0,0,0.05,49.85,0)" xlink:href="#aE"/><use transform="matrix(0.05,0,0,0.05,58.85,0)" xlink:href="#bC"/><use transform="matrix(0.05,0,0,0.05,68.85,0)" xlink:href="#aJ"/><use transform="matrix(0.05,0,0,0.05,74.8,0)" xlink:href="#aK"/><use transform="matrix(0.05,0,0,0.05,84.8,0)" xlink:href="#aL"/><use transform="matrix(0.05,0,0,0.05,94.8,0)" xlink:href="#aH"/><use transform="matrix(0.05,0,0,0.05,98.75,0)" xlink:href="#aR"/></g><g id="al"><use transform="matrix(0.05,0,0,0.05,0,0)" xlink:href="#aI"/><use transform="matrix(0.05,0,0,0.05,10,0)" xlink:href="#aJ"/><use transform="matrix(0.05,0,0,0.05,15.949999999999998,0)" xlink:href="#aN"/><use transform="matrix(0.05,0,0,0.05,20.95,0)" xlink:href="#bC"/><use transform="matrix(0.05,0,0,0.05,30.950000000000003,0)" xlink:href="#aJ"/><use transform="matrix(0.05,0,0,0.05,36.9,0)" xlink:href="#aK"/><use transform="matrix(0.05,0,0,0.05,46.9,0)" xlink:href="#aL"/><use transform="matrix(0.05,0,0,0.05,56.900000000000006,0)" xlink:href="#aH"/><use transform="matrix(0.05,0,0,0.05,60.85,0)" xlink:href="#aR"/><use transform="matrix(0.05,0,0,0.05,69.85,0)" xlink:href="#bC"/><use transform="matrix(0.05,0,0,0.05,79.85,0)" xlink:href="#aF"/><use transform="matrix(0.05,0,0,0.05,83.8,0)" xlink:href="#bF"/></g><g id="am"><use transform="matrix(0.05,0,0,0.05,0,0)" xlink:href="#aJ"/><use transform="matrix(0.05,0,0,0.05,5.95,0)" xlink:href="#aK"/><use transform="matrix(0.05,0,0,0.05,15.949999999999998,0)" xlink:href="#aL"/><use transform="matrix(0.05,0,0,0.05,25.950000000000003,0)" xlink:href="#aH"/><use transform="matrix(0.05,0,0,0.05,29.899999999999995,0)" xlink:href="#aR"/></g><g id="an"><use transform="matrix(0.05,0,0,0.05,0,0)" xlink:href="#bB"/><use transform="matrix(0.05,0,0,0.05,12,0)" xlink:href="#bH"/><use transform="matrix(0.05,0,0,0.05,22,0)" xlink:href="#aN"/><use transform="matrix(0.05,0,0,0.05,27,0)" xlink:href="#bI"/><use transform="matrix(0.05,0,0,0.05,37,0)" xlink:href="#aO"/><use transform="matrix(0.05,0,0,0.05,47,0)" xlink:href="#aJ"/><use transform="matrix(0.05,0,0,0.05,52.95,0)" xlink:href="#bC"/><use transform="matrix(0.05,0,0,0.05,62.95,0)" xlink:href="#aE"/><use transform="matrix(0.05,0,0,0.05,71.95,0)" xlink:href="#bH"/><use transform="matrix(0.05,0,0,0.05,81.95,0)" xlink:href="#bJ"/><use transform="matrix(0.05,0,0,0.05,91.95,0)" xlink:href="#aE"/><use transform="matrix(0.05,0,0,0.05,100.95,0)" xlink:href="#aS"/><use transform="matrix(0.05,0,0,0.05,109.95,0)" xlink:href="#aJ"/><use transform="matrix(0.05,0,0,0.05,115.9,0)" xlink:href="#aF"/><use transform="matrix(0.05,0,0,0.05,119.85000000000001,0)" xlink:href="#aL"/><use transform="matrix(0.05,0,0,0.05,129.85000000000002,0)" xlink:href="#aN"/><use transform="matrix(0.05,0,0,0.05,134.85000000000002,0)" xlink:href="#aF"/><use transform="matrix(0.05,0,0,0.05,138.8,0)" xlink:href="#aO"/><use transform="matrix(0.05,0,0,0.05,148.8,0)" xlink:href="#aM"/></g><g id="ao"><use transform="matrix(0.05,0,0,0.05,0,0)" xlink:href="#aI"/><use transform="matrix(0.05,0,0,0.05,10,0)" xlink:href="#bH"/><use transform="matrix(0.05,0,0,0.05,20,0)" xlink:href="#aN"/><use transform="matrix(0.05,0,0,0.05,25,0)" xlink:href="#bI"/><use transform="matrix(0.05,0,0,0.05,35,0)" xlink:href="#aO"/><use transform="matrix(0.05,0,0,0.05,45,0)" xlink:href="#aJ"/><use transform="matrix(0.05,0,0,0.05,50.95,0)" xlink:href="#bC"/><use transform="matrix(0.05,0,0,0.05,60.95,0)" xlink:href="#aF"/><use transform="matrix(0.05,0,0,0.05,64.9,0)" xlink:href="#bF"/></g><g id="ap"><use transform="matrix(0.05,0,0,0.05,0,0)" xlink:href="#aF"/><use transform="matrix(0.05,0,0,0.05,3.95,0)" xlink:href="#aE"/><use transform="matrix(0.05,0,0,0.05,12.949999999999998,0)" xlink:href="#bC"/><use transform="matrix(0.05,0,0,0.05,22.95,0)" xlink:href="#aI"/><use transform="matrix(0.05,0,0,0.05,32.95,0)" xlink:href="#aS"/><use transform="matrix(0.05,0,0,0.05,41.95,0)" xlink:href="#aN"/><use transform="matrix(0.05,0,0,0.05,46.95,0)" xlink:href="#aF"/><use transform="matrix(0.05,0,0,0.05,50.900000000000006,0)" xlink:href="#aQ"/><use transform="matrix(0.05,0,0,0.05,59.900000000000006,0)" xlink:href="#aK"/></g><g id="aq"><use transform="matrix(0.05,0,0,0.05,0,0)" xlink:href="#bM"/><use transform="matrix(0.05,0,0,0.05,12,0)" xlink:href="#bH"/><use transform="matrix(0.05,0,0,0.05,22,0)" xlink:href="#bJ"/><use transform="matrix(0.05,0,0,0.05,32,0)" xlink:href="#bK"/><use transform="matrix(0.05,0,0,0.05,35.95,0)" xlink:href="#aK"/><use transform="matrix(0.05,0,0,0.05,45.95,0)" xlink:href="#aS"/><use transform="matrix(0.05,0,0,0.05,54.95,0)" xlink:href="#aN"/><use transform="matrix(0.05,0,0,0.05,59.95,0)" xlink:href="#aE"/></g><g id="ar"><use transform="matrix(0.05,0,0,0.05,0,0)" xlink:href="#aE"/><use transform="matrix(0.05,0,0,0.05,9,0)" xlink:href="#bH"/><use transform="matrix(0.05,0,0,0.05,19,0)" xlink:href="#bJ"/><use transform="matrix(0.05,0,0,0.05,29,0)" xlink:href="#bK"/><use transform="matrix(0.05,0,0,0.05,32.95,0)" xlink:href="#bC"/><use transform="matrix(0.05,0,0,0.05,42.95,0)" xlink:href="#aF"/><use transform="matrix(0.05,0,0,0.05,46.900000000000006,0)" xlink:href="#bF"/></g><path d="M212-179c-10-28-35-45-73-45-59 0-87 40-87 99 0 60 29 101 89 101 43 0 62-24 78-52l27 14C228-24 195 4 139 4 59 4 22-46 18-125c-6-104 99-153 187-111 19 9 31 26 39 46" id="bP"/><g id="as"><use transform="matrix(0.05,0,0,0.05,0,0)" xlink:href="#bP"/><use transform="matrix(0.05,0,0,0.05,12.950000000000001,0)" xlink:href="#aF"/><use transform="matrix(0.05,0,0,0.05,16.900000000000002,0)" xlink:href="#aN"/><use transform="matrix(0.05,0,0,0.05,21.900000000000002,0)" xlink:href="#aF"/><use transform="matrix(0.05,0,0,0.05,25.85,0)" xlink:href="#aK"/><use transform="matrix(0.05,0,0,0.05,35.85,0)" xlink:href="#aE"/></g><g id="at"><use transform="matrix(0.05,0,0,0.05,0,0)" xlink:href="#aE"/><use transform="matrix(0.05,0,0,0.05,9,0)" xlink:href="#aN"/><use transform="matrix(0.05,0,0,0.05,14,0)" xlink:href="#aI"/><use transform="matrix(0.05,0,0,0.05,24,0)" xlink:href="#aN"/><use transform="matrix(0.05,0,0,0.05,29,0)" xlink:href="#aK"/><use transform="matrix(0.05,0,0,0.05,39,0)" xlink:href="#bC"/><use transform="matrix(0.05,0,0,0.05,49,0)" xlink:href="#aF"/><use transform="matrix(0.05,0,0,0.05,52.95,0)" xlink:href="#bF"/></g><g id="au"><use transform="matrix(0.05,0,0,0.05,0,0)" xlink:href="#bP"/><use transform="matrix(0.05,0,0,0.05,12.950000000000001,0)" xlink:href="#aO"/><use transform="matrix(0.05,0,0,0.05,22.950000000000003,0)" xlink:href="#bH"/><use transform="matrix(0.05,0,0,0.05,32.95,0)" xlink:href="#aM"/><use transform="matrix(0.05,0,0,0.05,42.95,0)" xlink:href="#aN"/><use transform="matrix(0.05,0,0,0.05,47.95,0)" xlink:href="#aJ"/><use transform="matrix(0.05,0,0,0.05,53.900000000000006,0)" xlink:href="#aF"/><use transform="matrix(0.05,0,0,0.05,57.85,0)" xlink:href="#aK"/><use transform="matrix(0.05,0,0,0.05,67.85000000000001,0)" xlink:href="#aE"/></g><g id="av"><use transform="matrix(0.05,0,0,0.05,0,0)" xlink:href="#aS"/><use transform="matrix(0.05,0,0,0.05,9,0)" xlink:href="#aO"/><use transform="matrix(0.05,0,0,0.05,19,0)" xlink:href="#bH"/><use transform="matrix(0.05,0,0,0.05,29,0)" xlink:href="#aM"/><use transform="matrix(0.05,0,0,0.05,39,0)" xlink:href="#aN"/><use transform="matrix(0.05,0,0,0.05,44,0)" xlink:href="#aJ"/><use transform="matrix(0.05,0,0,0.05,49.95,0)" xlink:href="#aR"/><use transform="matrix(0.05,0,0,0.05,58.95,0)" xlink:href="#bC"/><use transform="matrix(0.05,0,0,0.05,68.95,0)" xlink:href="#aF"/><use transform="matrix(0.05,0,0,0.05,72.9,0)" xlink:href="#bF"/></g><g id="aw"><use transform="matrix(0.05,0,0,0.05,0,0)" xlink:href="#bH"/><use transform="matrix(0.05,0,0,0.05,10,0)" xlink:href="#aE"/><use transform="matrix(0.05,0,0,0.05,19,0)" xlink:href="#aK"/><use transform="matrix(0.05,0,0,0.05,29,0)" xlink:href="#aJ"/><use transform="matrix(0.05,0,0,0.05,34.95,0)" xlink:href="#bC"/><use transform="matrix(0.05,0,0,0.05,44.95,0)" xlink:href="#aS"/><use transform="matrix(0.05,0,0,0.05,53.95,0)" xlink:href="#aH"/><use transform="matrix(0.05,0,0,0.05,57.900000000000006,0)" xlink:href="#aI"/><use transform="matrix(0.05,0,0,0.05,67.9,0)" xlink:href="#aE"/><use transform="matrix(0.05,0,0,0.05,76.9,0)" xlink:href="#aE"/></g><g id="ax"><use transform="matrix(0.05,0,0,0.05,0,0)" xlink:href="#aH"/><use transform="matrix(0.05,0,0,0.05,3.95,0)" xlink:href="#aI"/><use transform="matrix(0.05,0,0,0.05,13.949999999999998,0)" xlink:href="#bJ"/><use transform="matrix(0.05,0,0,0.05,23.95,0)" xlink:href="#aK"/><use transform="matrix(0.05,0,0,0.05,33.95,0)" xlink:href="#aH"/></g><g id="ay"><use transform="matrix(0.05,0,0,0.05,0,0)" xlink:href="#bM"/><use transform="matrix(0.05,0,0,0.05,12,0)" xlink:href="#aN"/><use transform="matrix(0.05,0,0,0.05,17,0)" xlink:href="#aI"/><use transform="matrix(0.05,0,0,0.05,27,0)" xlink:href="#aN"/><use transform="matrix(0.05,0,0,0.05,32,0)" xlink:href="#aK"/><use transform="matrix(0.05,0,0,0.05,42,0)" xlink:href="#aE"/></g></defs></g></svg>