<svg id="Layer_1" data-name="Layer 1" xmlns="http://www.w3.org/2000/svg" xmlns:xlink="http://www.w3.org/1999/xlink" viewBox="0 0 696 875"><defs><style>.cls-1,.cls-21,.cls-3,.cls-4{fill:#fff;}.cls-1,.cls-2,.cls-4{stroke:#000;}.cls-1,.cls-10,.cls-11,.cls-12,.cls-17,.cls-2,.cls-3,.cls-4,.cls-5,.cls-6,.cls-8,.cls-9{stroke-miterlimit:10;}.cls-1,.cls-2{stroke-width:0.5px;}.cls-1,.cls-10,.cls-11,.cls-12,.cls-13,.cls-14,.cls-15,.cls-16,.cls-17,.cls-18,.cls-19,.cls-2,.cls-20,.cls-21,.cls-22,.cls-23,.cls-24,.cls-25,.cls-3,.cls-4,.cls-5,.cls-6,.cls-7,.cls-8,.cls-9{opacity:0.28;}.cls-10,.cls-11,.cls-12,.cls-3,.cls-5,.cls-6,.cls-8,.cls-9{stroke:#333;}.cls-17,.cls-3,.cls-4,.cls-5,.cls-6{stroke-width:0.25px;}.cls-10,.cls-5{fill:#3fa9f5;}.cls-7{fill:#0ac4a0;}.cls-8{fill:#0bf9cb;}.cls-10,.cls-12,.cls-8,.cls-9{stroke-width:0.1px;}.cls-9{fill:#c1272d;}.cls-11,.cls-14{fill:none;}.cls-12,.cls-15,.cls-17{fill:#2cffd6;}.cls-13{fill:#acfcec;}.cls-16{fill:#00ad8c;}.cls-17{stroke:#006837;}.cls-18{fill:#169980;}.cls-19{fill:#5af9db;}.cls-20{fill:#93f9e5;}.cls-22{fill:#17a388;}.cls-23{fill:url(#linear-gradient);}.cls-24{fill:#daeae7;}.cls-25{font-size:9px;font-family:Roboto-Bold, Roboto;font-weight:700;}.cls-26{letter-spacing:-0.02em;}.cls-27{letter-spacing:0em;}.cls-28{letter-spacing:-0.01em;}.cls-29{font-family:Roboto-Light, Roboto;font-weight:300;}</style><linearGradient id="linear-gradient" x1="524.86" y1="741.28" x2="524.86" y2="736.48" gradientUnits="userSpaceOnUse"><stop offset="0" stop-color="#006837"/><stop offset="0.89" stop-color="#c1272d"/><stop offset="1" stop-color="#009245"/></linearGradient></defs><image width="552" height="317" transform="translate(0 474) scale(0.75)" xlink:href="fdd1.PNG"/><image width="723" height="318" transform="translate(0 235) scale(0.75)" xlink:href="fdd3.PNG"/><image width="891" height="313" transform="scale(0.75)" xlink:href="fdd2.PNG"/><image width="459" height="208" transform="translate(0 712) scale(0.75)" xlink:href="fdd4.PNG"/><rect class="cls-1" x="550.05" y="782.05" width="86.34" height="51.57" transform="translate(1401.05 214.62) rotate(90)"/><rect class="cls-1" x="576.83" y="819.41" width="33.58" height="6"/><rect class="cls-2" x="575.83" y="776.65" width="13.19" height="15.59"/><rect class="cls-3" x="578.23" y="779.05" width="9.13" height="10.79"/><rect class="cls-2" x="599.81" y="776.65" width="8.39" height="9.92"/><rect class="cls-4" x="569.83" y="776.65" width="1.2" height="31.18"/><rect class="cls-4" x="614.8" y="792.84" width="1.2" height="15.59"/><circle class="cls-5" cx="577.63" cy="782.05" r="3.6"/><circle class="cls-3" cx="577.03" cy="781.45" r="1.8"/><circle class="cls-6" cx="575.83" cy="781.45" r="0.6"/><rect class="cls-3" x="602.21" y="779.05" width="4.2" height="4.96"/><circle class="cls-5" cx="600.41" cy="780.85" r="2.4"/><circle class="cls-3" cx="599.21" cy="780.85" r="1.2"/><circle class="cls-6" cx="598.41" cy="780.85" r="0.4"/><path class="cls-7" d="M542.85,790.44h-36a36,36,0,0,1-4.79-21.58,35.18,35.18,0,0,1,4.79-14.39h36a35.16,35.16,0,0,1,4.8,14.39A36,36,0,0,1,542.85,790.44Z"/><circle class="cls-8" cx="524.86" cy="718.49" r="6"/><path class="cls-7" d="M532.06,729.3c-.08-.23-2.88,1.18-7.2,1.18s-7.11-1.41-7.19-1.18,3.13,2.38,7.19,2.38S532.15,729.56,532.06,729.3Z"/><circle class="cls-9" cx="522.46" cy="716.09" r="1.2"/><path class="cls-10" d="M522.46,717.29a1.2,1.2,0,0,0,0-2.4Z"/><circle class="cls-9" cx="527.26" cy="716.09" r="1.2"/><path class="cls-10" d="M527.26,717.29a1.2,1.2,0,1,0,0-2.4Z"/><path class="cls-11" d="M521.26,720.89a1.75,1.75,0,0,0,1.2,0c.72-.31.68-1,1.2-1.2.82-.23,1.55,1.41,2.4,1.2.63-.15.67-1.14,1.2-1.2s.9.63,1.2,1.2"/><polygon class="cls-9" points="523.66 722.65 524.86 723.29 524.26 724.88 525.77 723.76 525.77 724.88 527.26 722.65 523.66 722.65"/><path class="cls-12" d="M562,749.67s.07.25.15.65A1.36,1.36,0,0,0,562,749.67Z"/><path class="cls-13" d="M536.85,731.68c2.7,1.17,6.25-8.06,14.4-9.59a18.94,18.94,0,0,1,6,0c4.17.76,6.76,2.93,7.2,2.4.09-.12.06-.34,0-.64a19.61,19.61,0,0,0-9.56-3c-10.25-.37-16.92,7.66-18.71,10.1A1.6,1.6,0,0,0,536.85,731.68Z"/><path class="cls-14" d="M562.19,750.32a1.36,1.36,0,0,0-.15-.65S562.11,749.92,562.19,750.32Z"/><path class="cls-15" d="M580,746.07c-.66-1.73-1.16-2.36-4.8-9.59l-1.2-2.4a28.09,28.09,0,0,0-9.63-10.23c.1.3.13.52,0,.64-.44.53-3-1.64-7.2-2.4a18.94,18.94,0,0,0-6,0c-8.15,1.53-11.7,10.76-14.4,9.59a1.6,1.6,0,0,1-.72-.69c-.27.38-.44.63-.47.69l2.89,4.35a7.68,7.68,0,0,1,.7-1.95c2.64-4.93,10.81-4.88,12.84-4.81h.35c1,.06,7.14.39,10.8,4.8.81,1,4,4.77,2.4,8.4-1.24,2.87-4.59,3.72-5.16,3.86a3.33,3.33,0,0,0-.84.93c-.61,1.07-.87,2.83,0,3.6a1.86,1.86,0,0,0,2.4,0,.9.9,0,0,0,.15-.55c-.08-.4-.17-.65-.15-.65a1.36,1.36,0,0,1,.15.65,5.45,5.45,0,0,1-.15,2.95c-.46,1.26-1.16,1.41-1.2,2.4a3.38,3.38,0,0,0,1.2,2.4c1.09,1,2.44,1.12,4.79,1.19,4.11.14,6.17.21,7.2,0,2.55-.51,5.77-1.16,7.2-3.59S581.48,749.91,580,746.07Z"/><path class="cls-16" d="M565.64,742.48c1.55-3.63-1.59-7.42-2.4-8.4-3.66-4.41-9.77-4.74-10.8-4.8h-.35c-2-.07-10.2-.12-12.84,4.81a7.68,7.68,0,0,0-.7,1.95l1.9,2.85c3.86-6.56,11.54-8.77,16.79-6,4.46,2.36,7.4,8.88,6,10.8-.09.12-.46.48-1.2,1.19s-1.23,1.16-1.56,1.47C561.05,746.2,564.4,745.35,565.64,742.48Z"/><path class="cls-16" d="M521.06,787.38a15.39,15.39,0,0,0,2.6-8.93c0-5.36-2.28-9.9-5.44-11.43,1.8,2.82,3,8.75,3,15.63C521.26,784.29,521.19,785.88,521.06,787.38Z"/><path class="cls-16" d="M513.52,767c-3.16,1.53-5.45,6.07-5.45,11.43a15.32,15.32,0,0,0,2.61,8.93c-.13-1.5-.21-3.09-.21-4.73C510.47,775.77,511.72,769.84,513.52,767Z"/><path class="cls-17" d="M515.87,790.44a6.55,6.55,0,0,1-5.19-3.06c.64,7.3,2.72,12.66,5.19,12.66s4.55-5.36,5.19-12.66A6.56,6.56,0,0,1,515.87,790.44Z"/><path class="cls-17" d="M515.87,790.44a6.56,6.56,0,0,0,5.19-3.06c.13-1.5.2-3.09.2-4.73,0-6.88-1.24-12.81-3-15.63a5.21,5.21,0,0,0-4.7,0c-1.8,2.82-3,8.75-3,15.63,0,1.64.08,3.23.21,4.73A6.55,6.55,0,0,0,515.87,790.44Z"/><path class="cls-16" d="M531.5,767c-3.15,1.53-5.44,6.07-5.44,11.43a15.32,15.32,0,0,0,2.61,8.93c-.13-1.5-.21-3.09-.21-4.73C528.46,775.77,529.7,769.84,531.5,767Z"/><path class="cls-16" d="M539.05,787.38a15.39,15.39,0,0,0,2.6-8.93c0-5.36-2.29-9.9-5.44-11.43,1.8,2.82,3,8.75,3,15.63C539.25,784.29,539.18,785.88,539.05,787.38Z"/><path class="cls-17" d="M533.86,790.44a6.55,6.55,0,0,1-5.19-3.06c.64,7.3,2.72,12.66,5.19,12.66s4.54-5.36,5.19-12.66A6.56,6.56,0,0,1,533.86,790.44Z"/><path class="cls-17" d="M533.86,790.44a6.56,6.56,0,0,0,5.19-3.06c.13-1.5.2-3.09.2-4.73,0-6.88-1.24-12.81-3-15.63a5.34,5.34,0,0,0-2.35-.56,5.42,5.42,0,0,0-2.36.56c-1.8,2.82-3,8.75-3,15.63,0,1.64.08,3.23.21,4.73A6.55,6.55,0,0,0,533.86,790.44Z"/><path class="cls-17" d="M519.47,803.64c-.36.36-1.87-1.43-4.2-1.2-1.82.17-2.74,1.45-3,1.2s1-4.19,3.6-4.2S519.91,803.18,519.47,803.64Z"/><path class="cls-17" d="M537.45,803.64c-.35.36-1.86-1.43-4.19-1.2-1.82.17-2.74,1.45-3,1.2s1-4.19,3.6-4.2S537.9,803.18,537.45,803.64Z"/><path class="cls-18" d="M508.07,754.47a31.82,31.82,0,0,0,33.58,0"/><path class="cls-15" d="M488.37,750.87s-.08.25-.16.65A1.44,1.44,0,0,1,488.37,750.87Z"/><path class="cls-13" d="M513.55,732.88c-2.7,1.17-6.25-8.06-14.39-9.59a18.68,18.68,0,0,0-6,0c-4.17.76-6.76,2.93-7.19,2.4-.09-.12-.07-.35,0-.64a19.57,19.57,0,0,1,9.55-3c10.26-.37,16.93,7.66,18.71,10.1A1.55,1.55,0,0,1,513.55,732.88Z"/><path class="cls-14" d="M488.21,751.52a1.44,1.44,0,0,1,.16-.65S488.29,751.12,488.21,751.52Z"/><path class="cls-15" d="M470.38,747.27c.66-1.73,1.16-2.36,4.79-9.59.83-1.64,1.06-2.11,1.2-2.4A28.14,28.14,0,0,1,486,725.05c-.11.29-.13.52,0,.64.43.53,3-1.64,7.19-2.4a18.68,18.68,0,0,1,6,0c8.14,1.53,11.69,10.76,14.39,9.59a1.55,1.55,0,0,0,.72-.69l.48.69-2.9,4.35a7.55,7.55,0,0,0-.7-2c-2.64-4.93-10.81-4.88-12.84-4.81H498c-1,.06-7.13.39-10.79,4.8-.82,1-4,4.77-2.4,8.4,1.23,2.86,4.58,3.72,5.15,3.85a3.48,3.48,0,0,1,.84.94c.61,1.07.87,2.83,0,3.6a1.85,1.85,0,0,1-2.39,0,.91.91,0,0,1-.16-.55c.08-.4.17-.65.16-.65a1.44,1.44,0,0,0-.16.65,5.47,5.47,0,0,0,.16,3c.45,1.26,1.15,1.41,1.2,2.4a3.37,3.37,0,0,1-1.2,2.39c-1.1,1-2.44,1.12-4.8,1.2-4.11.14-6.17.21-7.2,0-2.54-.51-5.76-1.16-7.19-3.59S468.92,751.11,470.38,747.27Z"/><path class="cls-16" d="M484.77,743.68c-1.56-3.63,1.58-7.42,2.4-8.4,3.66-4.41,9.77-4.74,10.79-4.8h.35c2-.07,10.2-.12,12.84,4.81a7.55,7.55,0,0,1,.7,2l-1.9,2.85c-3.85-6.56-11.53-8.77-16.79-6-4.46,2.36-7.4,8.88-6,10.79.09.13.46.48,1.2,1.2s1.22,1.16,1.55,1.46C489.35,747.4,486,746.54,484.77,743.68Z"/><path class="cls-15" d="M506.87,754.47c-1.87-15.61,8.9-27.35,18-27.58,9.3-.24,19.74,11.47,18,27.58"/><circle class="cls-19" cx="524.86" cy="741.28" r="8.39"/><path class="cls-20" d="M524.86,737.68a4.78,4.78,0,0,1,4.63,3.6,4.8,4.8,0,1,0-9.25,0A4.77,4.77,0,0,1,524.86,737.68Z"/><path class="cls-21" d="M529.22,742a5.29,5.29,0,0,0,.27-.76,4.77,4.77,0,0,0-9.25,0,4.26,4.26,0,0,0,.26.76,6.11,6.11,0,0,1,8.72,0Z"/><path class="cls-22" d="M524.86,744.87a4.77,4.77,0,0,0,4.36-2.83,6.11,6.11,0,0,0-8.72,0A4.77,4.77,0,0,0,524.86,744.87Z"/><circle class="cls-23" cx="524.86" cy="738.88" r="2.4"/><ellipse class="cls-24" cx="582" cy="704.5" rx="40" ry="17.63"/><text class="cls-25" transform="translate(561.23 706.46)"><tspan class="cls-26">W</tspan><tspan class="cls-27" x="7.73" y="0">ei</tspan><tspan class="cls-28" x="14.99" y="0">r</tspan><tspan x="18.18" y="0">d </tspan><tspan class="cls-29" x="25.5" y="0">eh?</tspan></text><polygon class="cls-24" points="542 705 534.39 716 554 712.34 542 705"/></svg>